M48
;DRILL file {KiCad 4.0.1-stable} date 15.08.2016 21:33:21
;FORMAT={-:-/ absolute / metric / decimal}
FMAT,2
METRIC,TZ
T1C0.350
T2C0.650
T3C0.800
T4C1.000
T5C1.999
%
G90
G05
M71
T1
X22.225Y-41.275
X22.225Y-44.45
X23.495Y-104.14
X32.703Y-60.642
X32.703Y-63.817
X34.608Y-51.117
X34.608Y-54.292
X34.925Y-40.005
X38.1Y-40.005
X40.005Y-80.01
X41.275Y-53.34
X41.275Y-59.055
X42.545Y-99.06
X43.18Y-80.01
X44.45Y-53.34
X44.45Y-59.055
X45.72Y-99.06
X46.355Y-80.01
X48.895Y-99.06
X52.07Y-99.06
X74.041Y-35.433
X75.819Y-38.227
X76.835Y-84.455
X76.835Y-92.075
X76.835Y-106.68
X76.835Y-114.3
X76.835Y-128.27
X76.835Y-147.955
X76.835Y-155.575
X77.47Y-174.625
X80.01Y-64.77
X80.01Y-84.455
X80.01Y-92.075
X80.01Y-106.68
X80.01Y-114.3
X80.01Y-128.27
X80.01Y-147.955
X80.01Y-155.575
X80.645Y-174.625
X83.185Y-64.77
X83.185Y-84.455
X83.185Y-92.075
X83.185Y-106.68
X83.185Y-114.3
X83.185Y-128.27
X83.185Y-147.955
X83.185Y-155.575
X83.82Y-174.625
X86.36Y-64.77
X86.36Y-84.455
X86.36Y-92.075
X86.36Y-106.68
X86.36Y-114.3
X86.36Y-128.27
X86.36Y-147.955
X86.36Y-155.575
X86.995Y-174.625
X89.535Y-64.77
X89.535Y-84.455
X89.535Y-92.075
X89.535Y-106.68
X89.535Y-114.3
X89.535Y-128.27
X89.535Y-147.955
X89.535Y-155.575
X90.17Y-174.625
X92.71Y-64.77
X92.71Y-84.455
X92.71Y-92.075
X92.71Y-106.68
X92.71Y-114.3
X92.71Y-128.27
X92.71Y-147.955
X92.71Y-155.575
X93.345Y-174.625
X95.885Y-64.77
X95.885Y-84.455
X95.885Y-92.075
X95.885Y-106.68
X95.885Y-114.3
X95.885Y-128.27
X95.885Y-147.955
X95.885Y-155.575
X96.52Y-174.625
X99.06Y-84.455
X99.06Y-92.075
X99.06Y-106.68
X99.06Y-114.3
X99.06Y-128.27
X99.06Y-147.955
X99.06Y-155.575
X99.695Y-174.625
X102.235Y-84.455
X102.235Y-92.075
X102.235Y-106.68
X102.235Y-114.3
X102.235Y-128.27
X102.235Y-147.955
X102.235Y-155.575
X102.87Y-174.625
X103.085Y-61.76
X105.41Y-84.455
X105.41Y-92.075
X105.41Y-106.68
X105.41Y-114.3
X105.41Y-128.27
X105.41Y-147.955
X105.41Y-155.575
X106.045Y-174.625
X108.585Y-84.455
X108.585Y-92.075
X108.585Y-106.68
X108.585Y-114.3
X108.585Y-128.27
X108.585Y-147.955
X108.585Y-155.575
X109.22Y-174.625
X111.76Y-84.455
X111.76Y-92.075
X111.76Y-106.68
X111.76Y-114.3
X111.76Y-128.27
X111.76Y-147.955
X111.76Y-155.575
X112.395Y-174.625
X121.285Y-24.765
X121.285Y-27.305
X124.587Y-27.305
X127.635Y-24.765
X127.635Y-27.305
X128.905Y-58.42
X129.54Y-106.934
X129.54Y-114.554
X130.81Y-24.765
X130.81Y-27.305
X130.81Y-29.845
X132.08Y-58.42
X133.985Y-24.765
X133.985Y-27.305
X133.985Y-29.845
X134.239Y-128.27
X135.255Y-58.42
X137.16Y-24.765
X137.16Y-27.305
X137.16Y-29.845
X137.414Y-128.27
X139.446Y-137.541
X142.875Y-24.765
X142.875Y-26.67
X142.875Y-28.575
X149.225Y-45.085
X150.495Y-24.765
X151.13Y-156.21
X151.765Y-26.67
X152.4Y-45.085
X153.035Y-28.575
X154.305Y-156.21
X155.575Y-45.085
X155.575Y-163.195
X157.48Y-156.21
X157.835Y-103.295
X158.75Y-163.195
X161.01Y-103.295
T2
X77.47Y-67.23
X87.81Y-43.
X89.49Y-38.4
X91.34Y-42.02
X93.98Y-42.23
X104.15Y-53.95
X105.42Y-62.26
X106.68Y-55.16
X106.68Y-61.25
X107.96Y-62.29
X109.25Y-63.78
X111.75Y-65.27
X113.04Y-67.23
X114.31Y-68.51
X114.82Y-26.04
X116.84Y-71.72
X118.11Y-74.02
X119.39Y-74.83
X120.61Y-77.45
X123.2Y-80.6
X124.6Y-82.82
X125.86Y-83.93
X125.86Y-127.42
X143.68Y-91.33
X145.04Y-91.38
X146.41Y-91.42
X158.5Y-135.76
T3
X24.32Y-111.671
X24.43Y-138.425
X24.43Y-146.149
X25.85Y-58.01
X25.85Y-60.51
X25.87Y-52.43
X25.87Y-54.93
X25.88Y-47.13
X25.88Y-49.63
X25.89Y-63.6
X25.89Y-66.1
X26.434Y-108.123
X26.964Y-115.113
X26.97Y-138.425
X26.97Y-146.149
X28.974Y-108.123
X29.2Y-42.45
X29.464Y-115.113
X30.061Y-49.67
X30.061Y-52.21
X30.061Y-54.75
X30.061Y-57.29
X30.061Y-59.83
X30.061Y-62.37
X30.061Y-64.91
X30.061Y-67.45
X31.941Y-111.671
X33.Y-42.45
X37.681Y-49.67
X37.681Y-52.21
X37.681Y-54.75
X37.681Y-57.29
X37.681Y-59.83
X37.681Y-62.37
X37.681Y-64.91
X37.681Y-67.45
X46.99Y-24.13
X46.99Y-31.75
X46.99Y-35.56
X46.99Y-43.18
X49.53Y-24.13
X49.53Y-31.75
X49.53Y-35.56
X49.53Y-43.18
X52.07Y-24.13
X52.07Y-31.75
X52.07Y-35.56
X52.07Y-43.18
X54.61Y-24.13
X54.61Y-31.75
X54.61Y-35.56
X54.61Y-43.18
X57.15Y-24.13
X57.15Y-31.75
X57.15Y-35.56
X57.15Y-43.18
X59.69Y-24.13
X59.69Y-31.75
X59.69Y-35.56
X59.69Y-43.18
X62.23Y-24.13
X62.23Y-31.75
X62.23Y-35.56
X62.23Y-43.18
X64.77Y-24.13
X64.77Y-31.75
X64.77Y-35.56
X64.77Y-43.18
X67.31Y-24.13
X67.31Y-31.75
X67.31Y-35.56
X67.31Y-43.18
X69.85Y-24.13
X69.85Y-31.75
X69.85Y-35.56
X69.85Y-43.18
X73.66Y-38.14
X73.66Y-40.64
X73.7Y-26.21
X73.7Y-28.71
X120.69Y-36.83
X120.69Y-41.91
X123.19Y-36.83
X123.19Y-41.91
X127.Y-36.83
X127.Y-41.91
X129.5Y-36.83
X129.5Y-41.91
X142.24Y-66.04
X142.24Y-68.58
X142.24Y-71.12
X142.24Y-73.66
X142.24Y-76.2
X142.24Y-78.74
X142.24Y-81.28
X143.09Y-133.22
X143.09Y-135.72
X144.51Y-164.104
X144.515Y-178.638
X144.526Y-168.933
X144.526Y-173.815
X144.82Y-62.23
X145.8Y-110.36
X145.8Y-112.9
X145.8Y-115.44
X145.8Y-117.98
X145.8Y-120.52
X145.8Y-123.06
X145.8Y-125.6
X145.8Y-128.14
X145.8Y-130.68
X145.8Y-133.22
X145.8Y-135.76
X145.8Y-138.3
X145.8Y-140.84
X145.8Y-143.38
X145.8Y-145.92
X145.8Y-148.46
X145.8Y-151.
X145.8Y-153.54
X145.8Y-156.08
X145.8Y-158.62
X147.01Y-164.104
X147.015Y-178.638
X147.31Y-58.18
X147.32Y-62.23
X149.85Y-58.18
X149.86Y-66.04
X149.86Y-68.58
X149.86Y-71.12
X149.86Y-73.66
X149.86Y-76.2
X149.86Y-78.74
X149.86Y-81.28
X153.67Y-66.04
X153.67Y-68.58
X153.67Y-71.12
X153.67Y-73.66
X153.67Y-76.2
X153.67Y-78.74
X153.67Y-81.28
X156.25Y-62.23
X158.75Y-62.23
X161.04Y-110.36
X161.04Y-112.9
X161.04Y-115.44
X161.04Y-117.98
X161.04Y-120.52
X161.04Y-123.06
X161.04Y-125.6
X161.04Y-128.14
X161.04Y-130.68
X161.04Y-133.22
X161.04Y-135.76
X161.04Y-138.3
X161.04Y-140.84
X161.04Y-143.38
X161.04Y-145.92
X161.04Y-148.46
X161.04Y-151.
X161.04Y-153.54
X161.04Y-156.08
X161.04Y-158.62
X161.29Y-66.04
X161.29Y-68.58
X161.29Y-71.12
X161.29Y-73.66
X161.29Y-76.2
X161.29Y-78.74
X161.29Y-81.28
T4
X25.296Y-74.498
X25.296Y-77.038
X25.4Y-156.845
X25.4Y-159.385
X26.243Y-118.722
X26.243Y-125.326
X27.836Y-74.498
X27.836Y-77.038
X27.94Y-156.845
X27.94Y-159.385
X30.376Y-74.498
X30.376Y-77.038
X30.48Y-156.845
X30.48Y-159.385
X30.815Y-118.722
X30.815Y-125.326
X32.126Y-138.42
X32.179Y-146.152
X32.916Y-74.498
X32.916Y-77.038
X34.666Y-138.42
X34.719Y-146.152
X35.456Y-74.498
X35.456Y-77.038
X74.93Y-60.96
X74.93Y-63.5
X77.47Y-49.53
X77.47Y-52.07
X78.74Y-24.765
X78.74Y-27.305
X78.74Y-32.385
X78.74Y-34.925
X80.01Y-49.53
X80.01Y-52.07
X81.28Y-24.765
X81.28Y-27.305
X81.28Y-32.385
X81.28Y-34.925
X82.55Y-49.53
X82.55Y-52.07
X83.82Y-24.765
X83.82Y-27.305
X83.82Y-32.385
X83.82Y-34.925
X85.09Y-49.53
X85.09Y-52.07
X86.36Y-24.765
X86.36Y-27.305
X86.36Y-32.385
X86.36Y-34.925
X87.63Y-49.53
X87.63Y-52.07
X88.9Y-24.765
X88.9Y-27.305
X88.9Y-32.385
X88.9Y-34.925
X90.17Y-49.53
X90.17Y-52.07
X91.44Y-24.765
X91.44Y-27.305
X91.44Y-32.385
X91.44Y-34.925
X92.71Y-49.53
X92.71Y-52.07
X93.98Y-24.765
X93.98Y-27.305
X93.98Y-32.385
X93.98Y-34.925
X95.25Y-49.53
X95.25Y-52.07
X96.52Y-24.765
X96.52Y-27.305
X96.52Y-32.385
X96.52Y-34.925
X97.79Y-49.53
X97.79Y-52.07
X99.06Y-24.765
X99.06Y-27.305
X99.06Y-32.385
X99.06Y-34.925
X100.33Y-49.53
X100.33Y-52.07
X101.6Y-24.765
X101.6Y-27.305
X101.6Y-32.385
X101.6Y-34.925
X101.6Y-42.545
X102.87Y-49.53
X102.87Y-52.07
X104.14Y-24.765
X104.14Y-27.305
X104.14Y-32.385
X104.14Y-34.925
X104.14Y-42.545
X105.41Y-49.53
X105.41Y-52.07
X106.68Y-24.765
X106.68Y-27.305
X106.68Y-32.385
X106.68Y-34.925
X106.68Y-42.545
X107.95Y-49.53
X107.95Y-52.07
X109.22Y-24.765
X109.22Y-27.305
X109.22Y-32.385
X109.22Y-34.925
X109.22Y-42.545
X110.49Y-49.53
X110.49Y-52.07
X111.76Y-42.545
X113.03Y-49.53
X113.03Y-52.07
X115.57Y-49.53
X115.57Y-52.07
X116.84Y-24.765
X116.84Y-27.305
X116.84Y-29.845
X116.84Y-32.385
X116.84Y-34.925
X116.84Y-37.465
X116.84Y-40.005
X116.84Y-42.545
X118.11Y-49.53
X118.11Y-52.07
X120.65Y-49.53
X120.65Y-52.07
X123.19Y-49.53
X123.19Y-52.07
X125.73Y-49.53
X125.73Y-52.07
T5
X23.929Y-34.79
X29.009Y-34.79
X34.089Y-34.79
X39.169Y-34.79
T0
M30
