M48
;DRILL file {KiCad 4.0.1-stable} date 15.03.2016 20:13:06
;FORMAT={-:-/ absolute / metric / decimal}
FMAT,2
METRIC,TZ
T1C0.350
T2C0.650
T3C0.800
T4C1.000
T5C1.999
%
G90
G05
M71
T1
X46.225Y-142.499
X46.774Y-171.326
X47.201Y-129.25
X47.925Y-54.549
X49.101Y-75.649
X49.225Y-96.276
X68.001Y-47.775
X76.751Y-90.726
X77.676Y-44.249
X79.901Y-117.249
X89.2Y-171.074
X89.276Y-143.149
X102.225Y-85.875
X102.652Y-67.224
X107.574Y-112.9
X108.1Y-73.007
X109.357Y-78.456
X109.799Y-60.35
X112.235Y-81.529
X112.55Y-62.824
X117.394Y-82.159
X117.394Y-86.67
X120.645Y-112.923
X122.083Y-101.778
X122.207Y-87.706
X123.226Y-134.851
X123.426Y-172.049
X127.838Y-107.254
X127.963Y-93.182
X128.999Y-120.774
X135.4Y-127.124
X135.626Y-83.624
X138.999Y-88.224
X139.751Y-83.624
X143.749Y-28.425
X151.176Y-150.376
X152.151Y-28.999
X152.524Y-124.249
X154.Y-150.376
X155.55Y-43.475
X157.625Y-119.075
T2
X68.34Y-40.6
X69.748Y-34.608
X91.15Y-74.75
X91.483Y-31.661
X97.533Y-44.303
X97.59Y-70.03
X98.12Y-37.55
X99.174Y-71.651
X99.92Y-73.79
X101.404Y-41.686
X104.78Y-37.178
X105.049Y-29.5
X105.73Y-36.21
X107.09Y-36.24
X108.24Y-35.54
X113.51Y-64.87
X119.12Y-82.38
X150.226Y-110.401
X156.Y-104.26
T3
X24.32Y-111.671
X24.43Y-138.425
X24.43Y-146.149
X25.855Y-58.009
X25.855Y-60.509
X25.867Y-52.431
X25.867Y-54.931
X25.878Y-47.129
X25.878Y-49.629
X25.89Y-63.597
X25.89Y-66.097
X26.434Y-108.123
X26.964Y-115.113
X26.97Y-138.425
X26.97Y-146.149
X28.974Y-108.123
X29.464Y-115.113
X30.061Y-49.67
X30.061Y-52.21
X30.061Y-54.75
X30.061Y-57.29
X30.061Y-59.83
X30.061Y-62.37
X30.061Y-64.91
X30.061Y-67.45
X31.941Y-111.671
X32.773Y-43.731
X35.273Y-43.731
X37.681Y-49.67
X37.681Y-52.21
X37.681Y-54.75
X37.681Y-57.29
X37.681Y-59.83
X37.681Y-62.37
X37.681Y-64.91
X37.681Y-67.45
X50.787Y-33.68
X50.787Y-41.3
X53.327Y-33.68
X53.327Y-41.3
X55.867Y-33.68
X55.867Y-41.3
X58.407Y-33.68
X58.407Y-41.3
X60.947Y-33.68
X60.947Y-41.3
X63.487Y-33.68
X63.487Y-41.3
X66.027Y-33.68
X66.027Y-41.3
X70.18Y-36.271
X70.18Y-38.771
X74.32Y-33.706
X74.32Y-41.326
X76.86Y-33.706
X76.86Y-41.326
X79.4Y-33.706
X79.4Y-41.326
X81.94Y-33.706
X81.94Y-41.326
X84.48Y-33.706
X84.48Y-41.326
X87.02Y-33.706
X87.02Y-41.326
X89.56Y-33.706
X89.56Y-41.326
X92.1Y-33.706
X92.1Y-41.326
X94.64Y-33.706
X94.64Y-41.326
X97.18Y-33.706
X97.18Y-41.326
X101.321Y-36.271
X101.321Y-38.771
X105.486Y-33.68
X105.486Y-41.3
X108.026Y-33.68
X108.026Y-41.3
X110.566Y-33.68
X110.566Y-41.3
X113.106Y-33.68
X113.106Y-41.3
X115.646Y-33.68
X115.646Y-41.3
X118.186Y-33.68
X118.186Y-41.3
X120.726Y-33.68
X120.726Y-41.3
X123.266Y-33.68
X123.266Y-41.3
X125.806Y-33.68
X125.806Y-41.3
X128.346Y-33.68
X128.346Y-41.3
X142.631Y-71.854
X143.103Y-66.111
X144.51Y-164.104
X144.515Y-178.638
X144.526Y-168.933
X144.526Y-173.815
X145.171Y-71.854
X145.171Y-74.394
X145.603Y-66.111
X145.745Y-103.632
X145.745Y-106.172
X145.745Y-108.712
X145.745Y-111.252
X145.745Y-113.792
X145.745Y-116.332
X145.745Y-118.872
X145.745Y-121.412
X145.745Y-123.952
X145.745Y-126.492
X145.745Y-129.032
X145.745Y-131.572
X145.745Y-134.112
X145.745Y-136.652
X145.745Y-139.192
X145.745Y-141.732
X145.745Y-144.272
X145.745Y-146.812
X145.745Y-149.352
X145.745Y-151.892
X147.01Y-164.104
X147.015Y-178.638
X147.512Y-60.823
X149.758Y-74.397
X150.012Y-60.823
X150.104Y-70.399
X150.355Y-66.749
X152.258Y-74.397
X152.644Y-70.399
X152.895Y-66.749
X154.407Y-59.969
X154.407Y-62.469
X160.985Y-103.632
X160.985Y-106.172
X160.985Y-108.712
X160.985Y-111.252
X160.985Y-113.792
X160.985Y-116.332
X160.985Y-118.872
X160.985Y-121.412
X160.985Y-123.952
X160.985Y-126.492
X160.985Y-129.032
X160.985Y-131.572
X160.985Y-134.112
X160.985Y-136.652
X160.985Y-139.192
X160.985Y-141.732
X160.985Y-144.272
X160.985Y-146.812
X160.985Y-149.352
X160.985Y-151.892
X161.366Y-157.937
X161.366Y-160.437
T4
X25.296Y-74.498
X25.296Y-77.038
X26.243Y-118.722
X26.243Y-125.326
X27.836Y-74.498
X27.836Y-77.038
X30.376Y-74.498
X30.376Y-77.038
X30.815Y-118.722
X30.815Y-125.326
X32.126Y-138.42
X32.179Y-146.152
X32.916Y-74.498
X32.916Y-77.038
X34.666Y-138.42
X34.719Y-146.152
X35.456Y-74.498
X35.456Y-77.038
X51.117Y-24.333
X51.117Y-26.873
X53.657Y-24.333
X53.657Y-26.873
X56.197Y-24.333
X56.197Y-26.873
X58.737Y-24.333
X58.737Y-26.873
X61.277Y-24.333
X61.277Y-26.873
X63.817Y-24.333
X63.817Y-26.873
X66.358Y-24.333
X66.358Y-26.873
X68.897Y-24.333
X68.897Y-26.873
X71.438Y-24.333
X71.438Y-26.873
X73.977Y-24.333
X73.977Y-26.873
X75.789Y-59.258
X75.789Y-61.798
X76.517Y-24.333
X76.517Y-26.873
X79.057Y-24.333
X79.057Y-26.873
X81.597Y-24.333
X81.597Y-26.873
X86.169Y-52.438
X86.169Y-54.978
X88.709Y-52.438
X88.709Y-54.978
X91.249Y-52.438
X91.249Y-54.978
X91.478Y-24.371
X91.478Y-26.911
X93.789Y-52.438
X93.789Y-54.978
X94.018Y-24.371
X94.018Y-26.911
X96.329Y-52.438
X96.329Y-54.978
X96.558Y-24.371
X96.558Y-26.911
X98.87Y-52.438
X98.87Y-54.978
X99.098Y-24.371
X99.098Y-26.911
X101.409Y-52.438
X101.409Y-54.978
X101.638Y-24.371
X101.638Y-26.911
X103.95Y-52.438
X103.95Y-54.978
X104.178Y-24.371
X104.178Y-26.911
X105.156Y-44.78
X106.489Y-52.438
X106.489Y-54.978
X106.718Y-24.371
X106.718Y-26.911
X107.696Y-44.78
X109.029Y-52.438
X109.029Y-54.978
X109.258Y-24.371
X109.258Y-26.911
X110.236Y-44.78
X111.569Y-52.438
X111.569Y-54.978
X111.798Y-24.371
X111.798Y-26.911
X112.776Y-44.78
X114.109Y-52.438
X114.109Y-54.978
X114.338Y-24.371
X114.338Y-26.911
X115.316Y-44.78
X116.649Y-52.438
X116.649Y-54.978
X116.878Y-24.371
X116.878Y-26.911
X118.161Y-44.793
X119.189Y-52.438
X119.189Y-54.978
X119.418Y-24.371
X119.418Y-26.911
X120.701Y-44.793
X121.73Y-52.438
X121.73Y-54.978
X121.958Y-24.371
X121.958Y-26.911
X123.241Y-44.793
X124.269Y-52.438
X124.269Y-54.978
X125.781Y-44.793
X126.809Y-52.438
X126.809Y-54.978
X128.321Y-44.793
X129.35Y-52.438
X129.35Y-54.978
X131.889Y-52.438
X131.889Y-54.978
X134.429Y-52.438
X134.429Y-54.978
X146.091Y-79.703
X146.091Y-82.243
X148.631Y-79.703
X148.631Y-82.243
X151.171Y-79.703
X151.171Y-82.243
X156.477Y-73.088
X156.477Y-75.629
X156.477Y-78.168
X156.477Y-80.709
X156.477Y-83.248
X159.319Y-65.479
X159.319Y-68.019
X159.319Y-70.559
X159.319Y-73.099
X159.319Y-75.639
X159.319Y-78.179
X159.319Y-80.719
X159.319Y-83.259
T5
X23.929Y-34.79
X29.009Y-34.79
X34.089Y-34.79
X39.169Y-34.79
T0
M30
