%FSLAX45Y45*%
G04 Gerber Fmt 4.5, Leading zero omitted, Abs format (unit mm)*
G04 Created by KiCad (PCBNEW 4.0.1-stable) date 15.03.2016 20:13:12*
%MOMM*%
G01*
G04 APERTURE LIST*
%ADD10C,0.127000*%
%ADD11C,0.381000*%
%ADD12C,0.200000*%
%ADD13C,0.300000*%
G04 APERTURE END LIST*
D10*
D11*
X16361918Y-2135124D02*
X16361918Y-18174970D01*
X1961896Y-2135124D02*
X16361918Y-2135124D01*
X1961896Y-2135886D02*
X1961896Y-2135124D01*
X1961896Y-2136902D02*
X1961896Y-2135886D01*
X1961896Y-18174970D02*
X1961896Y-2136902D01*
X16361918Y-18174970D02*
X1961896Y-18174970D01*
D12*
X4605046Y-14232408D02*
X4640046Y-14267408D01*
X4640046Y-14232408D02*
X4605046Y-14267408D01*
X4659910Y-17115054D02*
X4694910Y-17150054D01*
X4694910Y-17115054D02*
X4659910Y-17150054D01*
X4702582Y-12907544D02*
X4737582Y-12942544D01*
X4737582Y-12907544D02*
X4702582Y-12942544D01*
X4774972Y-5437404D02*
X4809972Y-5472404D01*
X4809972Y-5437404D02*
X4774972Y-5472404D01*
X4892574Y-7547382D02*
X4927574Y-7582382D01*
X4927574Y-7547382D02*
X4892574Y-7582382D01*
X4905020Y-9610116D02*
X4940020Y-9645116D01*
X4940020Y-9610116D02*
X4905020Y-9645116D01*
X6782588Y-4759986D02*
X6817588Y-4794986D01*
X6817588Y-4759986D02*
X6782588Y-4794986D01*
X7657618Y-9055126D02*
X7692618Y-9090126D01*
X7692618Y-9055126D02*
X7657618Y-9090126D01*
X7750074Y-4407434D02*
X7785074Y-4442434D01*
X7785074Y-4407434D02*
X7750074Y-4442434D01*
X7972578Y-11707394D02*
X8007578Y-11742394D01*
X8007578Y-11707394D02*
X7972578Y-11742394D01*
X8902472Y-17089908D02*
X8937472Y-17124908D01*
X8937472Y-17089908D02*
X8902472Y-17124908D01*
X8910092Y-14297432D02*
X8945092Y-14332432D01*
X8945092Y-14297432D02*
X8910092Y-14332432D01*
X10204984Y-8569986D02*
X10239984Y-8604986D01*
X10239984Y-8569986D02*
X10204984Y-8604986D01*
X10247656Y-6704864D02*
X10282656Y-6739864D01*
X10282656Y-6704864D02*
X10247656Y-6739864D01*
X10739908Y-11272546D02*
X10774908Y-11307546D01*
X10774908Y-11272546D02*
X10739908Y-11307546D01*
X10792486Y-7283222D02*
X10827486Y-7318222D01*
X10827486Y-7283222D02*
X10792486Y-7318222D01*
X10918216Y-7828052D02*
X10953216Y-7863052D01*
X10953216Y-7828052D02*
X10918216Y-7863052D01*
X10962412Y-6017540D02*
X10997412Y-6052540D01*
X10997412Y-6017540D02*
X10962412Y-6052540D01*
X11205998Y-8135392D02*
X11240998Y-8170392D01*
X11240998Y-8135392D02*
X11205998Y-8170392D01*
X11237494Y-6264936D02*
X11272494Y-6299936D01*
X11272494Y-6264936D02*
X11237494Y-6299936D01*
X11721872Y-8198384D02*
X11756872Y-8233384D01*
X11756872Y-8198384D02*
X11721872Y-8233384D01*
X11721872Y-8649488D02*
X11756872Y-8684488D01*
X11756872Y-8649488D02*
X11721872Y-8684488D01*
X12046992Y-11274832D02*
X12081992Y-11309832D01*
X12081992Y-11274832D02*
X12046992Y-11309832D01*
X12190756Y-10160280D02*
X12225756Y-10195280D01*
X12225756Y-10160280D02*
X12190756Y-10195280D01*
X12203202Y-8753120D02*
X12238202Y-8788120D01*
X12238202Y-8753120D02*
X12203202Y-8788120D01*
X12305056Y-13467614D02*
X12340056Y-13502614D01*
X12340056Y-13467614D02*
X12305056Y-13502614D01*
X12325122Y-17187444D02*
X12360122Y-17222444D01*
X12360122Y-17187444D02*
X12325122Y-17222444D01*
X12766320Y-10707904D02*
X12801320Y-10742904D01*
X12801320Y-10707904D02*
X12766320Y-10742904D01*
X12778766Y-9300744D02*
X12813766Y-9335744D01*
X12813766Y-9300744D02*
X12778766Y-9335744D01*
X12882398Y-12059946D02*
X12917398Y-12094946D01*
X12917398Y-12059946D02*
X12882398Y-12094946D01*
X13522478Y-12694946D02*
X13557478Y-12729946D01*
X13557478Y-12694946D02*
X13522478Y-12729946D01*
X13545084Y-8344942D02*
X13580084Y-8379942D01*
X13580084Y-8344942D02*
X13545084Y-8379942D01*
X13882396Y-8804936D02*
X13917396Y-8839936D01*
X13917396Y-8804936D02*
X13882396Y-8839936D01*
X13957580Y-8344942D02*
X13992580Y-8379942D01*
X13992580Y-8344942D02*
X13957580Y-8379942D01*
X14357376Y-2825014D02*
X14392376Y-2860014D01*
X14392376Y-2825014D02*
X14357376Y-2860014D01*
X15100072Y-15020062D02*
X15135072Y-15055062D01*
X15135072Y-15020062D02*
X15100072Y-15055062D01*
X15197608Y-2882418D02*
X15232608Y-2917418D01*
X15232608Y-2882418D02*
X15197608Y-2917418D01*
X15234946Y-12407418D02*
X15269946Y-12442418D01*
X15269946Y-12407418D02*
X15234946Y-12442418D01*
X15382520Y-15020062D02*
X15417520Y-15055062D01*
X15417520Y-15020062D02*
X15382520Y-15055062D01*
X15537460Y-4329964D02*
X15572460Y-4364964D01*
X15572460Y-4329964D02*
X15537460Y-4364964D01*
X15744978Y-11890020D02*
X15779978Y-11925020D01*
X15779978Y-11890020D02*
X15744978Y-11925020D01*
X6866500Y-4060000D02*
G75*
G03X6866500Y-4060000I-32500J0D01*
G01*
X7007340Y-3460750D02*
G75*
G03X7007340Y-3460750I-32500J0D01*
G01*
X9147544Y-7474966D02*
G75*
G03X9147544Y-7474966I-32500J0D01*
G01*
X9180818Y-3166110D02*
G75*
G03X9180818Y-3166110I-32500J0D01*
G01*
X9785846Y-4430268D02*
G75*
G03X9785846Y-4430268I-32500J0D01*
G01*
X9791500Y-7003000D02*
G75*
G03X9791500Y-7003000I-32500J0D01*
G01*
X9844500Y-3755000D02*
G75*
G03X9844500Y-3755000I-32500J0D01*
G01*
X9949930Y-7165086D02*
G75*
G03X9949930Y-7165086I-32500J0D01*
G01*
X10024500Y-7379000D02*
G75*
G03X10024500Y-7379000I-32500J0D01*
G01*
X10172942Y-4168648D02*
G75*
G03X10172942Y-4168648I-32500J0D01*
G01*
X10510508Y-3717798D02*
G75*
G03X10510508Y-3717798I-32500J0D01*
G01*
X10537432Y-2949956D02*
G75*
G03X10537432Y-2949956I-32500J0D01*
G01*
X10605500Y-3621000D02*
G75*
G03X10605500Y-3621000I-32500J0D01*
G01*
X10741500Y-3624000D02*
G75*
G03X10741500Y-3624000I-32500J0D01*
G01*
X10856500Y-3554000D02*
G75*
G03X10856500Y-3554000I-32500J0D01*
G01*
X11383500Y-6487000D02*
G75*
G03X11383500Y-6487000I-32500J0D01*
G01*
X11944500Y-8238000D02*
G75*
G03X11944500Y-8238000I-32500J0D01*
G01*
X15055076Y-11040110D02*
G75*
G03X15055076Y-11040110I-32500J0D01*
G01*
X15632500Y-10426000D02*
G75*
G03X15632500Y-10426000I-32500J0D01*
G01*
X2432050Y-11127110D02*
X2432050Y-11207110D01*
X2392050Y-11167110D02*
X2472050Y-11167110D01*
X2442972Y-13802492D02*
X2442972Y-13882492D01*
X2402972Y-13842492D02*
X2482972Y-13842492D01*
X2442972Y-14574906D02*
X2442972Y-14654906D01*
X2402972Y-14614906D02*
X2482972Y-14614906D01*
X2585466Y-5760852D02*
X2585466Y-5840852D01*
X2545466Y-5800852D02*
X2625466Y-5800852D01*
X2585466Y-6010852D02*
X2585466Y-6090852D01*
X2545466Y-6050852D02*
X2625466Y-6050852D01*
X2586736Y-5203068D02*
X2586736Y-5283068D01*
X2546736Y-5243068D02*
X2626736Y-5243068D01*
X2586736Y-5453068D02*
X2586736Y-5533068D01*
X2546736Y-5493068D02*
X2626736Y-5493068D01*
X2587752Y-4672906D02*
X2587752Y-4752906D01*
X2547752Y-4712906D02*
X2627752Y-4712906D01*
X2587752Y-4922906D02*
X2587752Y-5002906D01*
X2547752Y-4962906D02*
X2627752Y-4962906D01*
X2589022Y-6319652D02*
X2589022Y-6399652D01*
X2549022Y-6359652D02*
X2629022Y-6359652D01*
X2589022Y-6569652D02*
X2589022Y-6649652D01*
X2549022Y-6609652D02*
X2629022Y-6609652D01*
X2643378Y-10772272D02*
X2643378Y-10852272D01*
X2603378Y-10812272D02*
X2683378Y-10812272D01*
X2696400Y-11471280D02*
X2696400Y-11551280D01*
X2656400Y-11511280D02*
X2736400Y-11511280D01*
X2696972Y-13802492D02*
X2696972Y-13882492D01*
X2656972Y-13842492D02*
X2736972Y-13842492D01*
X2696972Y-14574906D02*
X2696972Y-14654906D01*
X2656972Y-14614906D02*
X2736972Y-14614906D01*
X2897378Y-10772272D02*
X2897378Y-10852272D01*
X2857378Y-10812272D02*
X2937378Y-10812272D01*
X2946400Y-11471280D02*
X2946400Y-11551280D01*
X2906400Y-11511280D02*
X2986400Y-11511280D01*
X3006090Y-4926970D02*
X3006090Y-5006970D01*
X2966090Y-4966970D02*
X3046090Y-4966970D01*
X3006090Y-5180970D02*
X3006090Y-5260970D01*
X2966090Y-5220970D02*
X3046090Y-5220970D01*
X3006090Y-5434970D02*
X3006090Y-5514970D01*
X2966090Y-5474970D02*
X3046090Y-5474970D01*
X3006090Y-5688970D02*
X3006090Y-5768970D01*
X2966090Y-5728970D02*
X3046090Y-5728970D01*
X3006090Y-5942970D02*
X3006090Y-6022970D01*
X2966090Y-5982970D02*
X3046090Y-5982970D01*
X3006090Y-6196970D02*
X3006090Y-6276970D01*
X2966090Y-6236970D02*
X3046090Y-6236970D01*
X3006090Y-6450970D02*
X3006090Y-6530970D01*
X2966090Y-6490970D02*
X3046090Y-6490970D01*
X3006090Y-6704970D02*
X3006090Y-6784970D01*
X2966090Y-6744970D02*
X3046090Y-6744970D01*
X3194050Y-11127110D02*
X3194050Y-11207110D01*
X3154050Y-11167110D02*
X3234050Y-11167110D01*
X3277298Y-4333118D02*
X3277298Y-4413118D01*
X3237298Y-4373118D02*
X3317298Y-4373118D01*
X3527298Y-4333118D02*
X3527298Y-4413118D01*
X3487298Y-4373118D02*
X3567298Y-4373118D01*
X3768090Y-4926970D02*
X3768090Y-5006970D01*
X3728090Y-4966970D02*
X3808090Y-4966970D01*
X3768090Y-5180970D02*
X3768090Y-5260970D01*
X3728090Y-5220970D02*
X3808090Y-5220970D01*
X3768090Y-5434970D02*
X3768090Y-5514970D01*
X3728090Y-5474970D02*
X3808090Y-5474970D01*
X3768090Y-5688970D02*
X3768090Y-5768970D01*
X3728090Y-5728970D02*
X3808090Y-5728970D01*
X3768090Y-5942970D02*
X3768090Y-6022970D01*
X3728090Y-5982970D02*
X3808090Y-5982970D01*
X3768090Y-6196970D02*
X3768090Y-6276970D01*
X3728090Y-6236970D02*
X3808090Y-6236970D01*
X3768090Y-6450970D02*
X3768090Y-6530970D01*
X3728090Y-6490970D02*
X3808090Y-6490970D01*
X3768090Y-6704970D02*
X3768090Y-6784970D01*
X3728090Y-6744970D02*
X3808090Y-6744970D01*
X5078730Y-3328040D02*
X5078730Y-3408040D01*
X5038730Y-3368040D02*
X5118730Y-3368040D01*
X5078730Y-4090040D02*
X5078730Y-4170040D01*
X5038730Y-4130040D02*
X5118730Y-4130040D01*
X5332730Y-3328040D02*
X5332730Y-3408040D01*
X5292730Y-3368040D02*
X5372730Y-3368040D01*
X5332730Y-4090040D02*
X5332730Y-4170040D01*
X5292730Y-4130040D02*
X5372730Y-4130040D01*
X5586730Y-3328040D02*
X5586730Y-3408040D01*
X5546730Y-3368040D02*
X5626730Y-3368040D01*
X5586730Y-4090040D02*
X5586730Y-4170040D01*
X5546730Y-4130040D02*
X5626730Y-4130040D01*
X5840730Y-3328040D02*
X5840730Y-3408040D01*
X5800730Y-3368040D02*
X5880730Y-3368040D01*
X5840730Y-4090040D02*
X5840730Y-4170040D01*
X5800730Y-4130040D02*
X5880730Y-4130040D01*
X6094730Y-3328040D02*
X6094730Y-3408040D01*
X6054730Y-3368040D02*
X6134730Y-3368040D01*
X6094730Y-4090040D02*
X6094730Y-4170040D01*
X6054730Y-4130040D02*
X6134730Y-4130040D01*
X6348730Y-3328040D02*
X6348730Y-3408040D01*
X6308730Y-3368040D02*
X6388730Y-3368040D01*
X6348730Y-4090040D02*
X6348730Y-4170040D01*
X6308730Y-4130040D02*
X6388730Y-4130040D01*
X6602730Y-3328040D02*
X6602730Y-3408040D01*
X6562730Y-3368040D02*
X6642730Y-3368040D01*
X6602730Y-4090040D02*
X6602730Y-4170040D01*
X6562730Y-4130040D02*
X6642730Y-4130040D01*
X7018020Y-3587120D02*
X7018020Y-3667120D01*
X6978020Y-3627120D02*
X7058020Y-3627120D01*
X7018020Y-3837120D02*
X7018020Y-3917120D01*
X6978020Y-3877120D02*
X7058020Y-3877120D01*
X7432040Y-3330580D02*
X7432040Y-3410580D01*
X7392040Y-3370580D02*
X7472040Y-3370580D01*
X7432040Y-4092580D02*
X7432040Y-4172580D01*
X7392040Y-4132580D02*
X7472040Y-4132580D01*
X7686040Y-3330580D02*
X7686040Y-3410580D01*
X7646040Y-3370580D02*
X7726040Y-3370580D01*
X7686040Y-4092580D02*
X7686040Y-4172580D01*
X7646040Y-4132580D02*
X7726040Y-4132580D01*
X7940040Y-3330580D02*
X7940040Y-3410580D01*
X7900040Y-3370580D02*
X7980040Y-3370580D01*
X7940040Y-4092580D02*
X7940040Y-4172580D01*
X7900040Y-4132580D02*
X7980040Y-4132580D01*
X8194040Y-3330580D02*
X8194040Y-3410580D01*
X8154040Y-3370580D02*
X8234040Y-3370580D01*
X8194040Y-4092580D02*
X8194040Y-4172580D01*
X8154040Y-4132580D02*
X8234040Y-4132580D01*
X8448040Y-3330580D02*
X8448040Y-3410580D01*
X8408040Y-3370580D02*
X8488040Y-3370580D01*
X8448040Y-4092580D02*
X8448040Y-4172580D01*
X8408040Y-4132580D02*
X8488040Y-4132580D01*
X8702040Y-3330580D02*
X8702040Y-3410580D01*
X8662040Y-3370580D02*
X8742040Y-3370580D01*
X8702040Y-4092580D02*
X8702040Y-4172580D01*
X8662040Y-4132580D02*
X8742040Y-4132580D01*
X8956040Y-3330580D02*
X8956040Y-3410580D01*
X8916040Y-3370580D02*
X8996040Y-3370580D01*
X8956040Y-4092580D02*
X8956040Y-4172580D01*
X8916040Y-4132580D02*
X8996040Y-4132580D01*
X9210040Y-3330580D02*
X9210040Y-3410580D01*
X9170040Y-3370580D02*
X9250040Y-3370580D01*
X9210040Y-4092580D02*
X9210040Y-4172580D01*
X9170040Y-4132580D02*
X9250040Y-4132580D01*
X9464040Y-3330580D02*
X9464040Y-3410580D01*
X9424040Y-3370580D02*
X9504040Y-3370580D01*
X9464040Y-4092580D02*
X9464040Y-4172580D01*
X9424040Y-4132580D02*
X9504040Y-4132580D01*
X9718040Y-3330580D02*
X9718040Y-3410580D01*
X9678040Y-3370580D02*
X9758040Y-3370580D01*
X9718040Y-4092580D02*
X9718040Y-4172580D01*
X9678040Y-4132580D02*
X9758040Y-4132580D01*
X10132060Y-3587120D02*
X10132060Y-3667120D01*
X10092060Y-3627120D02*
X10172060Y-3627120D01*
X10132060Y-3837120D02*
X10132060Y-3917120D01*
X10092060Y-3877120D02*
X10172060Y-3877120D01*
X10548620Y-3328040D02*
X10548620Y-3408040D01*
X10508620Y-3368040D02*
X10588620Y-3368040D01*
X10548620Y-4090040D02*
X10548620Y-4170040D01*
X10508620Y-4130040D02*
X10588620Y-4130040D01*
X10802620Y-3328040D02*
X10802620Y-3408040D01*
X10762620Y-3368040D02*
X10842620Y-3368040D01*
X10802620Y-4090040D02*
X10802620Y-4170040D01*
X10762620Y-4130040D02*
X10842620Y-4130040D01*
X11056620Y-3328040D02*
X11056620Y-3408040D01*
X11016620Y-3368040D02*
X11096620Y-3368040D01*
X11056620Y-4090040D02*
X11056620Y-4170040D01*
X11016620Y-4130040D02*
X11096620Y-4130040D01*
X11310620Y-3328040D02*
X11310620Y-3408040D01*
X11270620Y-3368040D02*
X11350620Y-3368040D01*
X11310620Y-4090040D02*
X11310620Y-4170040D01*
X11270620Y-4130040D02*
X11350620Y-4130040D01*
X11564620Y-3328040D02*
X11564620Y-3408040D01*
X11524620Y-3368040D02*
X11604620Y-3368040D01*
X11564620Y-4090040D02*
X11564620Y-4170040D01*
X11524620Y-4130040D02*
X11604620Y-4130040D01*
X11818620Y-3328040D02*
X11818620Y-3408040D01*
X11778620Y-3368040D02*
X11858620Y-3368040D01*
X11818620Y-4090040D02*
X11818620Y-4170040D01*
X11778620Y-4130040D02*
X11858620Y-4130040D01*
X12072620Y-3328040D02*
X12072620Y-3408040D01*
X12032620Y-3368040D02*
X12112620Y-3368040D01*
X12072620Y-4090040D02*
X12072620Y-4170040D01*
X12032620Y-4130040D02*
X12112620Y-4130040D01*
X12326620Y-3328040D02*
X12326620Y-3408040D01*
X12286620Y-3368040D02*
X12366620Y-3368040D01*
X12326620Y-4090040D02*
X12326620Y-4170040D01*
X12286620Y-4130040D02*
X12366620Y-4130040D01*
X12580620Y-3328040D02*
X12580620Y-3408040D01*
X12540620Y-3368040D02*
X12620620Y-3368040D01*
X12580620Y-4090040D02*
X12580620Y-4170040D01*
X12540620Y-4130040D02*
X12620620Y-4130040D01*
X12834620Y-3328040D02*
X12834620Y-3408040D01*
X12794620Y-3368040D02*
X12874620Y-3368040D01*
X12834620Y-4090040D02*
X12834620Y-4170040D01*
X12794620Y-4130040D02*
X12874620Y-4130040D01*
X14263116Y-7145406D02*
X14263116Y-7225406D01*
X14223116Y-7185406D02*
X14303116Y-7185406D01*
X14310296Y-6571112D02*
X14310296Y-6651112D01*
X14270296Y-6611112D02*
X14350296Y-6611112D01*
X14451012Y-16370432D02*
X14451012Y-16450432D01*
X14411012Y-16410432D02*
X14491012Y-16410432D01*
X14451520Y-17823820D02*
X14451520Y-17903820D01*
X14411520Y-17863820D02*
X14491520Y-17863820D01*
X14452600Y-16853286D02*
X14452600Y-16933286D01*
X14412600Y-16893286D02*
X14492600Y-16893286D01*
X14452600Y-17341474D02*
X14452600Y-17421474D01*
X14412600Y-17381474D02*
X14492600Y-17381474D01*
X14517116Y-7145406D02*
X14517116Y-7225406D01*
X14477116Y-7185406D02*
X14557116Y-7185406D01*
X14517116Y-7399406D02*
X14517116Y-7479406D01*
X14477116Y-7439406D02*
X14557116Y-7439406D01*
X14560296Y-6571112D02*
X14560296Y-6651112D01*
X14520296Y-6611112D02*
X14600296Y-6611112D01*
X14574520Y-10323200D02*
X14574520Y-10403200D01*
X14534520Y-10363200D02*
X14614520Y-10363200D01*
X14574520Y-10577200D02*
X14574520Y-10657200D01*
X14534520Y-10617200D02*
X14614520Y-10617200D01*
X14574520Y-10831200D02*
X14574520Y-10911200D01*
X14534520Y-10871200D02*
X14614520Y-10871200D01*
X14574520Y-11085200D02*
X14574520Y-11165200D01*
X14534520Y-11125200D02*
X14614520Y-11125200D01*
X14574520Y-11339200D02*
X14574520Y-11419200D01*
X14534520Y-11379200D02*
X14614520Y-11379200D01*
X14574520Y-11593200D02*
X14574520Y-11673200D01*
X14534520Y-11633200D02*
X14614520Y-11633200D01*
X14574520Y-11847200D02*
X14574520Y-11927200D01*
X14534520Y-11887200D02*
X14614520Y-11887200D01*
X14574520Y-12101200D02*
X14574520Y-12181200D01*
X14534520Y-12141200D02*
X14614520Y-12141200D01*
X14574520Y-12355200D02*
X14574520Y-12435200D01*
X14534520Y-12395200D02*
X14614520Y-12395200D01*
X14574520Y-12609200D02*
X14574520Y-12689200D01*
X14534520Y-12649200D02*
X14614520Y-12649200D01*
X14574520Y-12863200D02*
X14574520Y-12943200D01*
X14534520Y-12903200D02*
X14614520Y-12903200D01*
X14574520Y-13117200D02*
X14574520Y-13197200D01*
X14534520Y-13157200D02*
X14614520Y-13157200D01*
X14574520Y-13371200D02*
X14574520Y-13451200D01*
X14534520Y-13411200D02*
X14614520Y-13411200D01*
X14574520Y-13625200D02*
X14574520Y-13705200D01*
X14534520Y-13665200D02*
X14614520Y-13665200D01*
X14574520Y-13879200D02*
X14574520Y-13959200D01*
X14534520Y-13919200D02*
X14614520Y-13919200D01*
X14574520Y-14133200D02*
X14574520Y-14213200D01*
X14534520Y-14173200D02*
X14614520Y-14173200D01*
X14574520Y-14387200D02*
X14574520Y-14467200D01*
X14534520Y-14427200D02*
X14614520Y-14427200D01*
X14574520Y-14641200D02*
X14574520Y-14721200D01*
X14534520Y-14681200D02*
X14614520Y-14681200D01*
X14574520Y-14895200D02*
X14574520Y-14975200D01*
X14534520Y-14935200D02*
X14614520Y-14935200D01*
X14574520Y-15149200D02*
X14574520Y-15229200D01*
X14534520Y-15189200D02*
X14614520Y-15189200D01*
X14701012Y-16370432D02*
X14701012Y-16450432D01*
X14661012Y-16410432D02*
X14741012Y-16410432D01*
X14701520Y-17823820D02*
X14701520Y-17903820D01*
X14661520Y-17863820D02*
X14741520Y-17863820D01*
X14751240Y-6042284D02*
X14751240Y-6122284D01*
X14711240Y-6082284D02*
X14791240Y-6082284D01*
X14975840Y-7399660D02*
X14975840Y-7479660D01*
X14935840Y-7439660D02*
X15015840Y-7439660D01*
X15001240Y-6042284D02*
X15001240Y-6122284D01*
X14961240Y-6082284D02*
X15041240Y-6082284D01*
X15010384Y-6999864D02*
X15010384Y-7079864D01*
X14970384Y-7039864D02*
X15050384Y-7039864D01*
X15035530Y-6634866D02*
X15035530Y-6714866D01*
X14995530Y-6674866D02*
X15075530Y-6674866D01*
X15225840Y-7399660D02*
X15225840Y-7479660D01*
X15185840Y-7439660D02*
X15265840Y-7439660D01*
X15264384Y-6999864D02*
X15264384Y-7079864D01*
X15224384Y-7039864D02*
X15304384Y-7039864D01*
X15289530Y-6634866D02*
X15289530Y-6714866D01*
X15249530Y-6674866D02*
X15329530Y-6674866D01*
X15440660Y-5956940D02*
X15440660Y-6036940D01*
X15400660Y-5996940D02*
X15480660Y-5996940D01*
X15440660Y-6206940D02*
X15440660Y-6286940D01*
X15400660Y-6246940D02*
X15480660Y-6246940D01*
X16098520Y-10323200D02*
X16098520Y-10403200D01*
X16058520Y-10363200D02*
X16138520Y-10363200D01*
X16098520Y-10577200D02*
X16098520Y-10657200D01*
X16058520Y-10617200D02*
X16138520Y-10617200D01*
X16098520Y-10831200D02*
X16098520Y-10911200D01*
X16058520Y-10871200D02*
X16138520Y-10871200D01*
X16098520Y-11085200D02*
X16098520Y-11165200D01*
X16058520Y-11125200D02*
X16138520Y-11125200D01*
X16098520Y-11339200D02*
X16098520Y-11419200D01*
X16058520Y-11379200D02*
X16138520Y-11379200D01*
X16098520Y-11593200D02*
X16098520Y-11673200D01*
X16058520Y-11633200D02*
X16138520Y-11633200D01*
X16098520Y-11847200D02*
X16098520Y-11927200D01*
X16058520Y-11887200D02*
X16138520Y-11887200D01*
X16098520Y-12101200D02*
X16098520Y-12181200D01*
X16058520Y-12141200D02*
X16138520Y-12141200D01*
X16098520Y-12355200D02*
X16098520Y-12435200D01*
X16058520Y-12395200D02*
X16138520Y-12395200D01*
X16098520Y-12609200D02*
X16098520Y-12689200D01*
X16058520Y-12649200D02*
X16138520Y-12649200D01*
X16098520Y-12863200D02*
X16098520Y-12943200D01*
X16058520Y-12903200D02*
X16138520Y-12903200D01*
X16098520Y-13117200D02*
X16098520Y-13197200D01*
X16058520Y-13157200D02*
X16138520Y-13157200D01*
X16098520Y-13371200D02*
X16098520Y-13451200D01*
X16058520Y-13411200D02*
X16138520Y-13411200D01*
X16098520Y-13625200D02*
X16098520Y-13705200D01*
X16058520Y-13665200D02*
X16138520Y-13665200D01*
X16098520Y-13879200D02*
X16098520Y-13959200D01*
X16058520Y-13919200D02*
X16138520Y-13919200D01*
X16098520Y-14133200D02*
X16098520Y-14213200D01*
X16058520Y-14173200D02*
X16138520Y-14173200D01*
X16098520Y-14387200D02*
X16098520Y-14467200D01*
X16058520Y-14427200D02*
X16138520Y-14427200D01*
X16098520Y-14641200D02*
X16098520Y-14721200D01*
X16058520Y-14681200D02*
X16138520Y-14681200D01*
X16098520Y-14895200D02*
X16098520Y-14975200D01*
X16058520Y-14935200D02*
X16138520Y-14935200D01*
X16098520Y-15149200D02*
X16098520Y-15229200D01*
X16058520Y-15189200D02*
X16138520Y-15189200D01*
X16136620Y-15753720D02*
X16136620Y-15833720D01*
X16096620Y-15793720D02*
X16176620Y-15793720D01*
X16136620Y-16003720D02*
X16136620Y-16083720D01*
X16096620Y-16043720D02*
X16176620Y-16043720D01*
X2564942Y-7485176D02*
X2564942Y-7414464D01*
X2494230Y-7414464D01*
X2494230Y-7485176D01*
X2564942Y-7485176D01*
X2564942Y-7739176D02*
X2564942Y-7668464D01*
X2494230Y-7668464D01*
X2494230Y-7739176D01*
X2564942Y-7739176D01*
X2659684Y-11907570D02*
X2659684Y-11836858D01*
X2588972Y-11836858D01*
X2588972Y-11907570D01*
X2659684Y-11907570D01*
X2659684Y-12567970D02*
X2659684Y-12497258D01*
X2588972Y-12497258D01*
X2588972Y-12567970D01*
X2659684Y-12567970D01*
X2818942Y-7485176D02*
X2818942Y-7414464D01*
X2748230Y-7414464D01*
X2748230Y-7485176D01*
X2818942Y-7485176D01*
X2818942Y-7739176D02*
X2818942Y-7668464D01*
X2748230Y-7668464D01*
X2748230Y-7739176D01*
X2818942Y-7739176D01*
X3072942Y-7485176D02*
X3072942Y-7414464D01*
X3002230Y-7414464D01*
X3002230Y-7485176D01*
X3072942Y-7485176D01*
X3072942Y-7739176D02*
X3072942Y-7668464D01*
X3002230Y-7668464D01*
X3002230Y-7739176D01*
X3072942Y-7739176D01*
X3116884Y-11907570D02*
X3116884Y-11836858D01*
X3046172Y-11836858D01*
X3046172Y-11907570D01*
X3116884Y-11907570D01*
X3116884Y-12567970D02*
X3116884Y-12497258D01*
X3046172Y-12497258D01*
X3046172Y-12567970D01*
X3116884Y-12567970D01*
X3247948Y-13877340D02*
X3247948Y-13806628D01*
X3177236Y-13806628D01*
X3177236Y-13877340D01*
X3247948Y-13877340D01*
X3253282Y-14650516D02*
X3253282Y-14579804D01*
X3182570Y-14579804D01*
X3182570Y-14650516D01*
X3253282Y-14650516D01*
X3326942Y-7485176D02*
X3326942Y-7414464D01*
X3256230Y-7414464D01*
X3256230Y-7485176D01*
X3326942Y-7485176D01*
X3326942Y-7739176D02*
X3326942Y-7668464D01*
X3256230Y-7668464D01*
X3256230Y-7739176D01*
X3326942Y-7739176D01*
X3501948Y-13877340D02*
X3501948Y-13806628D01*
X3431236Y-13806628D01*
X3431236Y-13877340D01*
X3501948Y-13877340D01*
X3507282Y-14650516D02*
X3507282Y-14579804D01*
X3436570Y-14579804D01*
X3436570Y-14650516D01*
X3507282Y-14650516D01*
X3580942Y-7485176D02*
X3580942Y-7414464D01*
X3510230Y-7414464D01*
X3510230Y-7485176D01*
X3580942Y-7485176D01*
X3580942Y-7739176D02*
X3580942Y-7668464D01*
X3510230Y-7668464D01*
X3510230Y-7739176D01*
X3580942Y-7739176D01*
X5147106Y-2468676D02*
X5147106Y-2397964D01*
X5076394Y-2397964D01*
X5076394Y-2468676D01*
X5147106Y-2468676D01*
X5147106Y-2722676D02*
X5147106Y-2651964D01*
X5076394Y-2651964D01*
X5076394Y-2722676D01*
X5147106Y-2722676D01*
X5401106Y-2468676D02*
X5401106Y-2397964D01*
X5330394Y-2397964D01*
X5330394Y-2468676D01*
X5401106Y-2468676D01*
X5401106Y-2722676D02*
X5401106Y-2651964D01*
X5330394Y-2651964D01*
X5330394Y-2722676D01*
X5401106Y-2722676D01*
X5655106Y-2468676D02*
X5655106Y-2397964D01*
X5584394Y-2397964D01*
X5584394Y-2468676D01*
X5655106Y-2468676D01*
X5655106Y-2722676D02*
X5655106Y-2651964D01*
X5584394Y-2651964D01*
X5584394Y-2722676D01*
X5655106Y-2722676D01*
X5909106Y-2468676D02*
X5909106Y-2397964D01*
X5838394Y-2397964D01*
X5838394Y-2468676D01*
X5909106Y-2468676D01*
X5909106Y-2722676D02*
X5909106Y-2651964D01*
X5838394Y-2651964D01*
X5838394Y-2722676D01*
X5909106Y-2722676D01*
X6163106Y-2468676D02*
X6163106Y-2397964D01*
X6092394Y-2397964D01*
X6092394Y-2468676D01*
X6163106Y-2468676D01*
X6163106Y-2722676D02*
X6163106Y-2651964D01*
X6092394Y-2651964D01*
X6092394Y-2722676D01*
X6163106Y-2722676D01*
X6417106Y-2468676D02*
X6417106Y-2397964D01*
X6346394Y-2397964D01*
X6346394Y-2468676D01*
X6417106Y-2468676D01*
X6417106Y-2722676D02*
X6417106Y-2651964D01*
X6346394Y-2651964D01*
X6346394Y-2722676D01*
X6417106Y-2722676D01*
X6671106Y-2468676D02*
X6671106Y-2397964D01*
X6600394Y-2397964D01*
X6600394Y-2468676D01*
X6671106Y-2468676D01*
X6671106Y-2722676D02*
X6671106Y-2651964D01*
X6600394Y-2651964D01*
X6600394Y-2722676D01*
X6671106Y-2722676D01*
X6925106Y-2468676D02*
X6925106Y-2397964D01*
X6854394Y-2397964D01*
X6854394Y-2468676D01*
X6925106Y-2468676D01*
X6925106Y-2722676D02*
X6925106Y-2651964D01*
X6854394Y-2651964D01*
X6854394Y-2722676D01*
X6925106Y-2722676D01*
X7179106Y-2468676D02*
X7179106Y-2397964D01*
X7108394Y-2397964D01*
X7108394Y-2468676D01*
X7179106Y-2468676D01*
X7179106Y-2722676D02*
X7179106Y-2651964D01*
X7108394Y-2651964D01*
X7108394Y-2722676D01*
X7179106Y-2722676D01*
X7433106Y-2468676D02*
X7433106Y-2397964D01*
X7362394Y-2397964D01*
X7362394Y-2468676D01*
X7433106Y-2468676D01*
X7433106Y-2722676D02*
X7433106Y-2651964D01*
X7362394Y-2651964D01*
X7362394Y-2722676D01*
X7433106Y-2722676D01*
X7614208Y-5961176D02*
X7614208Y-5890464D01*
X7543496Y-5890464D01*
X7543496Y-5961176D01*
X7614208Y-5961176D01*
X7614208Y-6215176D02*
X7614208Y-6144464D01*
X7543496Y-6144464D01*
X7543496Y-6215176D01*
X7614208Y-6215176D01*
X7687106Y-2468676D02*
X7687106Y-2397964D01*
X7616394Y-2397964D01*
X7616394Y-2468676D01*
X7687106Y-2468676D01*
X7687106Y-2722676D02*
X7687106Y-2651964D01*
X7616394Y-2651964D01*
X7616394Y-2722676D01*
X7687106Y-2722676D01*
X7941106Y-2468676D02*
X7941106Y-2397964D01*
X7870394Y-2397964D01*
X7870394Y-2468676D01*
X7941106Y-2468676D01*
X7941106Y-2722676D02*
X7941106Y-2651964D01*
X7870394Y-2651964D01*
X7870394Y-2722676D01*
X7941106Y-2722676D01*
X8195106Y-2468676D02*
X8195106Y-2397964D01*
X8124394Y-2397964D01*
X8124394Y-2468676D01*
X8195106Y-2468676D01*
X8195106Y-2722676D02*
X8195106Y-2651964D01*
X8124394Y-2651964D01*
X8124394Y-2722676D01*
X8195106Y-2722676D01*
X8652306Y-5279186D02*
X8652306Y-5208474D01*
X8581594Y-5208474D01*
X8581594Y-5279186D01*
X8652306Y-5279186D01*
X8652306Y-5533186D02*
X8652306Y-5462474D01*
X8581594Y-5462474D01*
X8581594Y-5533186D01*
X8652306Y-5533186D01*
X8906306Y-5279186D02*
X8906306Y-5208474D01*
X8835594Y-5208474D01*
X8835594Y-5279186D01*
X8906306Y-5279186D01*
X8906306Y-5533186D02*
X8906306Y-5462474D01*
X8835594Y-5462474D01*
X8835594Y-5533186D01*
X8906306Y-5533186D01*
X9160306Y-5279186D02*
X9160306Y-5208474D01*
X9089594Y-5208474D01*
X9089594Y-5279186D01*
X9160306Y-5279186D01*
X9160306Y-5533186D02*
X9160306Y-5462474D01*
X9089594Y-5462474D01*
X9089594Y-5533186D01*
X9160306Y-5533186D01*
X9183166Y-2472486D02*
X9183166Y-2401774D01*
X9112454Y-2401774D01*
X9112454Y-2472486D01*
X9183166Y-2472486D01*
X9183166Y-2726486D02*
X9183166Y-2655774D01*
X9112454Y-2655774D01*
X9112454Y-2726486D01*
X9183166Y-2726486D01*
X9414306Y-5279186D02*
X9414306Y-5208474D01*
X9343594Y-5208474D01*
X9343594Y-5279186D01*
X9414306Y-5279186D01*
X9414306Y-5533186D02*
X9414306Y-5462474D01*
X9343594Y-5462474D01*
X9343594Y-5533186D01*
X9414306Y-5533186D01*
X9437166Y-2472486D02*
X9437166Y-2401774D01*
X9366454Y-2401774D01*
X9366454Y-2472486D01*
X9437166Y-2472486D01*
X9437166Y-2726486D02*
X9437166Y-2655774D01*
X9366454Y-2655774D01*
X9366454Y-2726486D01*
X9437166Y-2726486D01*
X9668306Y-5279186D02*
X9668306Y-5208474D01*
X9597594Y-5208474D01*
X9597594Y-5279186D01*
X9668306Y-5279186D01*
X9668306Y-5533186D02*
X9668306Y-5462474D01*
X9597594Y-5462474D01*
X9597594Y-5533186D01*
X9668306Y-5533186D01*
X9691166Y-2472486D02*
X9691166Y-2401774D01*
X9620454Y-2401774D01*
X9620454Y-2472486D01*
X9691166Y-2472486D01*
X9691166Y-2726486D02*
X9691166Y-2655774D01*
X9620454Y-2655774D01*
X9620454Y-2726486D01*
X9691166Y-2726486D01*
X9922306Y-5279186D02*
X9922306Y-5208474D01*
X9851594Y-5208474D01*
X9851594Y-5279186D01*
X9922306Y-5279186D01*
X9922306Y-5533186D02*
X9922306Y-5462474D01*
X9851594Y-5462474D01*
X9851594Y-5533186D01*
X9922306Y-5533186D01*
X9945166Y-2472486D02*
X9945166Y-2401774D01*
X9874454Y-2401774D01*
X9874454Y-2472486D01*
X9945166Y-2472486D01*
X9945166Y-2726486D02*
X9945166Y-2655774D01*
X9874454Y-2655774D01*
X9874454Y-2726486D01*
X9945166Y-2726486D01*
X10176306Y-5279186D02*
X10176306Y-5208474D01*
X10105594Y-5208474D01*
X10105594Y-5279186D01*
X10176306Y-5279186D01*
X10176306Y-5533186D02*
X10176306Y-5462474D01*
X10105594Y-5462474D01*
X10105594Y-5533186D01*
X10176306Y-5533186D01*
X10199166Y-2472486D02*
X10199166Y-2401774D01*
X10128454Y-2401774D01*
X10128454Y-2472486D01*
X10199166Y-2472486D01*
X10199166Y-2726486D02*
X10199166Y-2655774D01*
X10128454Y-2655774D01*
X10128454Y-2726486D01*
X10199166Y-2726486D01*
X10430306Y-5279186D02*
X10430306Y-5208474D01*
X10359594Y-5208474D01*
X10359594Y-5279186D01*
X10430306Y-5279186D01*
X10430306Y-5533186D02*
X10430306Y-5462474D01*
X10359594Y-5462474D01*
X10359594Y-5533186D01*
X10430306Y-5533186D01*
X10453166Y-2472486D02*
X10453166Y-2401774D01*
X10382454Y-2401774D01*
X10382454Y-2472486D01*
X10453166Y-2472486D01*
X10453166Y-2726486D02*
X10453166Y-2655774D01*
X10382454Y-2655774D01*
X10382454Y-2726486D01*
X10453166Y-2726486D01*
X10550956Y-4513376D02*
X10550956Y-4442664D01*
X10480244Y-4442664D01*
X10480244Y-4513376D01*
X10550956Y-4513376D01*
X10684306Y-5279186D02*
X10684306Y-5208474D01*
X10613594Y-5208474D01*
X10613594Y-5279186D01*
X10684306Y-5279186D01*
X10684306Y-5533186D02*
X10684306Y-5462474D01*
X10613594Y-5462474D01*
X10613594Y-5533186D01*
X10684306Y-5533186D01*
X10707166Y-2472486D02*
X10707166Y-2401774D01*
X10636454Y-2401774D01*
X10636454Y-2472486D01*
X10707166Y-2472486D01*
X10707166Y-2726486D02*
X10707166Y-2655774D01*
X10636454Y-2655774D01*
X10636454Y-2726486D01*
X10707166Y-2726486D01*
X10804956Y-4513376D02*
X10804956Y-4442664D01*
X10734244Y-4442664D01*
X10734244Y-4513376D01*
X10804956Y-4513376D01*
X10938306Y-5279186D02*
X10938306Y-5208474D01*
X10867594Y-5208474D01*
X10867594Y-5279186D01*
X10938306Y-5279186D01*
X10938306Y-5533186D02*
X10938306Y-5462474D01*
X10867594Y-5462474D01*
X10867594Y-5533186D01*
X10938306Y-5533186D01*
X10961166Y-2472486D02*
X10961166Y-2401774D01*
X10890454Y-2401774D01*
X10890454Y-2472486D01*
X10961166Y-2472486D01*
X10961166Y-2726486D02*
X10961166Y-2655774D01*
X10890454Y-2655774D01*
X10890454Y-2726486D01*
X10961166Y-2726486D01*
X11058956Y-4513376D02*
X11058956Y-4442664D01*
X10988244Y-4442664D01*
X10988244Y-4513376D01*
X11058956Y-4513376D01*
X11192306Y-5279186D02*
X11192306Y-5208474D01*
X11121594Y-5208474D01*
X11121594Y-5279186D01*
X11192306Y-5279186D01*
X11192306Y-5533186D02*
X11192306Y-5462474D01*
X11121594Y-5462474D01*
X11121594Y-5533186D01*
X11192306Y-5533186D01*
X11215166Y-2472486D02*
X11215166Y-2401774D01*
X11144454Y-2401774D01*
X11144454Y-2472486D01*
X11215166Y-2472486D01*
X11215166Y-2726486D02*
X11215166Y-2655774D01*
X11144454Y-2655774D01*
X11144454Y-2726486D01*
X11215166Y-2726486D01*
X11312956Y-4513376D02*
X11312956Y-4442664D01*
X11242244Y-4442664D01*
X11242244Y-4513376D01*
X11312956Y-4513376D01*
X11446306Y-5279186D02*
X11446306Y-5208474D01*
X11375594Y-5208474D01*
X11375594Y-5279186D01*
X11446306Y-5279186D01*
X11446306Y-5533186D02*
X11446306Y-5462474D01*
X11375594Y-5462474D01*
X11375594Y-5533186D01*
X11446306Y-5533186D01*
X11469166Y-2472486D02*
X11469166Y-2401774D01*
X11398454Y-2401774D01*
X11398454Y-2472486D01*
X11469166Y-2472486D01*
X11469166Y-2726486D02*
X11469166Y-2655774D01*
X11398454Y-2655774D01*
X11398454Y-2726486D01*
X11469166Y-2726486D01*
X11566956Y-4513376D02*
X11566956Y-4442664D01*
X11496244Y-4442664D01*
X11496244Y-4513376D01*
X11566956Y-4513376D01*
X11700306Y-5279186D02*
X11700306Y-5208474D01*
X11629594Y-5208474D01*
X11629594Y-5279186D01*
X11700306Y-5279186D01*
X11700306Y-5533186D02*
X11700306Y-5462474D01*
X11629594Y-5462474D01*
X11629594Y-5533186D01*
X11700306Y-5533186D01*
X11723166Y-2472486D02*
X11723166Y-2401774D01*
X11652454Y-2401774D01*
X11652454Y-2472486D01*
X11723166Y-2472486D01*
X11723166Y-2726486D02*
X11723166Y-2655774D01*
X11652454Y-2655774D01*
X11652454Y-2726486D01*
X11723166Y-2726486D01*
X11851436Y-4514646D02*
X11851436Y-4443934D01*
X11780724Y-4443934D01*
X11780724Y-4514646D01*
X11851436Y-4514646D01*
X11954306Y-5279186D02*
X11954306Y-5208474D01*
X11883594Y-5208474D01*
X11883594Y-5279186D01*
X11954306Y-5279186D01*
X11954306Y-5533186D02*
X11954306Y-5462474D01*
X11883594Y-5462474D01*
X11883594Y-5533186D01*
X11954306Y-5533186D01*
X11977166Y-2472486D02*
X11977166Y-2401774D01*
X11906454Y-2401774D01*
X11906454Y-2472486D01*
X11977166Y-2472486D01*
X11977166Y-2726486D02*
X11977166Y-2655774D01*
X11906454Y-2655774D01*
X11906454Y-2726486D01*
X11977166Y-2726486D01*
X12105436Y-4514646D02*
X12105436Y-4443934D01*
X12034724Y-4443934D01*
X12034724Y-4514646D01*
X12105436Y-4514646D01*
X12208306Y-5279186D02*
X12208306Y-5208474D01*
X12137594Y-5208474D01*
X12137594Y-5279186D01*
X12208306Y-5279186D01*
X12208306Y-5533186D02*
X12208306Y-5462474D01*
X12137594Y-5462474D01*
X12137594Y-5533186D01*
X12208306Y-5533186D01*
X12231166Y-2472486D02*
X12231166Y-2401774D01*
X12160454Y-2401774D01*
X12160454Y-2472486D01*
X12231166Y-2472486D01*
X12231166Y-2726486D02*
X12231166Y-2655774D01*
X12160454Y-2655774D01*
X12160454Y-2726486D01*
X12231166Y-2726486D01*
X12359436Y-4514646D02*
X12359436Y-4443934D01*
X12288724Y-4443934D01*
X12288724Y-4514646D01*
X12359436Y-4514646D01*
X12462306Y-5279186D02*
X12462306Y-5208474D01*
X12391594Y-5208474D01*
X12391594Y-5279186D01*
X12462306Y-5279186D01*
X12462306Y-5533186D02*
X12462306Y-5462474D01*
X12391594Y-5462474D01*
X12391594Y-5533186D01*
X12462306Y-5533186D01*
X12613436Y-4514646D02*
X12613436Y-4443934D01*
X12542724Y-4443934D01*
X12542724Y-4514646D01*
X12613436Y-4514646D01*
X12716306Y-5279186D02*
X12716306Y-5208474D01*
X12645594Y-5208474D01*
X12645594Y-5279186D01*
X12716306Y-5279186D01*
X12716306Y-5533186D02*
X12716306Y-5462474D01*
X12645594Y-5462474D01*
X12645594Y-5533186D01*
X12716306Y-5533186D01*
X12867436Y-4514646D02*
X12867436Y-4443934D01*
X12796724Y-4443934D01*
X12796724Y-4514646D01*
X12867436Y-4514646D01*
X12970306Y-5279186D02*
X12970306Y-5208474D01*
X12899594Y-5208474D01*
X12899594Y-5279186D01*
X12970306Y-5279186D01*
X12970306Y-5533186D02*
X12970306Y-5462474D01*
X12899594Y-5462474D01*
X12899594Y-5533186D01*
X12970306Y-5533186D01*
X13224306Y-5279186D02*
X13224306Y-5208474D01*
X13153594Y-5208474D01*
X13153594Y-5279186D01*
X13224306Y-5279186D01*
X13224306Y-5533186D02*
X13224306Y-5462474D01*
X13153594Y-5462474D01*
X13153594Y-5533186D01*
X13224306Y-5533186D01*
X13478306Y-5279186D02*
X13478306Y-5208474D01*
X13407594Y-5208474D01*
X13407594Y-5279186D01*
X13478306Y-5279186D01*
X13478306Y-5533186D02*
X13478306Y-5462474D01*
X13407594Y-5462474D01*
X13407594Y-5533186D01*
X13478306Y-5533186D01*
X14644420Y-8005622D02*
X14644420Y-7934910D01*
X14573708Y-7934910D01*
X14573708Y-8005622D01*
X14644420Y-8005622D01*
X14644420Y-8259622D02*
X14644420Y-8188910D01*
X14573708Y-8188910D01*
X14573708Y-8259622D01*
X14644420Y-8259622D01*
X14898420Y-8005622D02*
X14898420Y-7934910D01*
X14827708Y-7934910D01*
X14827708Y-8005622D01*
X14898420Y-8005622D01*
X14898420Y-8259622D02*
X14898420Y-8188910D01*
X14827708Y-8188910D01*
X14827708Y-8259622D01*
X14898420Y-8259622D01*
X15152420Y-8005622D02*
X15152420Y-7934910D01*
X15081708Y-7934910D01*
X15081708Y-8005622D01*
X15152420Y-8005622D01*
X15152420Y-8259622D02*
X15152420Y-8188910D01*
X15081708Y-8188910D01*
X15081708Y-8259622D01*
X15152420Y-8259622D01*
X15683026Y-7344206D02*
X15683026Y-7273494D01*
X15612314Y-7273494D01*
X15612314Y-7344206D01*
X15683026Y-7344206D01*
X15683026Y-7598206D02*
X15683026Y-7527494D01*
X15612314Y-7527494D01*
X15612314Y-7598206D01*
X15683026Y-7598206D01*
X15683026Y-7852206D02*
X15683026Y-7781494D01*
X15612314Y-7781494D01*
X15612314Y-7852206D01*
X15683026Y-7852206D01*
X15683026Y-8106206D02*
X15683026Y-8035494D01*
X15612314Y-8035494D01*
X15612314Y-8106206D01*
X15683026Y-8106206D01*
X15683026Y-8360206D02*
X15683026Y-8289494D01*
X15612314Y-8289494D01*
X15612314Y-8360206D01*
X15683026Y-8360206D01*
X15967252Y-6583222D02*
X15967252Y-6512510D01*
X15896540Y-6512510D01*
X15896540Y-6583222D01*
X15967252Y-6583222D01*
X15967252Y-6837222D02*
X15967252Y-6766510D01*
X15896540Y-6766510D01*
X15896540Y-6837222D01*
X15967252Y-6837222D01*
X15967252Y-7091222D02*
X15967252Y-7020510D01*
X15896540Y-7020510D01*
X15896540Y-7091222D01*
X15967252Y-7091222D01*
X15967252Y-7345222D02*
X15967252Y-7274510D01*
X15896540Y-7274510D01*
X15896540Y-7345222D01*
X15967252Y-7345222D01*
X15967252Y-7599222D02*
X15967252Y-7528510D01*
X15896540Y-7528510D01*
X15896540Y-7599222D01*
X15967252Y-7599222D01*
X15967252Y-7853222D02*
X15967252Y-7782510D01*
X15896540Y-7782510D01*
X15896540Y-7853222D01*
X15967252Y-7853222D01*
X15967252Y-8107222D02*
X15967252Y-8036510D01*
X15896540Y-8036510D01*
X15896540Y-8107222D01*
X15967252Y-8107222D01*
X15967252Y-8361222D02*
X15967252Y-8290510D01*
X15896540Y-8290510D01*
X15896540Y-8361222D01*
X15967252Y-8361222D01*
X2392934Y-3578987D02*
X2492883Y-3479038D01*
X2392934Y-3379089D01*
X2292985Y-3479038D01*
X2392934Y-3578987D01*
X2900934Y-3578987D02*
X3000883Y-3479038D01*
X2900934Y-3379089D01*
X2800985Y-3479038D01*
X2900934Y-3578987D01*
X3408934Y-3578987D02*
X3508883Y-3479038D01*
X3408934Y-3379089D01*
X3308985Y-3479038D01*
X3408934Y-3578987D01*
X3916934Y-3578987D02*
X4016883Y-3479038D01*
X3916934Y-3379089D01*
X3816985Y-3479038D01*
X3916934Y-3578987D01*
D13*
X2214275Y-18659734D02*
X2214275Y-18359734D01*
X2285703Y-18359734D01*
X2328560Y-18374020D01*
X2357132Y-18402592D01*
X2371417Y-18431163D01*
X2385703Y-18488306D01*
X2385703Y-18531163D01*
X2371417Y-18588306D01*
X2357132Y-18616877D01*
X2328560Y-18645449D01*
X2285703Y-18659734D01*
X2214275Y-18659734D01*
X2514275Y-18659734D02*
X2514275Y-18459734D01*
X2514275Y-18516877D02*
X2528560Y-18488306D01*
X2542846Y-18474020D01*
X2571417Y-18459734D01*
X2599989Y-18459734D01*
X2699989Y-18659734D02*
X2699989Y-18459734D01*
X2699989Y-18359734D02*
X2685703Y-18374020D01*
X2699989Y-18388306D01*
X2714275Y-18374020D01*
X2699989Y-18359734D01*
X2699989Y-18388306D01*
X2885703Y-18659734D02*
X2857132Y-18645449D01*
X2842846Y-18616877D01*
X2842846Y-18359734D01*
X3042846Y-18659734D02*
X3014274Y-18645449D01*
X2999989Y-18616877D01*
X2999989Y-18359734D01*
X3385703Y-18659734D02*
X3385703Y-18359734D01*
X3485703Y-18574020D01*
X3585703Y-18359734D01*
X3585703Y-18659734D01*
X3857132Y-18659734D02*
X3857132Y-18502592D01*
X3842846Y-18474020D01*
X3814274Y-18459734D01*
X3757132Y-18459734D01*
X3728560Y-18474020D01*
X3857132Y-18645449D02*
X3828560Y-18659734D01*
X3757132Y-18659734D01*
X3728560Y-18645449D01*
X3714274Y-18616877D01*
X3714274Y-18588306D01*
X3728560Y-18559734D01*
X3757132Y-18545449D01*
X3828560Y-18545449D01*
X3857132Y-18531163D01*
X3999989Y-18459734D02*
X3999989Y-18759734D01*
X3999989Y-18474020D02*
X4028560Y-18459734D01*
X4085703Y-18459734D01*
X4114274Y-18474020D01*
X4128560Y-18488306D01*
X4142846Y-18516877D01*
X4142846Y-18602592D01*
X4128560Y-18631163D01*
X4114274Y-18645449D01*
X4085703Y-18659734D01*
X4028560Y-18659734D01*
X3999989Y-18645449D01*
X4271417Y-18631163D02*
X4285703Y-18645449D01*
X4271417Y-18659734D01*
X4257132Y-18645449D01*
X4271417Y-18631163D01*
X4271417Y-18659734D01*
X4271417Y-18474020D02*
X4285703Y-18488306D01*
X4271417Y-18502592D01*
X4257132Y-18488306D01*
X4271417Y-18474020D01*
X4271417Y-18502592D01*
X1907846Y-19136520D02*
X1942846Y-19171520D01*
X1942846Y-19136520D02*
X1907846Y-19171520D01*
X2271417Y-18989734D02*
X2299989Y-18989734D01*
X2328560Y-19004020D01*
X2342846Y-19018306D01*
X2357132Y-19046877D01*
X2371417Y-19104020D01*
X2371417Y-19175449D01*
X2357132Y-19232592D01*
X2342846Y-19261163D01*
X2328560Y-19275449D01*
X2299989Y-19289734D01*
X2271417Y-19289734D01*
X2242846Y-19275449D01*
X2228560Y-19261163D01*
X2214275Y-19232592D01*
X2199989Y-19175449D01*
X2199989Y-19104020D01*
X2214275Y-19046877D01*
X2228560Y-19018306D01*
X2242846Y-19004020D01*
X2271417Y-18989734D01*
X2499989Y-19261163D02*
X2514275Y-19275449D01*
X2499989Y-19289734D01*
X2485703Y-19275449D01*
X2499989Y-19261163D01*
X2499989Y-19289734D01*
X2614274Y-18989734D02*
X2799989Y-18989734D01*
X2699989Y-19104020D01*
X2742846Y-19104020D01*
X2771417Y-19118306D01*
X2785703Y-19132592D01*
X2799989Y-19161163D01*
X2799989Y-19232592D01*
X2785703Y-19261163D01*
X2771417Y-19275449D01*
X2742846Y-19289734D01*
X2657132Y-19289734D01*
X2628560Y-19275449D01*
X2614274Y-19261163D01*
X3071417Y-18989734D02*
X2928560Y-18989734D01*
X2914274Y-19132592D01*
X2928560Y-19118306D01*
X2957132Y-19104020D01*
X3028560Y-19104020D01*
X3057132Y-19118306D01*
X3071417Y-19132592D01*
X3085703Y-19161163D01*
X3085703Y-19232592D01*
X3071417Y-19261163D01*
X3057132Y-19275449D01*
X3028560Y-19289734D01*
X2957132Y-19289734D01*
X2928560Y-19275449D01*
X2914274Y-19261163D01*
X3214274Y-19289734D02*
X3214274Y-19089734D01*
X3214274Y-19118306D02*
X3228560Y-19104020D01*
X3257132Y-19089734D01*
X3299989Y-19089734D01*
X3328560Y-19104020D01*
X3342846Y-19132592D01*
X3342846Y-19289734D01*
X3342846Y-19132592D02*
X3357132Y-19104020D01*
X3385703Y-19089734D01*
X3428560Y-19089734D01*
X3457132Y-19104020D01*
X3471417Y-19132592D01*
X3471417Y-19289734D01*
X3614274Y-19289734D02*
X3614274Y-19089734D01*
X3614274Y-19118306D02*
X3628560Y-19104020D01*
X3657132Y-19089734D01*
X3699989Y-19089734D01*
X3728560Y-19104020D01*
X3742846Y-19132592D01*
X3742846Y-19289734D01*
X3742846Y-19132592D02*
X3757132Y-19104020D01*
X3785703Y-19089734D01*
X3828560Y-19089734D01*
X3857132Y-19104020D01*
X3871417Y-19132592D01*
X3871417Y-19289734D01*
X4457132Y-18975449D02*
X4199989Y-19361163D01*
X4842846Y-18989734D02*
X4871417Y-18989734D01*
X4899989Y-19004020D01*
X4914274Y-19018306D01*
X4928560Y-19046877D01*
X4942846Y-19104020D01*
X4942846Y-19175449D01*
X4928560Y-19232592D01*
X4914274Y-19261163D01*
X4899989Y-19275449D01*
X4871417Y-19289734D01*
X4842846Y-19289734D01*
X4814274Y-19275449D01*
X4799989Y-19261163D01*
X4785703Y-19232592D01*
X4771417Y-19175449D01*
X4771417Y-19104020D01*
X4785703Y-19046877D01*
X4799989Y-19018306D01*
X4814274Y-19004020D01*
X4842846Y-18989734D01*
X5071417Y-19261163D02*
X5085703Y-19275449D01*
X5071417Y-19289734D01*
X5057132Y-19275449D01*
X5071417Y-19261163D01*
X5071417Y-19289734D01*
X5271417Y-18989734D02*
X5299989Y-18989734D01*
X5328560Y-19004020D01*
X5342846Y-19018306D01*
X5357132Y-19046877D01*
X5371417Y-19104020D01*
X5371417Y-19175449D01*
X5357132Y-19232592D01*
X5342846Y-19261163D01*
X5328560Y-19275449D01*
X5299989Y-19289734D01*
X5271417Y-19289734D01*
X5242846Y-19275449D01*
X5228560Y-19261163D01*
X5214274Y-19232592D01*
X5199989Y-19175449D01*
X5199989Y-19104020D01*
X5214274Y-19046877D01*
X5228560Y-19018306D01*
X5242846Y-19004020D01*
X5271417Y-18989734D01*
X5657131Y-19289734D02*
X5485703Y-19289734D01*
X5571417Y-19289734D02*
X5571417Y-18989734D01*
X5542846Y-19032592D01*
X5514274Y-19061163D01*
X5485703Y-19075449D01*
X5914274Y-19089734D02*
X5914274Y-19289734D01*
X5842846Y-18975449D02*
X5771417Y-19189734D01*
X5957131Y-19189734D01*
X6057132Y-18989734D02*
X6057132Y-19046877D01*
X6171417Y-18989734D02*
X6171417Y-19046877D01*
X6614274Y-19404020D02*
X6599989Y-19389734D01*
X6571417Y-19346877D01*
X6557131Y-19318306D01*
X6542846Y-19275449D01*
X6528560Y-19204020D01*
X6528560Y-19146877D01*
X6542846Y-19075449D01*
X6557131Y-19032592D01*
X6571417Y-19004020D01*
X6599989Y-18961163D01*
X6614274Y-18946877D01*
X6857131Y-19089734D02*
X6857131Y-19289734D01*
X6785703Y-18975449D02*
X6714274Y-19189734D01*
X6899989Y-19189734D01*
X7171417Y-19289734D02*
X6999989Y-19289734D01*
X7085703Y-19289734D02*
X7085703Y-18989734D01*
X7057131Y-19032592D01*
X7028560Y-19061163D01*
X6999989Y-19075449D01*
X7528560Y-19289734D02*
X7528560Y-18989734D01*
X7657131Y-19289734D02*
X7657131Y-19132592D01*
X7642846Y-19104020D01*
X7614274Y-19089734D01*
X7571417Y-19089734D01*
X7542846Y-19104020D01*
X7528560Y-19118306D01*
X7842846Y-19289734D02*
X7814274Y-19275449D01*
X7799989Y-19261163D01*
X7785703Y-19232592D01*
X7785703Y-19146877D01*
X7799989Y-19118306D01*
X7814274Y-19104020D01*
X7842846Y-19089734D01*
X7885703Y-19089734D01*
X7914274Y-19104020D01*
X7928560Y-19118306D01*
X7942846Y-19146877D01*
X7942846Y-19232592D01*
X7928560Y-19261163D01*
X7914274Y-19275449D01*
X7885703Y-19289734D01*
X7842846Y-19289734D01*
X8114274Y-19289734D02*
X8085703Y-19275449D01*
X8071417Y-19246877D01*
X8071417Y-18989734D01*
X8342846Y-19275449D02*
X8314274Y-19289734D01*
X8257132Y-19289734D01*
X8228560Y-19275449D01*
X8214274Y-19246877D01*
X8214274Y-19132592D01*
X8228560Y-19104020D01*
X8257132Y-19089734D01*
X8314274Y-19089734D01*
X8342846Y-19104020D01*
X8357132Y-19132592D01*
X8357132Y-19161163D01*
X8214274Y-19189734D01*
X8471417Y-19275449D02*
X8499989Y-19289734D01*
X8557132Y-19289734D01*
X8585703Y-19275449D01*
X8599989Y-19246877D01*
X8599989Y-19232592D01*
X8585703Y-19204020D01*
X8557132Y-19189734D01*
X8514275Y-19189734D01*
X8485703Y-19175449D01*
X8471417Y-19146877D01*
X8471417Y-19132592D01*
X8485703Y-19104020D01*
X8514275Y-19089734D01*
X8557132Y-19089734D01*
X8585703Y-19104020D01*
X8699989Y-19404020D02*
X8714275Y-19389734D01*
X8742846Y-19346877D01*
X8757132Y-19318306D01*
X8771417Y-19275449D01*
X8785703Y-19204020D01*
X8785703Y-19146877D01*
X8771417Y-19075449D01*
X8757132Y-19032592D01*
X8742846Y-19004020D01*
X8714275Y-18961163D01*
X8699989Y-18946877D01*
X1942846Y-19550020D02*
G75*
G03X1942846Y-19550020I-32500J0D01*
G01*
X2271417Y-19385734D02*
X2299989Y-19385734D01*
X2328560Y-19400020D01*
X2342846Y-19414306D01*
X2357132Y-19442877D01*
X2371417Y-19500020D01*
X2371417Y-19571449D01*
X2357132Y-19628592D01*
X2342846Y-19657163D01*
X2328560Y-19671449D01*
X2299989Y-19685734D01*
X2271417Y-19685734D01*
X2242846Y-19671449D01*
X2228560Y-19657163D01*
X2214275Y-19628592D01*
X2199989Y-19571449D01*
X2199989Y-19500020D01*
X2214275Y-19442877D01*
X2228560Y-19414306D01*
X2242846Y-19400020D01*
X2271417Y-19385734D01*
X2499989Y-19657163D02*
X2514275Y-19671449D01*
X2499989Y-19685734D01*
X2485703Y-19671449D01*
X2499989Y-19657163D01*
X2499989Y-19685734D01*
X2771417Y-19385734D02*
X2714274Y-19385734D01*
X2685703Y-19400020D01*
X2671417Y-19414306D01*
X2642846Y-19457163D01*
X2628560Y-19514306D01*
X2628560Y-19628592D01*
X2642846Y-19657163D01*
X2657132Y-19671449D01*
X2685703Y-19685734D01*
X2742846Y-19685734D01*
X2771417Y-19671449D01*
X2785703Y-19657163D01*
X2799989Y-19628592D01*
X2799989Y-19557163D01*
X2785703Y-19528592D01*
X2771417Y-19514306D01*
X2742846Y-19500020D01*
X2685703Y-19500020D01*
X2657132Y-19514306D01*
X2642846Y-19528592D01*
X2628560Y-19557163D01*
X3071417Y-19385734D02*
X2928560Y-19385734D01*
X2914274Y-19528592D01*
X2928560Y-19514306D01*
X2957132Y-19500020D01*
X3028560Y-19500020D01*
X3057132Y-19514306D01*
X3071417Y-19528592D01*
X3085703Y-19557163D01*
X3085703Y-19628592D01*
X3071417Y-19657163D01*
X3057132Y-19671449D01*
X3028560Y-19685734D01*
X2957132Y-19685734D01*
X2928560Y-19671449D01*
X2914274Y-19657163D01*
X3214274Y-19685734D02*
X3214274Y-19485734D01*
X3214274Y-19514306D02*
X3228560Y-19500020D01*
X3257132Y-19485734D01*
X3299989Y-19485734D01*
X3328560Y-19500020D01*
X3342846Y-19528592D01*
X3342846Y-19685734D01*
X3342846Y-19528592D02*
X3357132Y-19500020D01*
X3385703Y-19485734D01*
X3428560Y-19485734D01*
X3457132Y-19500020D01*
X3471417Y-19528592D01*
X3471417Y-19685734D01*
X3614274Y-19685734D02*
X3614274Y-19485734D01*
X3614274Y-19514306D02*
X3628560Y-19500020D01*
X3657132Y-19485734D01*
X3699989Y-19485734D01*
X3728560Y-19500020D01*
X3742846Y-19528592D01*
X3742846Y-19685734D01*
X3742846Y-19528592D02*
X3757132Y-19500020D01*
X3785703Y-19485734D01*
X3828560Y-19485734D01*
X3857132Y-19500020D01*
X3871417Y-19528592D01*
X3871417Y-19685734D01*
X4457132Y-19371449D02*
X4199989Y-19757163D01*
X4842846Y-19385734D02*
X4871417Y-19385734D01*
X4899989Y-19400020D01*
X4914274Y-19414306D01*
X4928560Y-19442877D01*
X4942846Y-19500020D01*
X4942846Y-19571449D01*
X4928560Y-19628592D01*
X4914274Y-19657163D01*
X4899989Y-19671449D01*
X4871417Y-19685734D01*
X4842846Y-19685734D01*
X4814274Y-19671449D01*
X4799989Y-19657163D01*
X4785703Y-19628592D01*
X4771417Y-19571449D01*
X4771417Y-19500020D01*
X4785703Y-19442877D01*
X4799989Y-19414306D01*
X4814274Y-19400020D01*
X4842846Y-19385734D01*
X5071417Y-19657163D02*
X5085703Y-19671449D01*
X5071417Y-19685734D01*
X5057132Y-19671449D01*
X5071417Y-19657163D01*
X5071417Y-19685734D01*
X5271417Y-19385734D02*
X5299989Y-19385734D01*
X5328560Y-19400020D01*
X5342846Y-19414306D01*
X5357132Y-19442877D01*
X5371417Y-19500020D01*
X5371417Y-19571449D01*
X5357132Y-19628592D01*
X5342846Y-19657163D01*
X5328560Y-19671449D01*
X5299989Y-19685734D01*
X5271417Y-19685734D01*
X5242846Y-19671449D01*
X5228560Y-19657163D01*
X5214274Y-19628592D01*
X5199989Y-19571449D01*
X5199989Y-19500020D01*
X5214274Y-19442877D01*
X5228560Y-19414306D01*
X5242846Y-19400020D01*
X5271417Y-19385734D01*
X5485703Y-19414306D02*
X5499989Y-19400020D01*
X5528560Y-19385734D01*
X5599989Y-19385734D01*
X5628560Y-19400020D01*
X5642846Y-19414306D01*
X5657131Y-19442877D01*
X5657131Y-19471449D01*
X5642846Y-19514306D01*
X5471417Y-19685734D01*
X5657131Y-19685734D01*
X5914274Y-19385734D02*
X5857131Y-19385734D01*
X5828560Y-19400020D01*
X5814274Y-19414306D01*
X5785703Y-19457163D01*
X5771417Y-19514306D01*
X5771417Y-19628592D01*
X5785703Y-19657163D01*
X5799989Y-19671449D01*
X5828560Y-19685734D01*
X5885703Y-19685734D01*
X5914274Y-19671449D01*
X5928560Y-19657163D01*
X5942846Y-19628592D01*
X5942846Y-19557163D01*
X5928560Y-19528592D01*
X5914274Y-19514306D01*
X5885703Y-19500020D01*
X5828560Y-19500020D01*
X5799989Y-19514306D01*
X5785703Y-19528592D01*
X5771417Y-19557163D01*
X6057132Y-19385734D02*
X6057132Y-19442877D01*
X6171417Y-19385734D02*
X6171417Y-19442877D01*
X6614274Y-19800020D02*
X6599989Y-19785734D01*
X6571417Y-19742877D01*
X6557131Y-19714306D01*
X6542846Y-19671449D01*
X6528560Y-19600020D01*
X6528560Y-19542877D01*
X6542846Y-19471449D01*
X6557131Y-19428592D01*
X6571417Y-19400020D01*
X6599989Y-19357163D01*
X6614274Y-19342877D01*
X6885703Y-19685734D02*
X6714274Y-19685734D01*
X6799989Y-19685734D02*
X6799989Y-19385734D01*
X6771417Y-19428592D01*
X6742846Y-19457163D01*
X6714274Y-19471449D01*
X7028560Y-19685734D02*
X7085703Y-19685734D01*
X7114274Y-19671449D01*
X7128560Y-19657163D01*
X7157131Y-19614306D01*
X7171417Y-19557163D01*
X7171417Y-19442877D01*
X7157131Y-19414306D01*
X7142846Y-19400020D01*
X7114274Y-19385734D01*
X7057131Y-19385734D01*
X7028560Y-19400020D01*
X7014274Y-19414306D01*
X6999989Y-19442877D01*
X6999989Y-19514306D01*
X7014274Y-19542877D01*
X7028560Y-19557163D01*
X7057131Y-19571449D01*
X7114274Y-19571449D01*
X7142846Y-19557163D01*
X7157131Y-19542877D01*
X7171417Y-19514306D01*
X7528560Y-19685734D02*
X7528560Y-19385734D01*
X7657131Y-19685734D02*
X7657131Y-19528592D01*
X7642846Y-19500020D01*
X7614274Y-19485734D01*
X7571417Y-19485734D01*
X7542846Y-19500020D01*
X7528560Y-19514306D01*
X7842846Y-19685734D02*
X7814274Y-19671449D01*
X7799989Y-19657163D01*
X7785703Y-19628592D01*
X7785703Y-19542877D01*
X7799989Y-19514306D01*
X7814274Y-19500020D01*
X7842846Y-19485734D01*
X7885703Y-19485734D01*
X7914274Y-19500020D01*
X7928560Y-19514306D01*
X7942846Y-19542877D01*
X7942846Y-19628592D01*
X7928560Y-19657163D01*
X7914274Y-19671449D01*
X7885703Y-19685734D01*
X7842846Y-19685734D01*
X8114274Y-19685734D02*
X8085703Y-19671449D01*
X8071417Y-19642877D01*
X8071417Y-19385734D01*
X8342846Y-19671449D02*
X8314274Y-19685734D01*
X8257132Y-19685734D01*
X8228560Y-19671449D01*
X8214274Y-19642877D01*
X8214274Y-19528592D01*
X8228560Y-19500020D01*
X8257132Y-19485734D01*
X8314274Y-19485734D01*
X8342846Y-19500020D01*
X8357132Y-19528592D01*
X8357132Y-19557163D01*
X8214274Y-19585734D01*
X8471417Y-19671449D02*
X8499989Y-19685734D01*
X8557132Y-19685734D01*
X8585703Y-19671449D01*
X8599989Y-19642877D01*
X8599989Y-19628592D01*
X8585703Y-19600020D01*
X8557132Y-19585734D01*
X8514275Y-19585734D01*
X8485703Y-19571449D01*
X8471417Y-19542877D01*
X8471417Y-19528592D01*
X8485703Y-19500020D01*
X8514275Y-19485734D01*
X8557132Y-19485734D01*
X8585703Y-19500020D01*
X8699989Y-19800020D02*
X8714275Y-19785734D01*
X8742846Y-19742877D01*
X8757132Y-19714306D01*
X8771417Y-19671449D01*
X8785703Y-19600020D01*
X8785703Y-19542877D01*
X8771417Y-19471449D01*
X8757132Y-19428592D01*
X8742846Y-19400020D01*
X8714275Y-19357163D01*
X8699989Y-19342877D01*
X1902846Y-19906020D02*
X1902846Y-19986020D01*
X1862846Y-19946020D02*
X1942846Y-19946020D01*
X2271417Y-19781734D02*
X2299989Y-19781734D01*
X2328560Y-19796020D01*
X2342846Y-19810306D01*
X2357132Y-19838877D01*
X2371417Y-19896020D01*
X2371417Y-19967449D01*
X2357132Y-20024592D01*
X2342846Y-20053163D01*
X2328560Y-20067449D01*
X2299989Y-20081734D01*
X2271417Y-20081734D01*
X2242846Y-20067449D01*
X2228560Y-20053163D01*
X2214275Y-20024592D01*
X2199989Y-19967449D01*
X2199989Y-19896020D01*
X2214275Y-19838877D01*
X2228560Y-19810306D01*
X2242846Y-19796020D01*
X2271417Y-19781734D01*
X2499989Y-20053163D02*
X2514275Y-20067449D01*
X2499989Y-20081734D01*
X2485703Y-20067449D01*
X2499989Y-20053163D01*
X2499989Y-20081734D01*
X2685703Y-19910306D02*
X2657132Y-19896020D01*
X2642846Y-19881734D01*
X2628560Y-19853163D01*
X2628560Y-19838877D01*
X2642846Y-19810306D01*
X2657132Y-19796020D01*
X2685703Y-19781734D01*
X2742846Y-19781734D01*
X2771417Y-19796020D01*
X2785703Y-19810306D01*
X2799989Y-19838877D01*
X2799989Y-19853163D01*
X2785703Y-19881734D01*
X2771417Y-19896020D01*
X2742846Y-19910306D01*
X2685703Y-19910306D01*
X2657132Y-19924592D01*
X2642846Y-19938877D01*
X2628560Y-19967449D01*
X2628560Y-20024592D01*
X2642846Y-20053163D01*
X2657132Y-20067449D01*
X2685703Y-20081734D01*
X2742846Y-20081734D01*
X2771417Y-20067449D01*
X2785703Y-20053163D01*
X2799989Y-20024592D01*
X2799989Y-19967449D01*
X2785703Y-19938877D01*
X2771417Y-19924592D01*
X2742846Y-19910306D01*
X2985703Y-19781734D02*
X3014274Y-19781734D01*
X3042846Y-19796020D01*
X3057132Y-19810306D01*
X3071417Y-19838877D01*
X3085703Y-19896020D01*
X3085703Y-19967449D01*
X3071417Y-20024592D01*
X3057132Y-20053163D01*
X3042846Y-20067449D01*
X3014274Y-20081734D01*
X2985703Y-20081734D01*
X2957132Y-20067449D01*
X2942846Y-20053163D01*
X2928560Y-20024592D01*
X2914274Y-19967449D01*
X2914274Y-19896020D01*
X2928560Y-19838877D01*
X2942846Y-19810306D01*
X2957132Y-19796020D01*
X2985703Y-19781734D01*
X3214274Y-20081734D02*
X3214274Y-19881734D01*
X3214274Y-19910306D02*
X3228560Y-19896020D01*
X3257132Y-19881734D01*
X3299989Y-19881734D01*
X3328560Y-19896020D01*
X3342846Y-19924592D01*
X3342846Y-20081734D01*
X3342846Y-19924592D02*
X3357132Y-19896020D01*
X3385703Y-19881734D01*
X3428560Y-19881734D01*
X3457132Y-19896020D01*
X3471417Y-19924592D01*
X3471417Y-20081734D01*
X3614274Y-20081734D02*
X3614274Y-19881734D01*
X3614274Y-19910306D02*
X3628560Y-19896020D01*
X3657132Y-19881734D01*
X3699989Y-19881734D01*
X3728560Y-19896020D01*
X3742846Y-19924592D01*
X3742846Y-20081734D01*
X3742846Y-19924592D02*
X3757132Y-19896020D01*
X3785703Y-19881734D01*
X3828560Y-19881734D01*
X3857132Y-19896020D01*
X3871417Y-19924592D01*
X3871417Y-20081734D01*
X4457132Y-19767449D02*
X4199989Y-20153163D01*
X4842846Y-19781734D02*
X4871417Y-19781734D01*
X4899989Y-19796020D01*
X4914274Y-19810306D01*
X4928560Y-19838877D01*
X4942846Y-19896020D01*
X4942846Y-19967449D01*
X4928560Y-20024592D01*
X4914274Y-20053163D01*
X4899989Y-20067449D01*
X4871417Y-20081734D01*
X4842846Y-20081734D01*
X4814274Y-20067449D01*
X4799989Y-20053163D01*
X4785703Y-20024592D01*
X4771417Y-19967449D01*
X4771417Y-19896020D01*
X4785703Y-19838877D01*
X4799989Y-19810306D01*
X4814274Y-19796020D01*
X4842846Y-19781734D01*
X5071417Y-20053163D02*
X5085703Y-20067449D01*
X5071417Y-20081734D01*
X5057132Y-20067449D01*
X5071417Y-20053163D01*
X5071417Y-20081734D01*
X5271417Y-19781734D02*
X5299989Y-19781734D01*
X5328560Y-19796020D01*
X5342846Y-19810306D01*
X5357132Y-19838877D01*
X5371417Y-19896020D01*
X5371417Y-19967449D01*
X5357132Y-20024592D01*
X5342846Y-20053163D01*
X5328560Y-20067449D01*
X5299989Y-20081734D01*
X5271417Y-20081734D01*
X5242846Y-20067449D01*
X5228560Y-20053163D01*
X5214274Y-20024592D01*
X5199989Y-19967449D01*
X5199989Y-19896020D01*
X5214274Y-19838877D01*
X5228560Y-19810306D01*
X5242846Y-19796020D01*
X5271417Y-19781734D01*
X5471417Y-19781734D02*
X5657131Y-19781734D01*
X5557132Y-19896020D01*
X5599989Y-19896020D01*
X5628560Y-19910306D01*
X5642846Y-19924592D01*
X5657131Y-19953163D01*
X5657131Y-20024592D01*
X5642846Y-20053163D01*
X5628560Y-20067449D01*
X5599989Y-20081734D01*
X5514274Y-20081734D01*
X5485703Y-20067449D01*
X5471417Y-20053163D01*
X5942846Y-20081734D02*
X5771417Y-20081734D01*
X5857131Y-20081734D02*
X5857131Y-19781734D01*
X5828560Y-19824592D01*
X5799989Y-19853163D01*
X5771417Y-19867449D01*
X6057132Y-19781734D02*
X6057132Y-19838877D01*
X6171417Y-19781734D02*
X6171417Y-19838877D01*
X6614274Y-20196020D02*
X6599989Y-20181734D01*
X6571417Y-20138877D01*
X6557131Y-20110306D01*
X6542846Y-20067449D01*
X6528560Y-19996020D01*
X6528560Y-19938877D01*
X6542846Y-19867449D01*
X6557131Y-19824592D01*
X6571417Y-19796020D01*
X6599989Y-19753163D01*
X6614274Y-19738877D01*
X6885703Y-20081734D02*
X6714274Y-20081734D01*
X6799989Y-20081734D02*
X6799989Y-19781734D01*
X6771417Y-19824592D01*
X6742846Y-19853163D01*
X6714274Y-19867449D01*
X7157131Y-19781734D02*
X7014274Y-19781734D01*
X6999989Y-19924592D01*
X7014274Y-19910306D01*
X7042846Y-19896020D01*
X7114274Y-19896020D01*
X7142846Y-19910306D01*
X7157131Y-19924592D01*
X7171417Y-19953163D01*
X7171417Y-20024592D01*
X7157131Y-20053163D01*
X7142846Y-20067449D01*
X7114274Y-20081734D01*
X7042846Y-20081734D01*
X7014274Y-20067449D01*
X6999989Y-20053163D01*
X7271417Y-19781734D02*
X7471417Y-19781734D01*
X7342846Y-20081734D01*
X7814274Y-20081734D02*
X7814274Y-19781734D01*
X7942846Y-20081734D02*
X7942846Y-19924592D01*
X7928560Y-19896020D01*
X7899989Y-19881734D01*
X7857131Y-19881734D01*
X7828560Y-19896020D01*
X7814274Y-19910306D01*
X8128560Y-20081734D02*
X8099989Y-20067449D01*
X8085703Y-20053163D01*
X8071417Y-20024592D01*
X8071417Y-19938877D01*
X8085703Y-19910306D01*
X8099989Y-19896020D01*
X8128560Y-19881734D01*
X8171417Y-19881734D01*
X8199989Y-19896020D01*
X8214274Y-19910306D01*
X8228560Y-19938877D01*
X8228560Y-20024592D01*
X8214274Y-20053163D01*
X8199989Y-20067449D01*
X8171417Y-20081734D01*
X8128560Y-20081734D01*
X8399989Y-20081734D02*
X8371417Y-20067449D01*
X8357132Y-20038877D01*
X8357132Y-19781734D01*
X8628560Y-20067449D02*
X8599989Y-20081734D01*
X8542846Y-20081734D01*
X8514275Y-20067449D01*
X8499989Y-20038877D01*
X8499989Y-19924592D01*
X8514275Y-19896020D01*
X8542846Y-19881734D01*
X8599989Y-19881734D01*
X8628560Y-19896020D01*
X8642846Y-19924592D01*
X8642846Y-19953163D01*
X8499989Y-19981734D01*
X8757132Y-20067449D02*
X8785703Y-20081734D01*
X8842846Y-20081734D01*
X8871417Y-20067449D01*
X8885703Y-20038877D01*
X8885703Y-20024592D01*
X8871417Y-19996020D01*
X8842846Y-19981734D01*
X8799989Y-19981734D01*
X8771417Y-19967449D01*
X8757132Y-19938877D01*
X8757132Y-19924592D01*
X8771417Y-19896020D01*
X8799989Y-19881734D01*
X8842846Y-19881734D01*
X8871417Y-19896020D01*
X8985703Y-20196020D02*
X8999989Y-20181734D01*
X9028560Y-20138877D01*
X9042846Y-20110306D01*
X9057132Y-20067449D01*
X9071417Y-19996020D01*
X9071417Y-19938877D01*
X9057132Y-19867449D01*
X9042846Y-19824592D01*
X9028560Y-19796020D01*
X8999989Y-19753163D01*
X8985703Y-19738877D01*
X1928202Y-20377376D02*
X1928202Y-20306664D01*
X1857490Y-20306664D01*
X1857490Y-20377376D01*
X1928202Y-20377376D01*
X2371417Y-20477734D02*
X2199989Y-20477734D01*
X2285703Y-20477734D02*
X2285703Y-20177734D01*
X2257132Y-20220592D01*
X2228560Y-20249163D01*
X2199989Y-20263449D01*
X2499989Y-20449163D02*
X2514275Y-20463449D01*
X2499989Y-20477734D01*
X2485703Y-20463449D01*
X2499989Y-20449163D01*
X2499989Y-20477734D01*
X2699989Y-20177734D02*
X2728560Y-20177734D01*
X2757132Y-20192020D01*
X2771417Y-20206306D01*
X2785703Y-20234877D01*
X2799989Y-20292020D01*
X2799989Y-20363449D01*
X2785703Y-20420592D01*
X2771417Y-20449163D01*
X2757132Y-20463449D01*
X2728560Y-20477734D01*
X2699989Y-20477734D01*
X2671417Y-20463449D01*
X2657132Y-20449163D01*
X2642846Y-20420592D01*
X2628560Y-20363449D01*
X2628560Y-20292020D01*
X2642846Y-20234877D01*
X2657132Y-20206306D01*
X2671417Y-20192020D01*
X2699989Y-20177734D01*
X2985703Y-20177734D02*
X3014274Y-20177734D01*
X3042846Y-20192020D01*
X3057132Y-20206306D01*
X3071417Y-20234877D01*
X3085703Y-20292020D01*
X3085703Y-20363449D01*
X3071417Y-20420592D01*
X3057132Y-20449163D01*
X3042846Y-20463449D01*
X3014274Y-20477734D01*
X2985703Y-20477734D01*
X2957132Y-20463449D01*
X2942846Y-20449163D01*
X2928560Y-20420592D01*
X2914274Y-20363449D01*
X2914274Y-20292020D01*
X2928560Y-20234877D01*
X2942846Y-20206306D01*
X2957132Y-20192020D01*
X2985703Y-20177734D01*
X3214274Y-20477734D02*
X3214274Y-20277734D01*
X3214274Y-20306306D02*
X3228560Y-20292020D01*
X3257132Y-20277734D01*
X3299989Y-20277734D01*
X3328560Y-20292020D01*
X3342846Y-20320592D01*
X3342846Y-20477734D01*
X3342846Y-20320592D02*
X3357132Y-20292020D01*
X3385703Y-20277734D01*
X3428560Y-20277734D01*
X3457132Y-20292020D01*
X3471417Y-20320592D01*
X3471417Y-20477734D01*
X3614274Y-20477734D02*
X3614274Y-20277734D01*
X3614274Y-20306306D02*
X3628560Y-20292020D01*
X3657132Y-20277734D01*
X3699989Y-20277734D01*
X3728560Y-20292020D01*
X3742846Y-20320592D01*
X3742846Y-20477734D01*
X3742846Y-20320592D02*
X3757132Y-20292020D01*
X3785703Y-20277734D01*
X3828560Y-20277734D01*
X3857132Y-20292020D01*
X3871417Y-20320592D01*
X3871417Y-20477734D01*
X4457132Y-20163449D02*
X4199989Y-20549163D01*
X4842846Y-20177734D02*
X4871417Y-20177734D01*
X4899989Y-20192020D01*
X4914274Y-20206306D01*
X4928560Y-20234877D01*
X4942846Y-20292020D01*
X4942846Y-20363449D01*
X4928560Y-20420592D01*
X4914274Y-20449163D01*
X4899989Y-20463449D01*
X4871417Y-20477734D01*
X4842846Y-20477734D01*
X4814274Y-20463449D01*
X4799989Y-20449163D01*
X4785703Y-20420592D01*
X4771417Y-20363449D01*
X4771417Y-20292020D01*
X4785703Y-20234877D01*
X4799989Y-20206306D01*
X4814274Y-20192020D01*
X4842846Y-20177734D01*
X5071417Y-20449163D02*
X5085703Y-20463449D01*
X5071417Y-20477734D01*
X5057132Y-20463449D01*
X5071417Y-20449163D01*
X5071417Y-20477734D01*
X5271417Y-20177734D02*
X5299989Y-20177734D01*
X5328560Y-20192020D01*
X5342846Y-20206306D01*
X5357132Y-20234877D01*
X5371417Y-20292020D01*
X5371417Y-20363449D01*
X5357132Y-20420592D01*
X5342846Y-20449163D01*
X5328560Y-20463449D01*
X5299989Y-20477734D01*
X5271417Y-20477734D01*
X5242846Y-20463449D01*
X5228560Y-20449163D01*
X5214274Y-20420592D01*
X5199989Y-20363449D01*
X5199989Y-20292020D01*
X5214274Y-20234877D01*
X5228560Y-20206306D01*
X5242846Y-20192020D01*
X5271417Y-20177734D01*
X5471417Y-20177734D02*
X5657131Y-20177734D01*
X5557132Y-20292020D01*
X5599989Y-20292020D01*
X5628560Y-20306306D01*
X5642846Y-20320592D01*
X5657131Y-20349163D01*
X5657131Y-20420592D01*
X5642846Y-20449163D01*
X5628560Y-20463449D01*
X5599989Y-20477734D01*
X5514274Y-20477734D01*
X5485703Y-20463449D01*
X5471417Y-20449163D01*
X5799989Y-20477734D02*
X5857131Y-20477734D01*
X5885703Y-20463449D01*
X5899989Y-20449163D01*
X5928560Y-20406306D01*
X5942846Y-20349163D01*
X5942846Y-20234877D01*
X5928560Y-20206306D01*
X5914274Y-20192020D01*
X5885703Y-20177734D01*
X5828560Y-20177734D01*
X5799989Y-20192020D01*
X5785703Y-20206306D01*
X5771417Y-20234877D01*
X5771417Y-20306306D01*
X5785703Y-20334877D01*
X5799989Y-20349163D01*
X5828560Y-20363449D01*
X5885703Y-20363449D01*
X5914274Y-20349163D01*
X5928560Y-20334877D01*
X5942846Y-20306306D01*
X6057132Y-20177734D02*
X6057132Y-20234877D01*
X6171417Y-20177734D02*
X6171417Y-20234877D01*
X6614274Y-20592020D02*
X6599989Y-20577734D01*
X6571417Y-20534877D01*
X6557131Y-20506306D01*
X6542846Y-20463449D01*
X6528560Y-20392020D01*
X6528560Y-20334877D01*
X6542846Y-20263449D01*
X6557131Y-20220592D01*
X6571417Y-20192020D01*
X6599989Y-20149163D01*
X6614274Y-20134877D01*
X6885703Y-20477734D02*
X6714274Y-20477734D01*
X6799989Y-20477734D02*
X6799989Y-20177734D01*
X6771417Y-20220592D01*
X6742846Y-20249163D01*
X6714274Y-20263449D01*
X7142846Y-20277734D02*
X7142846Y-20477734D01*
X7071417Y-20163449D02*
X6999989Y-20377734D01*
X7185703Y-20377734D01*
X7457131Y-20477734D02*
X7285703Y-20477734D01*
X7371417Y-20477734D02*
X7371417Y-20177734D01*
X7342846Y-20220592D01*
X7314274Y-20249163D01*
X7285703Y-20263449D01*
X7814274Y-20477734D02*
X7814274Y-20177734D01*
X7942846Y-20477734D02*
X7942846Y-20320592D01*
X7928560Y-20292020D01*
X7899989Y-20277734D01*
X7857131Y-20277734D01*
X7828560Y-20292020D01*
X7814274Y-20306306D01*
X8128560Y-20477734D02*
X8099989Y-20463449D01*
X8085703Y-20449163D01*
X8071417Y-20420592D01*
X8071417Y-20334877D01*
X8085703Y-20306306D01*
X8099989Y-20292020D01*
X8128560Y-20277734D01*
X8171417Y-20277734D01*
X8199989Y-20292020D01*
X8214274Y-20306306D01*
X8228560Y-20334877D01*
X8228560Y-20420592D01*
X8214274Y-20449163D01*
X8199989Y-20463449D01*
X8171417Y-20477734D01*
X8128560Y-20477734D01*
X8399989Y-20477734D02*
X8371417Y-20463449D01*
X8357132Y-20434877D01*
X8357132Y-20177734D01*
X8628560Y-20463449D02*
X8599989Y-20477734D01*
X8542846Y-20477734D01*
X8514275Y-20463449D01*
X8499989Y-20434877D01*
X8499989Y-20320592D01*
X8514275Y-20292020D01*
X8542846Y-20277734D01*
X8599989Y-20277734D01*
X8628560Y-20292020D01*
X8642846Y-20320592D01*
X8642846Y-20349163D01*
X8499989Y-20377734D01*
X8757132Y-20463449D02*
X8785703Y-20477734D01*
X8842846Y-20477734D01*
X8871417Y-20463449D01*
X8885703Y-20434877D01*
X8885703Y-20420592D01*
X8871417Y-20392020D01*
X8842846Y-20377734D01*
X8799989Y-20377734D01*
X8771417Y-20363449D01*
X8757132Y-20334877D01*
X8757132Y-20320592D01*
X8771417Y-20292020D01*
X8799989Y-20277734D01*
X8842846Y-20277734D01*
X8871417Y-20292020D01*
X8985703Y-20592020D02*
X8999989Y-20577734D01*
X9028560Y-20534877D01*
X9042846Y-20506306D01*
X9057132Y-20463449D01*
X9071417Y-20392020D01*
X9071417Y-20334877D01*
X9057132Y-20263449D01*
X9042846Y-20220592D01*
X9028560Y-20192020D01*
X8999989Y-20149163D01*
X8985703Y-20134877D01*
X1842897Y-20837969D02*
X1942846Y-20738020D01*
X1842897Y-20638071D01*
X1742948Y-20738020D01*
X1842897Y-20837969D01*
X2199989Y-20602306D02*
X2214275Y-20588020D01*
X2242846Y-20573734D01*
X2314275Y-20573734D01*
X2342846Y-20588020D01*
X2357132Y-20602306D01*
X2371417Y-20630877D01*
X2371417Y-20659449D01*
X2357132Y-20702306D01*
X2185703Y-20873734D01*
X2371417Y-20873734D01*
X2499989Y-20845163D02*
X2514275Y-20859449D01*
X2499989Y-20873734D01*
X2485703Y-20859449D01*
X2499989Y-20845163D01*
X2499989Y-20873734D01*
X2699989Y-20573734D02*
X2728560Y-20573734D01*
X2757132Y-20588020D01*
X2771417Y-20602306D01*
X2785703Y-20630877D01*
X2799989Y-20688020D01*
X2799989Y-20759449D01*
X2785703Y-20816592D01*
X2771417Y-20845163D01*
X2757132Y-20859449D01*
X2728560Y-20873734D01*
X2699989Y-20873734D01*
X2671417Y-20859449D01*
X2657132Y-20845163D01*
X2642846Y-20816592D01*
X2628560Y-20759449D01*
X2628560Y-20688020D01*
X2642846Y-20630877D01*
X2657132Y-20602306D01*
X2671417Y-20588020D01*
X2699989Y-20573734D01*
X2985703Y-20573734D02*
X3014274Y-20573734D01*
X3042846Y-20588020D01*
X3057132Y-20602306D01*
X3071417Y-20630877D01*
X3085703Y-20688020D01*
X3085703Y-20759449D01*
X3071417Y-20816592D01*
X3057132Y-20845163D01*
X3042846Y-20859449D01*
X3014274Y-20873734D01*
X2985703Y-20873734D01*
X2957132Y-20859449D01*
X2942846Y-20845163D01*
X2928560Y-20816592D01*
X2914274Y-20759449D01*
X2914274Y-20688020D01*
X2928560Y-20630877D01*
X2942846Y-20602306D01*
X2957132Y-20588020D01*
X2985703Y-20573734D01*
X3214274Y-20873734D02*
X3214274Y-20673734D01*
X3214274Y-20702306D02*
X3228560Y-20688020D01*
X3257132Y-20673734D01*
X3299989Y-20673734D01*
X3328560Y-20688020D01*
X3342846Y-20716592D01*
X3342846Y-20873734D01*
X3342846Y-20716592D02*
X3357132Y-20688020D01*
X3385703Y-20673734D01*
X3428560Y-20673734D01*
X3457132Y-20688020D01*
X3471417Y-20716592D01*
X3471417Y-20873734D01*
X3614274Y-20873734D02*
X3614274Y-20673734D01*
X3614274Y-20702306D02*
X3628560Y-20688020D01*
X3657132Y-20673734D01*
X3699989Y-20673734D01*
X3728560Y-20688020D01*
X3742846Y-20716592D01*
X3742846Y-20873734D01*
X3742846Y-20716592D02*
X3757132Y-20688020D01*
X3785703Y-20673734D01*
X3828560Y-20673734D01*
X3857132Y-20688020D01*
X3871417Y-20716592D01*
X3871417Y-20873734D01*
X4457132Y-20559449D02*
X4199989Y-20945163D01*
X4842846Y-20573734D02*
X4871417Y-20573734D01*
X4899989Y-20588020D01*
X4914274Y-20602306D01*
X4928560Y-20630877D01*
X4942846Y-20688020D01*
X4942846Y-20759449D01*
X4928560Y-20816592D01*
X4914274Y-20845163D01*
X4899989Y-20859449D01*
X4871417Y-20873734D01*
X4842846Y-20873734D01*
X4814274Y-20859449D01*
X4799989Y-20845163D01*
X4785703Y-20816592D01*
X4771417Y-20759449D01*
X4771417Y-20688020D01*
X4785703Y-20630877D01*
X4799989Y-20602306D01*
X4814274Y-20588020D01*
X4842846Y-20573734D01*
X5071417Y-20845163D02*
X5085703Y-20859449D01*
X5071417Y-20873734D01*
X5057132Y-20859449D01*
X5071417Y-20845163D01*
X5071417Y-20873734D01*
X5271417Y-20573734D02*
X5299989Y-20573734D01*
X5328560Y-20588020D01*
X5342846Y-20602306D01*
X5357132Y-20630877D01*
X5371417Y-20688020D01*
X5371417Y-20759449D01*
X5357132Y-20816592D01*
X5342846Y-20845163D01*
X5328560Y-20859449D01*
X5299989Y-20873734D01*
X5271417Y-20873734D01*
X5242846Y-20859449D01*
X5228560Y-20845163D01*
X5214274Y-20816592D01*
X5199989Y-20759449D01*
X5199989Y-20688020D01*
X5214274Y-20630877D01*
X5228560Y-20602306D01*
X5242846Y-20588020D01*
X5271417Y-20573734D01*
X5471417Y-20573734D02*
X5671417Y-20573734D01*
X5542846Y-20873734D01*
X5799989Y-20873734D02*
X5857131Y-20873734D01*
X5885703Y-20859449D01*
X5899989Y-20845163D01*
X5928560Y-20802306D01*
X5942846Y-20745163D01*
X5942846Y-20630877D01*
X5928560Y-20602306D01*
X5914274Y-20588020D01*
X5885703Y-20573734D01*
X5828560Y-20573734D01*
X5799989Y-20588020D01*
X5785703Y-20602306D01*
X5771417Y-20630877D01*
X5771417Y-20702306D01*
X5785703Y-20730877D01*
X5799989Y-20745163D01*
X5828560Y-20759449D01*
X5885703Y-20759449D01*
X5914274Y-20745163D01*
X5928560Y-20730877D01*
X5942846Y-20702306D01*
X6057132Y-20573734D02*
X6057132Y-20630877D01*
X6171417Y-20573734D02*
X6171417Y-20630877D01*
X6614274Y-20988020D02*
X6599989Y-20973734D01*
X6571417Y-20930877D01*
X6557131Y-20902306D01*
X6542846Y-20859449D01*
X6528560Y-20788020D01*
X6528560Y-20730877D01*
X6542846Y-20659449D01*
X6557131Y-20616592D01*
X6571417Y-20588020D01*
X6599989Y-20545163D01*
X6614274Y-20530877D01*
X6857131Y-20673734D02*
X6857131Y-20873734D01*
X6785703Y-20559449D02*
X6714274Y-20773734D01*
X6899989Y-20773734D01*
X7242846Y-20873734D02*
X7242846Y-20573734D01*
X7371417Y-20873734D02*
X7371417Y-20716592D01*
X7357131Y-20688020D01*
X7328560Y-20673734D01*
X7285703Y-20673734D01*
X7257131Y-20688020D01*
X7242846Y-20702306D01*
X7557131Y-20873734D02*
X7528560Y-20859449D01*
X7514274Y-20845163D01*
X7499989Y-20816592D01*
X7499989Y-20730877D01*
X7514274Y-20702306D01*
X7528560Y-20688020D01*
X7557131Y-20673734D01*
X7599989Y-20673734D01*
X7628560Y-20688020D01*
X7642846Y-20702306D01*
X7657131Y-20730877D01*
X7657131Y-20816592D01*
X7642846Y-20845163D01*
X7628560Y-20859449D01*
X7599989Y-20873734D01*
X7557131Y-20873734D01*
X7828560Y-20873734D02*
X7799989Y-20859449D01*
X7785703Y-20830877D01*
X7785703Y-20573734D01*
X8057132Y-20859449D02*
X8028560Y-20873734D01*
X7971417Y-20873734D01*
X7942846Y-20859449D01*
X7928560Y-20830877D01*
X7928560Y-20716592D01*
X7942846Y-20688020D01*
X7971417Y-20673734D01*
X8028560Y-20673734D01*
X8057132Y-20688020D01*
X8071417Y-20716592D01*
X8071417Y-20745163D01*
X7928560Y-20773734D01*
X8185703Y-20859449D02*
X8214274Y-20873734D01*
X8271417Y-20873734D01*
X8299989Y-20859449D01*
X8314274Y-20830877D01*
X8314274Y-20816592D01*
X8299989Y-20788020D01*
X8271417Y-20773734D01*
X8228560Y-20773734D01*
X8199989Y-20759449D01*
X8185703Y-20730877D01*
X8185703Y-20716592D01*
X8199989Y-20688020D01*
X8228560Y-20673734D01*
X8271417Y-20673734D01*
X8299989Y-20688020D01*
X8414274Y-20988020D02*
X8428560Y-20973734D01*
X8457132Y-20930877D01*
X8471417Y-20902306D01*
X8485703Y-20859449D01*
X8499989Y-20788020D01*
X8499989Y-20730877D01*
X8485703Y-20659449D01*
X8471417Y-20616592D01*
X8457132Y-20588020D01*
X8428560Y-20545163D01*
X8414274Y-20530877D01*
M02*
