%FSLAX45Y45*%
G04 Gerber Fmt 4.5, Leading zero omitted, Abs format (unit mm)*
G04 Created by KiCad (PCBNEW 4.0.1-stable) date 15.08.2016 21:33:21*
%MOMM*%
G01*
G04 APERTURE LIST*
%ADD10C,0.127000*%
%ADD11C,0.381000*%
%ADD12C,0.200000*%
%ADD13C,0.300000*%
G04 APERTURE END LIST*
D10*
D11*
X16361918Y-2135124D02*
X16361918Y-18174970D01*
X1961896Y-2135124D02*
X16361918Y-2135124D01*
X1961896Y-2135886D02*
X1961896Y-2135124D01*
X1961896Y-2136902D02*
X1961896Y-2135886D01*
X1961896Y-18174970D02*
X1961896Y-2136902D01*
X16361918Y-18174970D02*
X1961896Y-18174970D01*
D12*
X15887131Y-3682063D02*
X15997113Y-3792045D01*
X15997113Y-3682063D02*
X15887131Y-3792045D01*
X13542076Y-3737054D02*
G75*
G03X13542076Y-3737054I-80010J0D01*
G01*
X2138934Y-3002280D02*
X2138934Y-3232404D01*
X2023872Y-3117342D02*
X2253996Y-3117342D01*
X4170934Y-3002280D02*
X4170934Y-3232404D01*
X4055872Y-3117342D02*
X4285996Y-3117342D01*
X2770683Y-2516937D02*
X2770683Y-2269439D01*
X2523185Y-2269439D01*
X2523185Y-2516937D01*
X2770683Y-2516937D01*
X2571877Y-2558194D02*
X2721991Y-2558194D01*
X2571877Y-2228182D02*
X2721991Y-2228182D01*
X2721991Y-2558194D02*
G75*
G03X2721991Y-2228182I0J165006D01*
G01*
X2571877Y-2228182D02*
G75*
G03X2571877Y-2558194I0J-165006D01*
G01*
X3786683Y-2516937D02*
X3786683Y-2269439D01*
X3539185Y-2269439D01*
X3539185Y-2516937D01*
X3786683Y-2516937D01*
X3587877Y-2558194D02*
X3737991Y-2558194D01*
X3587877Y-2228182D02*
X3737991Y-2228182D01*
X3737991Y-2558194D02*
G75*
G03X3737991Y-2228182I0J165006D01*
G01*
X3587877Y-2228182D02*
G75*
G03X3587877Y-2558194I0J-165006D01*
G01*
X2600960Y-9456039D02*
X2800985Y-9256014D01*
X2600960Y-9055989D01*
X2400935Y-9256014D01*
X2600960Y-9456039D01*
X2300986Y-9446039D02*
X2900934Y-9446039D01*
X2300986Y-9065989D02*
X2900934Y-9065989D01*
X2900934Y-9446039D02*
G75*
G03X2900934Y-9065989I0J190025D01*
G01*
X2300986Y-9065989D02*
G75*
G03X2300986Y-9446039I0J-190025D01*
G01*
X2600960Y-17354931D02*
X2800985Y-17154906D01*
X2600960Y-16954881D01*
X2400935Y-17154906D01*
X2600960Y-17354931D01*
X2300986Y-17344931D02*
X2900934Y-17344931D01*
X2300986Y-16964881D02*
X2900934Y-16964881D01*
X2900934Y-17344931D02*
G75*
G03X2900934Y-16964881I0J190025D01*
G01*
X2300986Y-16964881D02*
G75*
G03X2300986Y-17344931I0J-190025D01*
G01*
X4302760Y-11320145D02*
X4502785Y-11120120D01*
X4302760Y-10920095D01*
X4102735Y-11120120D01*
X4302760Y-11320145D01*
X4112735Y-10920095D02*
X4112735Y-11320145D01*
X4492785Y-10920095D02*
X4492785Y-11320145D01*
X4112735Y-11320145D02*
G75*
G03X4492785Y-11320145I190025J0D01*
G01*
X4492785Y-10920095D02*
G75*
G03X4112735Y-10920095I-190025J0D01*
G01*
X4302760Y-15770225D02*
X4502785Y-15570200D01*
X4302760Y-15370175D01*
X4102735Y-15570200D01*
X4302760Y-15770225D01*
X4112735Y-15370175D02*
X4112735Y-15770225D01*
X4492785Y-15370175D02*
X4492785Y-15770225D01*
X4112735Y-15770225D02*
G75*
G03X4492785Y-15770225I190025J0D01*
G01*
X4492785Y-15370175D02*
G75*
G03X4112735Y-15370175I-190025J0D01*
G01*
X13812520Y-11320145D02*
X14012545Y-11120120D01*
X13812520Y-10920095D01*
X13612495Y-11120120D01*
X13812520Y-11320145D01*
X13622495Y-10920095D02*
X13622495Y-11320145D01*
X14002545Y-10920095D02*
X14002545Y-11320145D01*
X13622495Y-11320145D02*
G75*
G03X14002545Y-11320145I190025J0D01*
G01*
X14002545Y-10920095D02*
G75*
G03X13622495Y-10920095I-190025J0D01*
G01*
X13822680Y-15770225D02*
X14022705Y-15570200D01*
X13822680Y-15370175D01*
X13622655Y-15570200D01*
X13822680Y-15770225D01*
X13632655Y-15370175D02*
X13632655Y-15770225D01*
X14012705Y-15370175D02*
X14012705Y-15770225D01*
X13632655Y-15770225D02*
G75*
G03X14012705Y-15770225I190025J0D01*
G01*
X14012705Y-15370175D02*
G75*
G03X13632655Y-15370175I-190025J0D01*
G01*
X15722600Y-9455785D02*
X15922625Y-9255760D01*
X15722600Y-9055735D01*
X15522575Y-9255760D01*
X15722600Y-9455785D01*
X15422626Y-9445785D02*
X16022574Y-9445785D01*
X15422626Y-9065735D02*
X16022574Y-9065735D01*
X16022574Y-9445785D02*
G75*
G03X16022574Y-9065735I0J190025D01*
G01*
X15422626Y-9065735D02*
G75*
G03X15422626Y-9445785I0J-190025D01*
G01*
X15722600Y-17355185D02*
X15922625Y-17155160D01*
X15722600Y-16955135D01*
X15522575Y-17155160D01*
X15722600Y-17355185D01*
X15422626Y-17345185D02*
X16022574Y-17345185D01*
X15422626Y-16965135D02*
X16022574Y-16965135D01*
X16022574Y-17345185D02*
G75*
G03X16022574Y-16965135I0J190025D01*
G01*
X15422626Y-16965135D02*
G75*
G03X15422626Y-17345185I0J-190025D01*
G01*
D13*
X2214275Y-18659734D02*
X2214275Y-18359734D01*
X2285703Y-18359734D01*
X2328560Y-18374020D01*
X2357132Y-18402592D01*
X2371417Y-18431163D01*
X2385703Y-18488306D01*
X2385703Y-18531163D01*
X2371417Y-18588306D01*
X2357132Y-18616877D01*
X2328560Y-18645449D01*
X2285703Y-18659734D01*
X2214275Y-18659734D01*
X2514275Y-18659734D02*
X2514275Y-18459734D01*
X2514275Y-18516877D02*
X2528560Y-18488306D01*
X2542846Y-18474020D01*
X2571417Y-18459734D01*
X2599989Y-18459734D01*
X2699989Y-18659734D02*
X2699989Y-18459734D01*
X2699989Y-18359734D02*
X2685703Y-18374020D01*
X2699989Y-18388306D01*
X2714275Y-18374020D01*
X2699989Y-18359734D01*
X2699989Y-18388306D01*
X2885703Y-18659734D02*
X2857132Y-18645449D01*
X2842846Y-18616877D01*
X2842846Y-18359734D01*
X3042846Y-18659734D02*
X3014274Y-18645449D01*
X2999989Y-18616877D01*
X2999989Y-18359734D01*
X3385703Y-18659734D02*
X3385703Y-18359734D01*
X3485703Y-18574020D01*
X3585703Y-18359734D01*
X3585703Y-18659734D01*
X3857132Y-18659734D02*
X3857132Y-18502592D01*
X3842846Y-18474020D01*
X3814274Y-18459734D01*
X3757132Y-18459734D01*
X3728560Y-18474020D01*
X3857132Y-18645449D02*
X3828560Y-18659734D01*
X3757132Y-18659734D01*
X3728560Y-18645449D01*
X3714274Y-18616877D01*
X3714274Y-18588306D01*
X3728560Y-18559734D01*
X3757132Y-18545449D01*
X3828560Y-18545449D01*
X3857132Y-18531163D01*
X3999989Y-18459734D02*
X3999989Y-18759734D01*
X3999989Y-18474020D02*
X4028560Y-18459734D01*
X4085703Y-18459734D01*
X4114274Y-18474020D01*
X4128560Y-18488306D01*
X4142846Y-18516877D01*
X4142846Y-18602592D01*
X4128560Y-18631163D01*
X4114274Y-18645449D01*
X4085703Y-18659734D01*
X4028560Y-18659734D01*
X3999989Y-18645449D01*
X4271417Y-18631163D02*
X4285703Y-18645449D01*
X4271417Y-18659734D01*
X4257132Y-18645449D01*
X4271417Y-18631163D01*
X4271417Y-18659734D01*
X4271417Y-18474020D02*
X4285703Y-18488306D01*
X4271417Y-18502592D01*
X4257132Y-18488306D01*
X4271417Y-18474020D01*
X4271417Y-18502592D01*
X1832864Y-19099029D02*
X1942846Y-19209011D01*
X1942846Y-19099029D02*
X1832864Y-19209011D01*
X2371417Y-19289734D02*
X2199989Y-19289734D01*
X2285703Y-19289734D02*
X2285703Y-18989734D01*
X2257132Y-19032592D01*
X2228560Y-19061163D01*
X2199989Y-19075449D01*
X2499989Y-19261163D02*
X2514275Y-19275449D01*
X2499989Y-19289734D01*
X2485703Y-19275449D01*
X2499989Y-19261163D01*
X2499989Y-19289734D01*
X2799989Y-19289734D02*
X2628560Y-19289734D01*
X2714274Y-19289734D02*
X2714274Y-18989734D01*
X2685703Y-19032592D01*
X2657132Y-19061163D01*
X2628560Y-19075449D01*
X2985703Y-18989734D02*
X3014274Y-18989734D01*
X3042846Y-19004020D01*
X3057132Y-19018306D01*
X3071417Y-19046877D01*
X3085703Y-19104020D01*
X3085703Y-19175449D01*
X3071417Y-19232592D01*
X3057132Y-19261163D01*
X3042846Y-19275449D01*
X3014274Y-19289734D01*
X2985703Y-19289734D01*
X2957132Y-19275449D01*
X2942846Y-19261163D01*
X2928560Y-19232592D01*
X2914274Y-19175449D01*
X2914274Y-19104020D01*
X2928560Y-19046877D01*
X2942846Y-19018306D01*
X2957132Y-19004020D01*
X2985703Y-18989734D01*
X3214274Y-19289734D02*
X3214274Y-19089734D01*
X3214274Y-19118306D02*
X3228560Y-19104020D01*
X3257132Y-19089734D01*
X3299989Y-19089734D01*
X3328560Y-19104020D01*
X3342846Y-19132592D01*
X3342846Y-19289734D01*
X3342846Y-19132592D02*
X3357132Y-19104020D01*
X3385703Y-19089734D01*
X3428560Y-19089734D01*
X3457132Y-19104020D01*
X3471417Y-19132592D01*
X3471417Y-19289734D01*
X3614274Y-19289734D02*
X3614274Y-19089734D01*
X3614274Y-19118306D02*
X3628560Y-19104020D01*
X3657132Y-19089734D01*
X3699989Y-19089734D01*
X3728560Y-19104020D01*
X3742846Y-19132592D01*
X3742846Y-19289734D01*
X3742846Y-19132592D02*
X3757132Y-19104020D01*
X3785703Y-19089734D01*
X3828560Y-19089734D01*
X3857132Y-19104020D01*
X3871417Y-19132592D01*
X3871417Y-19289734D01*
X4457132Y-18975449D02*
X4199989Y-19361163D01*
X4842846Y-18989734D02*
X4871417Y-18989734D01*
X4899989Y-19004020D01*
X4914274Y-19018306D01*
X4928560Y-19046877D01*
X4942846Y-19104020D01*
X4942846Y-19175449D01*
X4928560Y-19232592D01*
X4914274Y-19261163D01*
X4899989Y-19275449D01*
X4871417Y-19289734D01*
X4842846Y-19289734D01*
X4814274Y-19275449D01*
X4799989Y-19261163D01*
X4785703Y-19232592D01*
X4771417Y-19175449D01*
X4771417Y-19104020D01*
X4785703Y-19046877D01*
X4799989Y-19018306D01*
X4814274Y-19004020D01*
X4842846Y-18989734D01*
X5071417Y-19261163D02*
X5085703Y-19275449D01*
X5071417Y-19289734D01*
X5057132Y-19275449D01*
X5071417Y-19261163D01*
X5071417Y-19289734D01*
X5271417Y-18989734D02*
X5299989Y-18989734D01*
X5328560Y-19004020D01*
X5342846Y-19018306D01*
X5357132Y-19046877D01*
X5371417Y-19104020D01*
X5371417Y-19175449D01*
X5357132Y-19232592D01*
X5342846Y-19261163D01*
X5328560Y-19275449D01*
X5299989Y-19289734D01*
X5271417Y-19289734D01*
X5242846Y-19275449D01*
X5228560Y-19261163D01*
X5214274Y-19232592D01*
X5199989Y-19175449D01*
X5199989Y-19104020D01*
X5214274Y-19046877D01*
X5228560Y-19018306D01*
X5242846Y-19004020D01*
X5271417Y-18989734D01*
X5628560Y-19089734D02*
X5628560Y-19289734D01*
X5557132Y-18975449D02*
X5485703Y-19189734D01*
X5671417Y-19189734D01*
X5757131Y-18989734D02*
X5942846Y-18989734D01*
X5842846Y-19104020D01*
X5885703Y-19104020D01*
X5914274Y-19118306D01*
X5928560Y-19132592D01*
X5942846Y-19161163D01*
X5942846Y-19232592D01*
X5928560Y-19261163D01*
X5914274Y-19275449D01*
X5885703Y-19289734D01*
X5799989Y-19289734D01*
X5771417Y-19275449D01*
X5757131Y-19261163D01*
X6057132Y-18989734D02*
X6057132Y-19046877D01*
X6171417Y-18989734D02*
X6171417Y-19046877D01*
X6614274Y-19404020D02*
X6599989Y-19389734D01*
X6571417Y-19346877D01*
X6557131Y-19318306D01*
X6542846Y-19275449D01*
X6528560Y-19204020D01*
X6528560Y-19146877D01*
X6542846Y-19075449D01*
X6557131Y-19032592D01*
X6571417Y-19004020D01*
X6599989Y-18961163D01*
X6614274Y-18946877D01*
X6885703Y-19289734D02*
X6714274Y-19289734D01*
X6799989Y-19289734D02*
X6799989Y-18989734D01*
X6771417Y-19032592D01*
X6742846Y-19061163D01*
X6714274Y-19075449D01*
X7242846Y-19289734D02*
X7242846Y-18989734D01*
X7371417Y-19289734D02*
X7371417Y-19132592D01*
X7357131Y-19104020D01*
X7328560Y-19089734D01*
X7285703Y-19089734D01*
X7257131Y-19104020D01*
X7242846Y-19118306D01*
X7557131Y-19289734D02*
X7528560Y-19275449D01*
X7514274Y-19261163D01*
X7499989Y-19232592D01*
X7499989Y-19146877D01*
X7514274Y-19118306D01*
X7528560Y-19104020D01*
X7557131Y-19089734D01*
X7599989Y-19089734D01*
X7628560Y-19104020D01*
X7642846Y-19118306D01*
X7657131Y-19146877D01*
X7657131Y-19232592D01*
X7642846Y-19261163D01*
X7628560Y-19275449D01*
X7599989Y-19289734D01*
X7557131Y-19289734D01*
X7828560Y-19289734D02*
X7799989Y-19275449D01*
X7785703Y-19246877D01*
X7785703Y-18989734D01*
X8057132Y-19275449D02*
X8028560Y-19289734D01*
X7971417Y-19289734D01*
X7942846Y-19275449D01*
X7928560Y-19246877D01*
X7928560Y-19132592D01*
X7942846Y-19104020D01*
X7971417Y-19089734D01*
X8028560Y-19089734D01*
X8057132Y-19104020D01*
X8071417Y-19132592D01*
X8071417Y-19161163D01*
X7928560Y-19189734D01*
X8171417Y-19404020D02*
X8185703Y-19389734D01*
X8214274Y-19346877D01*
X8228560Y-19318306D01*
X8242846Y-19275449D01*
X8257132Y-19204020D01*
X8257132Y-19146877D01*
X8242846Y-19075449D01*
X8228560Y-19032592D01*
X8214274Y-19004020D01*
X8185703Y-18961163D01*
X8171417Y-18946877D01*
X8714275Y-19404020D02*
X8699989Y-19389734D01*
X8671417Y-19346877D01*
X8657132Y-19318306D01*
X8642846Y-19275449D01*
X8628560Y-19204020D01*
X8628560Y-19146877D01*
X8642846Y-19075449D01*
X8657132Y-19032592D01*
X8671417Y-19004020D01*
X8699989Y-18961163D01*
X8714275Y-18946877D01*
X8828560Y-19089734D02*
X8828560Y-19289734D01*
X8828560Y-19118306D02*
X8842846Y-19104020D01*
X8871417Y-19089734D01*
X8914275Y-19089734D01*
X8942846Y-19104020D01*
X8957132Y-19132592D01*
X8957132Y-19289734D01*
X9142846Y-19289734D02*
X9114275Y-19275449D01*
X9099989Y-19261163D01*
X9085703Y-19232592D01*
X9085703Y-19146877D01*
X9099989Y-19118306D01*
X9114275Y-19104020D01*
X9142846Y-19089734D01*
X9185703Y-19089734D01*
X9214275Y-19104020D01*
X9228560Y-19118306D01*
X9242846Y-19146877D01*
X9242846Y-19232592D01*
X9228560Y-19261163D01*
X9214275Y-19275449D01*
X9185703Y-19289734D01*
X9142846Y-19289734D01*
X9328560Y-19089734D02*
X9442846Y-19089734D01*
X9371417Y-18989734D02*
X9371417Y-19246877D01*
X9385703Y-19275449D01*
X9414275Y-19289734D01*
X9442846Y-19289734D01*
X9771417Y-19089734D02*
X9771417Y-19389734D01*
X9771417Y-19104020D02*
X9799989Y-19089734D01*
X9857132Y-19089734D01*
X9885703Y-19104020D01*
X9899989Y-19118306D01*
X9914275Y-19146877D01*
X9914275Y-19232592D01*
X9899989Y-19261163D01*
X9885703Y-19275449D01*
X9857132Y-19289734D01*
X9799989Y-19289734D01*
X9771417Y-19275449D01*
X10085703Y-19289734D02*
X10057132Y-19275449D01*
X10042846Y-19246877D01*
X10042846Y-18989734D01*
X10328560Y-19289734D02*
X10328560Y-19132592D01*
X10314275Y-19104020D01*
X10285703Y-19089734D01*
X10228560Y-19089734D01*
X10199989Y-19104020D01*
X10328560Y-19275449D02*
X10299989Y-19289734D01*
X10228560Y-19289734D01*
X10199989Y-19275449D01*
X10185703Y-19246877D01*
X10185703Y-19218306D01*
X10199989Y-19189734D01*
X10228560Y-19175449D01*
X10299989Y-19175449D01*
X10328560Y-19161163D01*
X10428560Y-19089734D02*
X10542846Y-19089734D01*
X10471418Y-18989734D02*
X10471418Y-19246877D01*
X10485703Y-19275449D01*
X10514275Y-19289734D01*
X10542846Y-19289734D01*
X10757132Y-19275449D02*
X10728560Y-19289734D01*
X10671418Y-19289734D01*
X10642846Y-19275449D01*
X10628560Y-19246877D01*
X10628560Y-19132592D01*
X10642846Y-19104020D01*
X10671418Y-19089734D01*
X10728560Y-19089734D01*
X10757132Y-19104020D01*
X10771418Y-19132592D01*
X10771418Y-19161163D01*
X10628560Y-19189734D01*
X11028560Y-19289734D02*
X11028560Y-18989734D01*
X11028560Y-19275449D02*
X10999989Y-19289734D01*
X10942846Y-19289734D01*
X10914275Y-19275449D01*
X10899989Y-19261163D01*
X10885703Y-19232592D01*
X10885703Y-19146877D01*
X10899989Y-19118306D01*
X10914275Y-19104020D01*
X10942846Y-19089734D01*
X10999989Y-19089734D01*
X11028560Y-19104020D01*
X11142846Y-19404020D02*
X11157132Y-19389734D01*
X11185703Y-19346877D01*
X11199989Y-19318306D01*
X11214275Y-19275449D01*
X11228560Y-19204020D01*
X11228560Y-19146877D01*
X11214275Y-19075449D01*
X11199989Y-19032592D01*
X11185703Y-19004020D01*
X11157132Y-18961163D01*
X11142846Y-18946877D01*
X1942846Y-19550020D02*
G75*
G03X1942846Y-19550020I-80010J0D01*
G01*
X2371417Y-19685734D02*
X2199989Y-19685734D01*
X2285703Y-19685734D02*
X2285703Y-19385734D01*
X2257132Y-19428592D01*
X2228560Y-19457163D01*
X2199989Y-19471449D01*
X2499989Y-19657163D02*
X2514275Y-19671449D01*
X2499989Y-19685734D01*
X2485703Y-19671449D01*
X2499989Y-19657163D01*
X2499989Y-19685734D01*
X2771417Y-19385734D02*
X2714274Y-19385734D01*
X2685703Y-19400020D01*
X2671417Y-19414306D01*
X2642846Y-19457163D01*
X2628560Y-19514306D01*
X2628560Y-19628592D01*
X2642846Y-19657163D01*
X2657132Y-19671449D01*
X2685703Y-19685734D01*
X2742846Y-19685734D01*
X2771417Y-19671449D01*
X2785703Y-19657163D01*
X2799989Y-19628592D01*
X2799989Y-19557163D01*
X2785703Y-19528592D01*
X2771417Y-19514306D01*
X2742846Y-19500020D01*
X2685703Y-19500020D01*
X2657132Y-19514306D01*
X2642846Y-19528592D01*
X2628560Y-19557163D01*
X2985703Y-19385734D02*
X3014274Y-19385734D01*
X3042846Y-19400020D01*
X3057132Y-19414306D01*
X3071417Y-19442877D01*
X3085703Y-19500020D01*
X3085703Y-19571449D01*
X3071417Y-19628592D01*
X3057132Y-19657163D01*
X3042846Y-19671449D01*
X3014274Y-19685734D01*
X2985703Y-19685734D01*
X2957132Y-19671449D01*
X2942846Y-19657163D01*
X2928560Y-19628592D01*
X2914274Y-19571449D01*
X2914274Y-19500020D01*
X2928560Y-19442877D01*
X2942846Y-19414306D01*
X2957132Y-19400020D01*
X2985703Y-19385734D01*
X3214274Y-19685734D02*
X3214274Y-19485734D01*
X3214274Y-19514306D02*
X3228560Y-19500020D01*
X3257132Y-19485734D01*
X3299989Y-19485734D01*
X3328560Y-19500020D01*
X3342846Y-19528592D01*
X3342846Y-19685734D01*
X3342846Y-19528592D02*
X3357132Y-19500020D01*
X3385703Y-19485734D01*
X3428560Y-19485734D01*
X3457132Y-19500020D01*
X3471417Y-19528592D01*
X3471417Y-19685734D01*
X3614274Y-19685734D02*
X3614274Y-19485734D01*
X3614274Y-19514306D02*
X3628560Y-19500020D01*
X3657132Y-19485734D01*
X3699989Y-19485734D01*
X3728560Y-19500020D01*
X3742846Y-19528592D01*
X3742846Y-19685734D01*
X3742846Y-19528592D02*
X3757132Y-19500020D01*
X3785703Y-19485734D01*
X3828560Y-19485734D01*
X3857132Y-19500020D01*
X3871417Y-19528592D01*
X3871417Y-19685734D01*
X4457132Y-19371449D02*
X4199989Y-19757163D01*
X4842846Y-19385734D02*
X4871417Y-19385734D01*
X4899989Y-19400020D01*
X4914274Y-19414306D01*
X4928560Y-19442877D01*
X4942846Y-19500020D01*
X4942846Y-19571449D01*
X4928560Y-19628592D01*
X4914274Y-19657163D01*
X4899989Y-19671449D01*
X4871417Y-19685734D01*
X4842846Y-19685734D01*
X4814274Y-19671449D01*
X4799989Y-19657163D01*
X4785703Y-19628592D01*
X4771417Y-19571449D01*
X4771417Y-19500020D01*
X4785703Y-19442877D01*
X4799989Y-19414306D01*
X4814274Y-19400020D01*
X4842846Y-19385734D01*
X5071417Y-19657163D02*
X5085703Y-19671449D01*
X5071417Y-19685734D01*
X5057132Y-19671449D01*
X5071417Y-19657163D01*
X5071417Y-19685734D01*
X5271417Y-19385734D02*
X5299989Y-19385734D01*
X5328560Y-19400020D01*
X5342846Y-19414306D01*
X5357132Y-19442877D01*
X5371417Y-19500020D01*
X5371417Y-19571449D01*
X5357132Y-19628592D01*
X5342846Y-19657163D01*
X5328560Y-19671449D01*
X5299989Y-19685734D01*
X5271417Y-19685734D01*
X5242846Y-19671449D01*
X5228560Y-19657163D01*
X5214274Y-19628592D01*
X5199989Y-19571449D01*
X5199989Y-19500020D01*
X5214274Y-19442877D01*
X5228560Y-19414306D01*
X5242846Y-19400020D01*
X5271417Y-19385734D01*
X5628560Y-19385734D02*
X5571417Y-19385734D01*
X5542846Y-19400020D01*
X5528560Y-19414306D01*
X5499989Y-19457163D01*
X5485703Y-19514306D01*
X5485703Y-19628592D01*
X5499989Y-19657163D01*
X5514274Y-19671449D01*
X5542846Y-19685734D01*
X5599989Y-19685734D01*
X5628560Y-19671449D01*
X5642846Y-19657163D01*
X5657131Y-19628592D01*
X5657131Y-19557163D01*
X5642846Y-19528592D01*
X5628560Y-19514306D01*
X5599989Y-19500020D01*
X5542846Y-19500020D01*
X5514274Y-19514306D01*
X5499989Y-19528592D01*
X5485703Y-19557163D01*
X5757131Y-19385734D02*
X5942846Y-19385734D01*
X5842846Y-19500020D01*
X5885703Y-19500020D01*
X5914274Y-19514306D01*
X5928560Y-19528592D01*
X5942846Y-19557163D01*
X5942846Y-19628592D01*
X5928560Y-19657163D01*
X5914274Y-19671449D01*
X5885703Y-19685734D01*
X5799989Y-19685734D01*
X5771417Y-19671449D01*
X5757131Y-19657163D01*
X6057132Y-19385734D02*
X6057132Y-19442877D01*
X6171417Y-19385734D02*
X6171417Y-19442877D01*
X6614274Y-19800020D02*
X6599989Y-19785734D01*
X6571417Y-19742877D01*
X6557131Y-19714306D01*
X6542846Y-19671449D01*
X6528560Y-19600020D01*
X6528560Y-19542877D01*
X6542846Y-19471449D01*
X6557131Y-19428592D01*
X6571417Y-19400020D01*
X6599989Y-19357163D01*
X6614274Y-19342877D01*
X6885703Y-19685734D02*
X6714274Y-19685734D01*
X6799989Y-19685734D02*
X6799989Y-19385734D01*
X6771417Y-19428592D01*
X6742846Y-19457163D01*
X6714274Y-19471449D01*
X7242846Y-19685734D02*
X7242846Y-19385734D01*
X7371417Y-19685734D02*
X7371417Y-19528592D01*
X7357131Y-19500020D01*
X7328560Y-19485734D01*
X7285703Y-19485734D01*
X7257131Y-19500020D01*
X7242846Y-19514306D01*
X7557131Y-19685734D02*
X7528560Y-19671449D01*
X7514274Y-19657163D01*
X7499989Y-19628592D01*
X7499989Y-19542877D01*
X7514274Y-19514306D01*
X7528560Y-19500020D01*
X7557131Y-19485734D01*
X7599989Y-19485734D01*
X7628560Y-19500020D01*
X7642846Y-19514306D01*
X7657131Y-19542877D01*
X7657131Y-19628592D01*
X7642846Y-19657163D01*
X7628560Y-19671449D01*
X7599989Y-19685734D01*
X7557131Y-19685734D01*
X7828560Y-19685734D02*
X7799989Y-19671449D01*
X7785703Y-19642877D01*
X7785703Y-19385734D01*
X8057132Y-19671449D02*
X8028560Y-19685734D01*
X7971417Y-19685734D01*
X7942846Y-19671449D01*
X7928560Y-19642877D01*
X7928560Y-19528592D01*
X7942846Y-19500020D01*
X7971417Y-19485734D01*
X8028560Y-19485734D01*
X8057132Y-19500020D01*
X8071417Y-19528592D01*
X8071417Y-19557163D01*
X7928560Y-19585734D01*
X8171417Y-19800020D02*
X8185703Y-19785734D01*
X8214274Y-19742877D01*
X8228560Y-19714306D01*
X8242846Y-19671449D01*
X8257132Y-19600020D01*
X8257132Y-19542877D01*
X8242846Y-19471449D01*
X8228560Y-19428592D01*
X8214274Y-19400020D01*
X8185703Y-19357163D01*
X8171417Y-19342877D01*
X8714275Y-19800020D02*
X8699989Y-19785734D01*
X8671417Y-19742877D01*
X8657132Y-19714306D01*
X8642846Y-19671449D01*
X8628560Y-19600020D01*
X8628560Y-19542877D01*
X8642846Y-19471449D01*
X8657132Y-19428592D01*
X8671417Y-19400020D01*
X8699989Y-19357163D01*
X8714275Y-19342877D01*
X8828560Y-19485734D02*
X8828560Y-19685734D01*
X8828560Y-19514306D02*
X8842846Y-19500020D01*
X8871417Y-19485734D01*
X8914275Y-19485734D01*
X8942846Y-19500020D01*
X8957132Y-19528592D01*
X8957132Y-19685734D01*
X9142846Y-19685734D02*
X9114275Y-19671449D01*
X9099989Y-19657163D01*
X9085703Y-19628592D01*
X9085703Y-19542877D01*
X9099989Y-19514306D01*
X9114275Y-19500020D01*
X9142846Y-19485734D01*
X9185703Y-19485734D01*
X9214275Y-19500020D01*
X9228560Y-19514306D01*
X9242846Y-19542877D01*
X9242846Y-19628592D01*
X9228560Y-19657163D01*
X9214275Y-19671449D01*
X9185703Y-19685734D01*
X9142846Y-19685734D01*
X9328560Y-19485734D02*
X9442846Y-19485734D01*
X9371417Y-19385734D02*
X9371417Y-19642877D01*
X9385703Y-19671449D01*
X9414275Y-19685734D01*
X9442846Y-19685734D01*
X9771417Y-19485734D02*
X9771417Y-19785734D01*
X9771417Y-19500020D02*
X9799989Y-19485734D01*
X9857132Y-19485734D01*
X9885703Y-19500020D01*
X9899989Y-19514306D01*
X9914275Y-19542877D01*
X9914275Y-19628592D01*
X9899989Y-19657163D01*
X9885703Y-19671449D01*
X9857132Y-19685734D01*
X9799989Y-19685734D01*
X9771417Y-19671449D01*
X10085703Y-19685734D02*
X10057132Y-19671449D01*
X10042846Y-19642877D01*
X10042846Y-19385734D01*
X10328560Y-19685734D02*
X10328560Y-19528592D01*
X10314275Y-19500020D01*
X10285703Y-19485734D01*
X10228560Y-19485734D01*
X10199989Y-19500020D01*
X10328560Y-19671449D02*
X10299989Y-19685734D01*
X10228560Y-19685734D01*
X10199989Y-19671449D01*
X10185703Y-19642877D01*
X10185703Y-19614306D01*
X10199989Y-19585734D01*
X10228560Y-19571449D01*
X10299989Y-19571449D01*
X10328560Y-19557163D01*
X10428560Y-19485734D02*
X10542846Y-19485734D01*
X10471418Y-19385734D02*
X10471418Y-19642877D01*
X10485703Y-19671449D01*
X10514275Y-19685734D01*
X10542846Y-19685734D01*
X10757132Y-19671449D02*
X10728560Y-19685734D01*
X10671418Y-19685734D01*
X10642846Y-19671449D01*
X10628560Y-19642877D01*
X10628560Y-19528592D01*
X10642846Y-19500020D01*
X10671418Y-19485734D01*
X10728560Y-19485734D01*
X10757132Y-19500020D01*
X10771418Y-19528592D01*
X10771418Y-19557163D01*
X10628560Y-19585734D01*
X11028560Y-19685734D02*
X11028560Y-19385734D01*
X11028560Y-19671449D02*
X10999989Y-19685734D01*
X10942846Y-19685734D01*
X10914275Y-19671449D01*
X10899989Y-19657163D01*
X10885703Y-19628592D01*
X10885703Y-19542877D01*
X10899989Y-19514306D01*
X10914275Y-19500020D01*
X10942846Y-19485734D01*
X10999989Y-19485734D01*
X11028560Y-19500020D01*
X11142846Y-19800020D02*
X11157132Y-19785734D01*
X11185703Y-19742877D01*
X11199989Y-19714306D01*
X11214275Y-19671449D01*
X11228560Y-19600020D01*
X11228560Y-19542877D01*
X11214275Y-19471449D01*
X11199989Y-19428592D01*
X11185703Y-19400020D01*
X11157132Y-19357163D01*
X11142846Y-19342877D01*
X1827784Y-19830958D02*
X1827784Y-20061082D01*
X1712722Y-19946020D02*
X1942846Y-19946020D01*
X2199989Y-19810306D02*
X2214275Y-19796020D01*
X2242846Y-19781734D01*
X2314275Y-19781734D01*
X2342846Y-19796020D01*
X2357132Y-19810306D01*
X2371417Y-19838877D01*
X2371417Y-19867449D01*
X2357132Y-19910306D01*
X2185703Y-20081734D01*
X2371417Y-20081734D01*
X2499989Y-20053163D02*
X2514275Y-20067449D01*
X2499989Y-20081734D01*
X2485703Y-20067449D01*
X2499989Y-20053163D01*
X2499989Y-20081734D01*
X2614274Y-19781734D02*
X2799989Y-19781734D01*
X2699989Y-19896020D01*
X2742846Y-19896020D01*
X2771417Y-19910306D01*
X2785703Y-19924592D01*
X2799989Y-19953163D01*
X2799989Y-20024592D01*
X2785703Y-20053163D01*
X2771417Y-20067449D01*
X2742846Y-20081734D01*
X2657132Y-20081734D01*
X2628560Y-20067449D01*
X2614274Y-20053163D01*
X2985703Y-19781734D02*
X3014274Y-19781734D01*
X3042846Y-19796020D01*
X3057132Y-19810306D01*
X3071417Y-19838877D01*
X3085703Y-19896020D01*
X3085703Y-19967449D01*
X3071417Y-20024592D01*
X3057132Y-20053163D01*
X3042846Y-20067449D01*
X3014274Y-20081734D01*
X2985703Y-20081734D01*
X2957132Y-20067449D01*
X2942846Y-20053163D01*
X2928560Y-20024592D01*
X2914274Y-19967449D01*
X2914274Y-19896020D01*
X2928560Y-19838877D01*
X2942846Y-19810306D01*
X2957132Y-19796020D01*
X2985703Y-19781734D01*
X3214274Y-20081734D02*
X3214274Y-19881734D01*
X3214274Y-19910306D02*
X3228560Y-19896020D01*
X3257132Y-19881734D01*
X3299989Y-19881734D01*
X3328560Y-19896020D01*
X3342846Y-19924592D01*
X3342846Y-20081734D01*
X3342846Y-19924592D02*
X3357132Y-19896020D01*
X3385703Y-19881734D01*
X3428560Y-19881734D01*
X3457132Y-19896020D01*
X3471417Y-19924592D01*
X3471417Y-20081734D01*
X3614274Y-20081734D02*
X3614274Y-19881734D01*
X3614274Y-19910306D02*
X3628560Y-19896020D01*
X3657132Y-19881734D01*
X3699989Y-19881734D01*
X3728560Y-19896020D01*
X3742846Y-19924592D01*
X3742846Y-20081734D01*
X3742846Y-19924592D02*
X3757132Y-19896020D01*
X3785703Y-19881734D01*
X3828560Y-19881734D01*
X3857132Y-19896020D01*
X3871417Y-19924592D01*
X3871417Y-20081734D01*
X4457132Y-19767449D02*
X4199989Y-20153163D01*
X4842846Y-19781734D02*
X4871417Y-19781734D01*
X4899989Y-19796020D01*
X4914274Y-19810306D01*
X4928560Y-19838877D01*
X4942846Y-19896020D01*
X4942846Y-19967449D01*
X4928560Y-20024592D01*
X4914274Y-20053163D01*
X4899989Y-20067449D01*
X4871417Y-20081734D01*
X4842846Y-20081734D01*
X4814274Y-20067449D01*
X4799989Y-20053163D01*
X4785703Y-20024592D01*
X4771417Y-19967449D01*
X4771417Y-19896020D01*
X4785703Y-19838877D01*
X4799989Y-19810306D01*
X4814274Y-19796020D01*
X4842846Y-19781734D01*
X5071417Y-20053163D02*
X5085703Y-20067449D01*
X5071417Y-20081734D01*
X5057132Y-20067449D01*
X5071417Y-20053163D01*
X5071417Y-20081734D01*
X5271417Y-19781734D02*
X5299989Y-19781734D01*
X5328560Y-19796020D01*
X5342846Y-19810306D01*
X5357132Y-19838877D01*
X5371417Y-19896020D01*
X5371417Y-19967449D01*
X5357132Y-20024592D01*
X5342846Y-20053163D01*
X5328560Y-20067449D01*
X5299989Y-20081734D01*
X5271417Y-20081734D01*
X5242846Y-20067449D01*
X5228560Y-20053163D01*
X5214274Y-20024592D01*
X5199989Y-19967449D01*
X5199989Y-19896020D01*
X5214274Y-19838877D01*
X5228560Y-19810306D01*
X5242846Y-19796020D01*
X5271417Y-19781734D01*
X5514274Y-20081734D02*
X5571417Y-20081734D01*
X5599989Y-20067449D01*
X5614274Y-20053163D01*
X5642846Y-20010306D01*
X5657131Y-19953163D01*
X5657131Y-19838877D01*
X5642846Y-19810306D01*
X5628560Y-19796020D01*
X5599989Y-19781734D01*
X5542846Y-19781734D01*
X5514274Y-19796020D01*
X5499989Y-19810306D01*
X5485703Y-19838877D01*
X5485703Y-19910306D01*
X5499989Y-19938877D01*
X5514274Y-19953163D01*
X5542846Y-19967449D01*
X5599989Y-19967449D01*
X5628560Y-19953163D01*
X5642846Y-19938877D01*
X5657131Y-19910306D01*
X5942846Y-20081734D02*
X5771417Y-20081734D01*
X5857131Y-20081734D02*
X5857131Y-19781734D01*
X5828560Y-19824592D01*
X5799989Y-19853163D01*
X5771417Y-19867449D01*
X6057132Y-19781734D02*
X6057132Y-19838877D01*
X6171417Y-19781734D02*
X6171417Y-19838877D01*
X6614274Y-20196020D02*
X6599989Y-20181734D01*
X6571417Y-20138877D01*
X6557131Y-20110306D01*
X6542846Y-20067449D01*
X6528560Y-19996020D01*
X6528560Y-19938877D01*
X6542846Y-19867449D01*
X6557131Y-19824592D01*
X6571417Y-19796020D01*
X6599989Y-19753163D01*
X6614274Y-19738877D01*
X6714274Y-19810306D02*
X6728560Y-19796020D01*
X6757131Y-19781734D01*
X6828560Y-19781734D01*
X6857131Y-19796020D01*
X6871417Y-19810306D01*
X6885703Y-19838877D01*
X6885703Y-19867449D01*
X6871417Y-19910306D01*
X6699989Y-20081734D01*
X6885703Y-20081734D01*
X7242846Y-20081734D02*
X7242846Y-19781734D01*
X7371417Y-20081734D02*
X7371417Y-19924592D01*
X7357131Y-19896020D01*
X7328560Y-19881734D01*
X7285703Y-19881734D01*
X7257131Y-19896020D01*
X7242846Y-19910306D01*
X7557131Y-20081734D02*
X7528560Y-20067449D01*
X7514274Y-20053163D01*
X7499989Y-20024592D01*
X7499989Y-19938877D01*
X7514274Y-19910306D01*
X7528560Y-19896020D01*
X7557131Y-19881734D01*
X7599989Y-19881734D01*
X7628560Y-19896020D01*
X7642846Y-19910306D01*
X7657131Y-19938877D01*
X7657131Y-20024592D01*
X7642846Y-20053163D01*
X7628560Y-20067449D01*
X7599989Y-20081734D01*
X7557131Y-20081734D01*
X7828560Y-20081734D02*
X7799989Y-20067449D01*
X7785703Y-20038877D01*
X7785703Y-19781734D01*
X8057132Y-20067449D02*
X8028560Y-20081734D01*
X7971417Y-20081734D01*
X7942846Y-20067449D01*
X7928560Y-20038877D01*
X7928560Y-19924592D01*
X7942846Y-19896020D01*
X7971417Y-19881734D01*
X8028560Y-19881734D01*
X8057132Y-19896020D01*
X8071417Y-19924592D01*
X8071417Y-19953163D01*
X7928560Y-19981734D01*
X8185703Y-20067449D02*
X8214274Y-20081734D01*
X8271417Y-20081734D01*
X8299989Y-20067449D01*
X8314274Y-20038877D01*
X8314274Y-20024592D01*
X8299989Y-19996020D01*
X8271417Y-19981734D01*
X8228560Y-19981734D01*
X8199989Y-19967449D01*
X8185703Y-19938877D01*
X8185703Y-19924592D01*
X8199989Y-19896020D01*
X8228560Y-19881734D01*
X8271417Y-19881734D01*
X8299989Y-19896020D01*
X8414274Y-20196020D02*
X8428560Y-20181734D01*
X8457132Y-20138877D01*
X8471417Y-20110306D01*
X8485703Y-20067449D01*
X8499989Y-19996020D01*
X8499989Y-19938877D01*
X8485703Y-19867449D01*
X8471417Y-19824592D01*
X8457132Y-19796020D01*
X8428560Y-19753163D01*
X8414274Y-19738877D01*
X8957132Y-20196020D02*
X8942846Y-20181734D01*
X8914274Y-20138877D01*
X8899989Y-20110306D01*
X8885703Y-20067449D01*
X8871417Y-19996020D01*
X8871417Y-19938877D01*
X8885703Y-19867449D01*
X8899989Y-19824592D01*
X8914274Y-19796020D01*
X8942846Y-19753163D01*
X8957132Y-19738877D01*
X9071417Y-19881734D02*
X9071417Y-20081734D01*
X9071417Y-19910306D02*
X9085703Y-19896020D01*
X9114274Y-19881734D01*
X9157132Y-19881734D01*
X9185703Y-19896020D01*
X9199989Y-19924592D01*
X9199989Y-20081734D01*
X9385703Y-20081734D02*
X9357132Y-20067449D01*
X9342846Y-20053163D01*
X9328560Y-20024592D01*
X9328560Y-19938877D01*
X9342846Y-19910306D01*
X9357132Y-19896020D01*
X9385703Y-19881734D01*
X9428560Y-19881734D01*
X9457132Y-19896020D01*
X9471417Y-19910306D01*
X9485703Y-19938877D01*
X9485703Y-20024592D01*
X9471417Y-20053163D01*
X9457132Y-20067449D01*
X9428560Y-20081734D01*
X9385703Y-20081734D01*
X9571417Y-19881734D02*
X9685703Y-19881734D01*
X9614275Y-19781734D02*
X9614275Y-20038877D01*
X9628560Y-20067449D01*
X9657132Y-20081734D01*
X9685703Y-20081734D01*
X10014275Y-19881734D02*
X10014275Y-20181734D01*
X10014275Y-19896020D02*
X10042846Y-19881734D01*
X10099989Y-19881734D01*
X10128560Y-19896020D01*
X10142846Y-19910306D01*
X10157132Y-19938877D01*
X10157132Y-20024592D01*
X10142846Y-20053163D01*
X10128560Y-20067449D01*
X10099989Y-20081734D01*
X10042846Y-20081734D01*
X10014275Y-20067449D01*
X10328560Y-20081734D02*
X10299989Y-20067449D01*
X10285703Y-20038877D01*
X10285703Y-19781734D01*
X10571417Y-20081734D02*
X10571417Y-19924592D01*
X10557132Y-19896020D01*
X10528560Y-19881734D01*
X10471417Y-19881734D01*
X10442846Y-19896020D01*
X10571417Y-20067449D02*
X10542846Y-20081734D01*
X10471417Y-20081734D01*
X10442846Y-20067449D01*
X10428560Y-20038877D01*
X10428560Y-20010306D01*
X10442846Y-19981734D01*
X10471417Y-19967449D01*
X10542846Y-19967449D01*
X10571417Y-19953163D01*
X10671417Y-19881734D02*
X10785703Y-19881734D01*
X10714275Y-19781734D02*
X10714275Y-20038877D01*
X10728560Y-20067449D01*
X10757132Y-20081734D01*
X10785703Y-20081734D01*
X10999989Y-20067449D02*
X10971418Y-20081734D01*
X10914275Y-20081734D01*
X10885703Y-20067449D01*
X10871418Y-20038877D01*
X10871418Y-19924592D01*
X10885703Y-19896020D01*
X10914275Y-19881734D01*
X10971418Y-19881734D01*
X10999989Y-19896020D01*
X11014275Y-19924592D01*
X11014275Y-19953163D01*
X10871418Y-19981734D01*
X11271417Y-20081734D02*
X11271417Y-19781734D01*
X11271417Y-20067449D02*
X11242846Y-20081734D01*
X11185703Y-20081734D01*
X11157132Y-20067449D01*
X11142846Y-20053163D01*
X11128560Y-20024592D01*
X11128560Y-19938877D01*
X11142846Y-19910306D01*
X11157132Y-19896020D01*
X11185703Y-19881734D01*
X11242846Y-19881734D01*
X11271417Y-19896020D01*
X11385703Y-20196020D02*
X11399989Y-20181734D01*
X11428560Y-20138877D01*
X11442846Y-20110306D01*
X11457132Y-20067449D01*
X11471417Y-19996020D01*
X11471417Y-19938877D01*
X11457132Y-19867449D01*
X11442846Y-19824592D01*
X11428560Y-19796020D01*
X11399989Y-19753163D01*
X11385703Y-19738877D01*
X1891589Y-20465769D02*
X1891589Y-20218271D01*
X1644091Y-20218271D01*
X1644091Y-20465769D01*
X1891589Y-20465769D01*
X2185703Y-20177734D02*
X2371417Y-20177734D01*
X2271417Y-20292020D01*
X2314275Y-20292020D01*
X2342846Y-20306306D01*
X2357132Y-20320592D01*
X2371417Y-20349163D01*
X2371417Y-20420592D01*
X2357132Y-20449163D01*
X2342846Y-20463449D01*
X2314275Y-20477734D01*
X2228560Y-20477734D01*
X2199989Y-20463449D01*
X2185703Y-20449163D01*
X2499989Y-20449163D02*
X2514275Y-20463449D01*
X2499989Y-20477734D01*
X2485703Y-20463449D01*
X2499989Y-20449163D01*
X2499989Y-20477734D01*
X2785703Y-20177734D02*
X2642846Y-20177734D01*
X2628560Y-20320592D01*
X2642846Y-20306306D01*
X2671417Y-20292020D01*
X2742846Y-20292020D01*
X2771417Y-20306306D01*
X2785703Y-20320592D01*
X2799989Y-20349163D01*
X2799989Y-20420592D01*
X2785703Y-20449163D01*
X2771417Y-20463449D01*
X2742846Y-20477734D01*
X2671417Y-20477734D01*
X2642846Y-20463449D01*
X2628560Y-20449163D01*
X2985703Y-20177734D02*
X3014274Y-20177734D01*
X3042846Y-20192020D01*
X3057132Y-20206306D01*
X3071417Y-20234877D01*
X3085703Y-20292020D01*
X3085703Y-20363449D01*
X3071417Y-20420592D01*
X3057132Y-20449163D01*
X3042846Y-20463449D01*
X3014274Y-20477734D01*
X2985703Y-20477734D01*
X2957132Y-20463449D01*
X2942846Y-20449163D01*
X2928560Y-20420592D01*
X2914274Y-20363449D01*
X2914274Y-20292020D01*
X2928560Y-20234877D01*
X2942846Y-20206306D01*
X2957132Y-20192020D01*
X2985703Y-20177734D01*
X3214274Y-20477734D02*
X3214274Y-20277734D01*
X3214274Y-20306306D02*
X3228560Y-20292020D01*
X3257132Y-20277734D01*
X3299989Y-20277734D01*
X3328560Y-20292020D01*
X3342846Y-20320592D01*
X3342846Y-20477734D01*
X3342846Y-20320592D02*
X3357132Y-20292020D01*
X3385703Y-20277734D01*
X3428560Y-20277734D01*
X3457132Y-20292020D01*
X3471417Y-20320592D01*
X3471417Y-20477734D01*
X3614274Y-20477734D02*
X3614274Y-20277734D01*
X3614274Y-20306306D02*
X3628560Y-20292020D01*
X3657132Y-20277734D01*
X3699989Y-20277734D01*
X3728560Y-20292020D01*
X3742846Y-20320592D01*
X3742846Y-20477734D01*
X3742846Y-20320592D02*
X3757132Y-20292020D01*
X3785703Y-20277734D01*
X3828560Y-20277734D01*
X3857132Y-20292020D01*
X3871417Y-20320592D01*
X3871417Y-20477734D01*
X4457132Y-20163449D02*
X4199989Y-20549163D01*
X4842846Y-20177734D02*
X4871417Y-20177734D01*
X4899989Y-20192020D01*
X4914274Y-20206306D01*
X4928560Y-20234877D01*
X4942846Y-20292020D01*
X4942846Y-20363449D01*
X4928560Y-20420592D01*
X4914274Y-20449163D01*
X4899989Y-20463449D01*
X4871417Y-20477734D01*
X4842846Y-20477734D01*
X4814274Y-20463449D01*
X4799989Y-20449163D01*
X4785703Y-20420592D01*
X4771417Y-20363449D01*
X4771417Y-20292020D01*
X4785703Y-20234877D01*
X4799989Y-20206306D01*
X4814274Y-20192020D01*
X4842846Y-20177734D01*
X5071417Y-20449163D02*
X5085703Y-20463449D01*
X5071417Y-20477734D01*
X5057132Y-20463449D01*
X5071417Y-20449163D01*
X5071417Y-20477734D01*
X5371417Y-20477734D02*
X5199989Y-20477734D01*
X5285703Y-20477734D02*
X5285703Y-20177734D01*
X5257132Y-20220592D01*
X5228560Y-20249163D01*
X5199989Y-20263449D01*
X5471417Y-20177734D02*
X5657131Y-20177734D01*
X5557132Y-20292020D01*
X5599989Y-20292020D01*
X5628560Y-20306306D01*
X5642846Y-20320592D01*
X5657131Y-20349163D01*
X5657131Y-20420592D01*
X5642846Y-20449163D01*
X5628560Y-20463449D01*
X5599989Y-20477734D01*
X5514274Y-20477734D01*
X5485703Y-20463449D01*
X5471417Y-20449163D01*
X5828560Y-20306306D02*
X5799989Y-20292020D01*
X5785703Y-20277734D01*
X5771417Y-20249163D01*
X5771417Y-20234877D01*
X5785703Y-20206306D01*
X5799989Y-20192020D01*
X5828560Y-20177734D01*
X5885703Y-20177734D01*
X5914274Y-20192020D01*
X5928560Y-20206306D01*
X5942846Y-20234877D01*
X5942846Y-20249163D01*
X5928560Y-20277734D01*
X5914274Y-20292020D01*
X5885703Y-20306306D01*
X5828560Y-20306306D01*
X5799989Y-20320592D01*
X5785703Y-20334877D01*
X5771417Y-20363449D01*
X5771417Y-20420592D01*
X5785703Y-20449163D01*
X5799989Y-20463449D01*
X5828560Y-20477734D01*
X5885703Y-20477734D01*
X5914274Y-20463449D01*
X5928560Y-20449163D01*
X5942846Y-20420592D01*
X5942846Y-20363449D01*
X5928560Y-20334877D01*
X5914274Y-20320592D01*
X5885703Y-20306306D01*
X6057132Y-20177734D02*
X6057132Y-20234877D01*
X6171417Y-20177734D02*
X6171417Y-20234877D01*
X6614274Y-20592020D02*
X6599989Y-20577734D01*
X6571417Y-20534877D01*
X6557131Y-20506306D01*
X6542846Y-20463449D01*
X6528560Y-20392020D01*
X6528560Y-20334877D01*
X6542846Y-20263449D01*
X6557131Y-20220592D01*
X6571417Y-20192020D01*
X6599989Y-20149163D01*
X6614274Y-20134877D01*
X6785703Y-20177734D02*
X6814274Y-20177734D01*
X6842846Y-20192020D01*
X6857131Y-20206306D01*
X6871417Y-20234877D01*
X6885703Y-20292020D01*
X6885703Y-20363449D01*
X6871417Y-20420592D01*
X6857131Y-20449163D01*
X6842846Y-20463449D01*
X6814274Y-20477734D01*
X6785703Y-20477734D01*
X6757131Y-20463449D01*
X6742846Y-20449163D01*
X6728560Y-20420592D01*
X6714274Y-20363449D01*
X6714274Y-20292020D01*
X6728560Y-20234877D01*
X6742846Y-20206306D01*
X6757131Y-20192020D01*
X6785703Y-20177734D01*
X7242846Y-20477734D02*
X7242846Y-20177734D01*
X7371417Y-20477734D02*
X7371417Y-20320592D01*
X7357131Y-20292020D01*
X7328560Y-20277734D01*
X7285703Y-20277734D01*
X7257131Y-20292020D01*
X7242846Y-20306306D01*
X7557131Y-20477734D02*
X7528560Y-20463449D01*
X7514274Y-20449163D01*
X7499989Y-20420592D01*
X7499989Y-20334877D01*
X7514274Y-20306306D01*
X7528560Y-20292020D01*
X7557131Y-20277734D01*
X7599989Y-20277734D01*
X7628560Y-20292020D01*
X7642846Y-20306306D01*
X7657131Y-20334877D01*
X7657131Y-20420592D01*
X7642846Y-20449163D01*
X7628560Y-20463449D01*
X7599989Y-20477734D01*
X7557131Y-20477734D01*
X7828560Y-20477734D02*
X7799989Y-20463449D01*
X7785703Y-20434877D01*
X7785703Y-20177734D01*
X8057132Y-20463449D02*
X8028560Y-20477734D01*
X7971417Y-20477734D01*
X7942846Y-20463449D01*
X7928560Y-20434877D01*
X7928560Y-20320592D01*
X7942846Y-20292020D01*
X7971417Y-20277734D01*
X8028560Y-20277734D01*
X8057132Y-20292020D01*
X8071417Y-20320592D01*
X8071417Y-20349163D01*
X7928560Y-20377734D01*
X8185703Y-20463449D02*
X8214274Y-20477734D01*
X8271417Y-20477734D01*
X8299989Y-20463449D01*
X8314274Y-20434877D01*
X8314274Y-20420592D01*
X8299989Y-20392020D01*
X8271417Y-20377734D01*
X8228560Y-20377734D01*
X8199989Y-20363449D01*
X8185703Y-20334877D01*
X8185703Y-20320592D01*
X8199989Y-20292020D01*
X8228560Y-20277734D01*
X8271417Y-20277734D01*
X8299989Y-20292020D01*
X8671417Y-20363449D02*
X8899989Y-20363449D01*
X8785703Y-20477734D02*
X8785703Y-20249163D01*
X9257132Y-20206306D02*
X9271417Y-20192020D01*
X9299989Y-20177734D01*
X9371417Y-20177734D01*
X9399989Y-20192020D01*
X9414274Y-20206306D01*
X9428560Y-20234877D01*
X9428560Y-20263449D01*
X9414274Y-20306306D01*
X9242846Y-20477734D01*
X9428560Y-20477734D01*
X9771417Y-20463449D02*
X9799989Y-20477734D01*
X9857132Y-20477734D01*
X9885703Y-20463449D01*
X9899989Y-20434877D01*
X9899989Y-20420592D01*
X9885703Y-20392020D01*
X9857132Y-20377734D01*
X9814274Y-20377734D01*
X9785703Y-20363449D01*
X9771417Y-20334877D01*
X9771417Y-20320592D01*
X9785703Y-20292020D01*
X9814274Y-20277734D01*
X9857132Y-20277734D01*
X9885703Y-20292020D01*
X10071417Y-20477734D02*
X10042846Y-20463449D01*
X10028560Y-20434877D01*
X10028560Y-20177734D01*
X10228560Y-20477734D02*
X10199989Y-20463449D01*
X10185703Y-20449163D01*
X10171417Y-20420592D01*
X10171417Y-20334877D01*
X10185703Y-20306306D01*
X10199989Y-20292020D01*
X10228560Y-20277734D01*
X10271417Y-20277734D01*
X10299989Y-20292020D01*
X10314274Y-20306306D01*
X10328560Y-20334877D01*
X10328560Y-20420592D01*
X10314274Y-20449163D01*
X10299989Y-20463449D01*
X10271417Y-20477734D01*
X10228560Y-20477734D01*
X10414274Y-20277734D02*
X10528560Y-20277734D01*
X10457132Y-20177734D02*
X10457132Y-20434877D01*
X10471417Y-20463449D01*
X10499989Y-20477734D01*
X10528560Y-20477734D01*
X10614275Y-20463449D02*
X10642846Y-20477734D01*
X10699989Y-20477734D01*
X10728560Y-20463449D01*
X10742846Y-20434877D01*
X10742846Y-20420592D01*
X10728560Y-20392020D01*
X10699989Y-20377734D01*
X10657132Y-20377734D01*
X10628560Y-20363449D01*
X10614275Y-20334877D01*
X10614275Y-20320592D01*
X10628560Y-20292020D01*
X10657132Y-20277734D01*
X10699989Y-20277734D01*
X10728560Y-20292020D01*
X10842846Y-20592020D02*
X10857132Y-20577734D01*
X10885703Y-20534877D01*
X10899989Y-20506306D01*
X10914274Y-20463449D01*
X10928560Y-20392020D01*
X10928560Y-20334877D01*
X10914274Y-20263449D01*
X10899989Y-20220592D01*
X10885703Y-20192020D01*
X10857132Y-20149163D01*
X10842846Y-20134877D01*
X11385703Y-20592020D02*
X11371417Y-20577734D01*
X11342846Y-20534877D01*
X11328560Y-20506306D01*
X11314274Y-20463449D01*
X11299989Y-20392020D01*
X11299989Y-20334877D01*
X11314274Y-20263449D01*
X11328560Y-20220592D01*
X11342846Y-20192020D01*
X11371417Y-20149163D01*
X11385703Y-20134877D01*
X11499989Y-20277734D02*
X11499989Y-20477734D01*
X11499989Y-20306306D02*
X11514274Y-20292020D01*
X11542846Y-20277734D01*
X11585703Y-20277734D01*
X11614274Y-20292020D01*
X11628560Y-20320592D01*
X11628560Y-20477734D01*
X11814274Y-20477734D02*
X11785703Y-20463449D01*
X11771417Y-20449163D01*
X11757132Y-20420592D01*
X11757132Y-20334877D01*
X11771417Y-20306306D01*
X11785703Y-20292020D01*
X11814274Y-20277734D01*
X11857132Y-20277734D01*
X11885703Y-20292020D01*
X11899989Y-20306306D01*
X11914274Y-20334877D01*
X11914274Y-20420592D01*
X11899989Y-20449163D01*
X11885703Y-20463449D01*
X11857132Y-20477734D01*
X11814274Y-20477734D01*
X11999989Y-20277734D02*
X12114274Y-20277734D01*
X12042846Y-20177734D02*
X12042846Y-20434877D01*
X12057132Y-20463449D01*
X12085703Y-20477734D01*
X12114274Y-20477734D01*
X12442846Y-20277734D02*
X12442846Y-20577734D01*
X12442846Y-20292020D02*
X12471417Y-20277734D01*
X12528560Y-20277734D01*
X12557132Y-20292020D01*
X12571417Y-20306306D01*
X12585703Y-20334877D01*
X12585703Y-20420592D01*
X12571417Y-20449163D01*
X12557132Y-20463449D01*
X12528560Y-20477734D01*
X12471417Y-20477734D01*
X12442846Y-20463449D01*
X12757132Y-20477734D02*
X12728560Y-20463449D01*
X12714274Y-20434877D01*
X12714274Y-20177734D01*
X12999989Y-20477734D02*
X12999989Y-20320592D01*
X12985703Y-20292020D01*
X12957132Y-20277734D01*
X12899989Y-20277734D01*
X12871417Y-20292020D01*
X12999989Y-20463449D02*
X12971417Y-20477734D01*
X12899989Y-20477734D01*
X12871417Y-20463449D01*
X12857132Y-20434877D01*
X12857132Y-20406306D01*
X12871417Y-20377734D01*
X12899989Y-20363449D01*
X12971417Y-20363449D01*
X12999989Y-20349163D01*
X13099989Y-20277734D02*
X13214274Y-20277734D01*
X13142846Y-20177734D02*
X13142846Y-20434877D01*
X13157132Y-20463449D01*
X13185703Y-20477734D01*
X13214274Y-20477734D01*
X13428560Y-20463449D02*
X13399989Y-20477734D01*
X13342846Y-20477734D01*
X13314275Y-20463449D01*
X13299989Y-20434877D01*
X13299989Y-20320592D01*
X13314275Y-20292020D01*
X13342846Y-20277734D01*
X13399989Y-20277734D01*
X13428560Y-20292020D01*
X13442846Y-20320592D01*
X13442846Y-20349163D01*
X13299989Y-20377734D01*
X13699989Y-20477734D02*
X13699989Y-20177734D01*
X13699989Y-20463449D02*
X13671417Y-20477734D01*
X13614275Y-20477734D01*
X13585703Y-20463449D01*
X13571417Y-20449163D01*
X13557132Y-20420592D01*
X13557132Y-20334877D01*
X13571417Y-20306306D01*
X13585703Y-20292020D01*
X13614275Y-20277734D01*
X13671417Y-20277734D01*
X13699989Y-20292020D01*
X13814275Y-20592020D02*
X13828560Y-20577734D01*
X13857132Y-20534877D01*
X13871417Y-20506306D01*
X13885703Y-20463449D01*
X13899989Y-20392020D01*
X13899989Y-20334877D01*
X13885703Y-20263449D01*
X13871417Y-20220592D01*
X13857132Y-20192020D01*
X13828560Y-20149163D01*
X13814275Y-20134877D01*
X1742821Y-21022057D02*
X1942846Y-20822032D01*
X1742821Y-20622007D01*
X1542796Y-20822032D01*
X1742821Y-21022057D01*
X2342846Y-20757746D02*
X2342846Y-20957746D01*
X2271417Y-20643461D02*
X2199989Y-20857746D01*
X2385703Y-20857746D01*
X2499989Y-20929175D02*
X2514275Y-20943461D01*
X2499989Y-20957746D01*
X2485703Y-20943461D01*
X2499989Y-20929175D01*
X2499989Y-20957746D01*
X2699989Y-20657746D02*
X2728560Y-20657746D01*
X2757132Y-20672032D01*
X2771417Y-20686318D01*
X2785703Y-20714889D01*
X2799989Y-20772032D01*
X2799989Y-20843461D01*
X2785703Y-20900604D01*
X2771417Y-20929175D01*
X2757132Y-20943461D01*
X2728560Y-20957746D01*
X2699989Y-20957746D01*
X2671417Y-20943461D01*
X2657132Y-20929175D01*
X2642846Y-20900604D01*
X2628560Y-20843461D01*
X2628560Y-20772032D01*
X2642846Y-20714889D01*
X2657132Y-20686318D01*
X2671417Y-20672032D01*
X2699989Y-20657746D01*
X2985703Y-20657746D02*
X3014274Y-20657746D01*
X3042846Y-20672032D01*
X3057132Y-20686318D01*
X3071417Y-20714889D01*
X3085703Y-20772032D01*
X3085703Y-20843461D01*
X3071417Y-20900604D01*
X3057132Y-20929175D01*
X3042846Y-20943461D01*
X3014274Y-20957746D01*
X2985703Y-20957746D01*
X2957132Y-20943461D01*
X2942846Y-20929175D01*
X2928560Y-20900604D01*
X2914274Y-20843461D01*
X2914274Y-20772032D01*
X2928560Y-20714889D01*
X2942846Y-20686318D01*
X2957132Y-20672032D01*
X2985703Y-20657746D01*
X3214274Y-20957746D02*
X3214274Y-20757746D01*
X3214274Y-20786318D02*
X3228560Y-20772032D01*
X3257132Y-20757746D01*
X3299989Y-20757746D01*
X3328560Y-20772032D01*
X3342846Y-20800604D01*
X3342846Y-20957746D01*
X3342846Y-20800604D02*
X3357132Y-20772032D01*
X3385703Y-20757746D01*
X3428560Y-20757746D01*
X3457132Y-20772032D01*
X3471417Y-20800604D01*
X3471417Y-20957746D01*
X3614274Y-20957746D02*
X3614274Y-20757746D01*
X3614274Y-20786318D02*
X3628560Y-20772032D01*
X3657132Y-20757746D01*
X3699989Y-20757746D01*
X3728560Y-20772032D01*
X3742846Y-20800604D01*
X3742846Y-20957746D01*
X3742846Y-20800604D02*
X3757132Y-20772032D01*
X3785703Y-20757746D01*
X3828560Y-20757746D01*
X3857132Y-20772032D01*
X3871417Y-20800604D01*
X3871417Y-20957746D01*
X4457132Y-20643461D02*
X4199989Y-21029175D01*
X4842846Y-20657746D02*
X4871417Y-20657746D01*
X4899989Y-20672032D01*
X4914274Y-20686318D01*
X4928560Y-20714889D01*
X4942846Y-20772032D01*
X4942846Y-20843461D01*
X4928560Y-20900604D01*
X4914274Y-20929175D01*
X4899989Y-20943461D01*
X4871417Y-20957746D01*
X4842846Y-20957746D01*
X4814274Y-20943461D01*
X4799989Y-20929175D01*
X4785703Y-20900604D01*
X4771417Y-20843461D01*
X4771417Y-20772032D01*
X4785703Y-20714889D01*
X4799989Y-20686318D01*
X4814274Y-20672032D01*
X4842846Y-20657746D01*
X5071417Y-20929175D02*
X5085703Y-20943461D01*
X5071417Y-20957746D01*
X5057132Y-20943461D01*
X5071417Y-20929175D01*
X5071417Y-20957746D01*
X5371417Y-20957746D02*
X5199989Y-20957746D01*
X5285703Y-20957746D02*
X5285703Y-20657746D01*
X5257132Y-20700604D01*
X5228560Y-20729175D01*
X5199989Y-20743461D01*
X5642846Y-20657746D02*
X5499989Y-20657746D01*
X5485703Y-20800604D01*
X5499989Y-20786318D01*
X5528560Y-20772032D01*
X5599989Y-20772032D01*
X5628560Y-20786318D01*
X5642846Y-20800604D01*
X5657131Y-20829175D01*
X5657131Y-20900604D01*
X5642846Y-20929175D01*
X5628560Y-20943461D01*
X5599989Y-20957746D01*
X5528560Y-20957746D01*
X5499989Y-20943461D01*
X5485703Y-20929175D01*
X5828560Y-20786318D02*
X5799989Y-20772032D01*
X5785703Y-20757746D01*
X5771417Y-20729175D01*
X5771417Y-20714889D01*
X5785703Y-20686318D01*
X5799989Y-20672032D01*
X5828560Y-20657746D01*
X5885703Y-20657746D01*
X5914274Y-20672032D01*
X5928560Y-20686318D01*
X5942846Y-20714889D01*
X5942846Y-20729175D01*
X5928560Y-20757746D01*
X5914274Y-20772032D01*
X5885703Y-20786318D01*
X5828560Y-20786318D01*
X5799989Y-20800604D01*
X5785703Y-20814889D01*
X5771417Y-20843461D01*
X5771417Y-20900604D01*
X5785703Y-20929175D01*
X5799989Y-20943461D01*
X5828560Y-20957746D01*
X5885703Y-20957746D01*
X5914274Y-20943461D01*
X5928560Y-20929175D01*
X5942846Y-20900604D01*
X5942846Y-20843461D01*
X5928560Y-20814889D01*
X5914274Y-20800604D01*
X5885703Y-20786318D01*
X6057132Y-20657746D02*
X6057132Y-20714889D01*
X6171417Y-20657746D02*
X6171417Y-20714889D01*
X6614274Y-21072032D02*
X6599989Y-21057746D01*
X6571417Y-21014889D01*
X6557131Y-20986318D01*
X6542846Y-20943461D01*
X6528560Y-20872032D01*
X6528560Y-20814889D01*
X6542846Y-20743461D01*
X6557131Y-20700604D01*
X6571417Y-20672032D01*
X6599989Y-20629175D01*
X6614274Y-20614889D01*
X6785703Y-20657746D02*
X6814274Y-20657746D01*
X6842846Y-20672032D01*
X6857131Y-20686318D01*
X6871417Y-20714889D01*
X6885703Y-20772032D01*
X6885703Y-20843461D01*
X6871417Y-20900604D01*
X6857131Y-20929175D01*
X6842846Y-20943461D01*
X6814274Y-20957746D01*
X6785703Y-20957746D01*
X6757131Y-20943461D01*
X6742846Y-20929175D01*
X6728560Y-20900604D01*
X6714274Y-20843461D01*
X6714274Y-20772032D01*
X6728560Y-20714889D01*
X6742846Y-20686318D01*
X6757131Y-20672032D01*
X6785703Y-20657746D01*
X7242846Y-20957746D02*
X7242846Y-20657746D01*
X7371417Y-20957746D02*
X7371417Y-20800604D01*
X7357131Y-20772032D01*
X7328560Y-20757746D01*
X7285703Y-20757746D01*
X7257131Y-20772032D01*
X7242846Y-20786318D01*
X7557131Y-20957746D02*
X7528560Y-20943461D01*
X7514274Y-20929175D01*
X7499989Y-20900604D01*
X7499989Y-20814889D01*
X7514274Y-20786318D01*
X7528560Y-20772032D01*
X7557131Y-20757746D01*
X7599989Y-20757746D01*
X7628560Y-20772032D01*
X7642846Y-20786318D01*
X7657131Y-20814889D01*
X7657131Y-20900604D01*
X7642846Y-20929175D01*
X7628560Y-20943461D01*
X7599989Y-20957746D01*
X7557131Y-20957746D01*
X7828560Y-20957746D02*
X7799989Y-20943461D01*
X7785703Y-20914889D01*
X7785703Y-20657746D01*
X8057132Y-20943461D02*
X8028560Y-20957746D01*
X7971417Y-20957746D01*
X7942846Y-20943461D01*
X7928560Y-20914889D01*
X7928560Y-20800604D01*
X7942846Y-20772032D01*
X7971417Y-20757746D01*
X8028560Y-20757746D01*
X8057132Y-20772032D01*
X8071417Y-20800604D01*
X8071417Y-20829175D01*
X7928560Y-20857746D01*
X8185703Y-20943461D02*
X8214274Y-20957746D01*
X8271417Y-20957746D01*
X8299989Y-20943461D01*
X8314274Y-20914889D01*
X8314274Y-20900604D01*
X8299989Y-20872032D01*
X8271417Y-20857746D01*
X8228560Y-20857746D01*
X8199989Y-20843461D01*
X8185703Y-20814889D01*
X8185703Y-20800604D01*
X8199989Y-20772032D01*
X8228560Y-20757746D01*
X8271417Y-20757746D01*
X8299989Y-20772032D01*
X8671417Y-20843461D02*
X8899989Y-20843461D01*
X8785703Y-20957746D02*
X8785703Y-20729175D01*
X9314274Y-20786318D02*
X9285703Y-20772032D01*
X9271417Y-20757746D01*
X9257132Y-20729175D01*
X9257132Y-20714889D01*
X9271417Y-20686318D01*
X9285703Y-20672032D01*
X9314274Y-20657746D01*
X9371417Y-20657746D01*
X9399989Y-20672032D01*
X9414274Y-20686318D01*
X9428560Y-20714889D01*
X9428560Y-20729175D01*
X9414274Y-20757746D01*
X9399989Y-20772032D01*
X9371417Y-20786318D01*
X9314274Y-20786318D01*
X9285703Y-20800604D01*
X9271417Y-20814889D01*
X9257132Y-20843461D01*
X9257132Y-20900604D01*
X9271417Y-20929175D01*
X9285703Y-20943461D01*
X9314274Y-20957746D01*
X9371417Y-20957746D01*
X9399989Y-20943461D01*
X9414274Y-20929175D01*
X9428560Y-20900604D01*
X9428560Y-20843461D01*
X9414274Y-20814889D01*
X9399989Y-20800604D01*
X9371417Y-20786318D01*
X9771417Y-20943461D02*
X9799989Y-20957746D01*
X9857132Y-20957746D01*
X9885703Y-20943461D01*
X9899989Y-20914889D01*
X9899989Y-20900604D01*
X9885703Y-20872032D01*
X9857132Y-20857746D01*
X9814274Y-20857746D01*
X9785703Y-20843461D01*
X9771417Y-20814889D01*
X9771417Y-20800604D01*
X9785703Y-20772032D01*
X9814274Y-20757746D01*
X9857132Y-20757746D01*
X9885703Y-20772032D01*
X10071417Y-20957746D02*
X10042846Y-20943461D01*
X10028560Y-20914889D01*
X10028560Y-20657746D01*
X10228560Y-20957746D02*
X10199989Y-20943461D01*
X10185703Y-20929175D01*
X10171417Y-20900604D01*
X10171417Y-20814889D01*
X10185703Y-20786318D01*
X10199989Y-20772032D01*
X10228560Y-20757746D01*
X10271417Y-20757746D01*
X10299989Y-20772032D01*
X10314274Y-20786318D01*
X10328560Y-20814889D01*
X10328560Y-20900604D01*
X10314274Y-20929175D01*
X10299989Y-20943461D01*
X10271417Y-20957746D01*
X10228560Y-20957746D01*
X10414274Y-20757746D02*
X10528560Y-20757746D01*
X10457132Y-20657746D02*
X10457132Y-20914889D01*
X10471417Y-20943461D01*
X10499989Y-20957746D01*
X10528560Y-20957746D01*
X10614275Y-20943461D02*
X10642846Y-20957746D01*
X10699989Y-20957746D01*
X10728560Y-20943461D01*
X10742846Y-20914889D01*
X10742846Y-20900604D01*
X10728560Y-20872032D01*
X10699989Y-20857746D01*
X10657132Y-20857746D01*
X10628560Y-20843461D01*
X10614275Y-20814889D01*
X10614275Y-20800604D01*
X10628560Y-20772032D01*
X10657132Y-20757746D01*
X10699989Y-20757746D01*
X10728560Y-20772032D01*
X10842846Y-21072032D02*
X10857132Y-21057746D01*
X10885703Y-21014889D01*
X10899989Y-20986318D01*
X10914274Y-20943461D01*
X10928560Y-20872032D01*
X10928560Y-20814889D01*
X10914274Y-20743461D01*
X10899989Y-20700604D01*
X10885703Y-20672032D01*
X10857132Y-20629175D01*
X10842846Y-20614889D01*
X11385703Y-21072032D02*
X11371417Y-21057746D01*
X11342846Y-21014889D01*
X11328560Y-20986318D01*
X11314274Y-20943461D01*
X11299989Y-20872032D01*
X11299989Y-20814889D01*
X11314274Y-20743461D01*
X11328560Y-20700604D01*
X11342846Y-20672032D01*
X11371417Y-20629175D01*
X11385703Y-20614889D01*
X11499989Y-20757746D02*
X11499989Y-20957746D01*
X11499989Y-20786318D02*
X11514274Y-20772032D01*
X11542846Y-20757746D01*
X11585703Y-20757746D01*
X11614274Y-20772032D01*
X11628560Y-20800604D01*
X11628560Y-20957746D01*
X11814274Y-20957746D02*
X11785703Y-20943461D01*
X11771417Y-20929175D01*
X11757132Y-20900604D01*
X11757132Y-20814889D01*
X11771417Y-20786318D01*
X11785703Y-20772032D01*
X11814274Y-20757746D01*
X11857132Y-20757746D01*
X11885703Y-20772032D01*
X11899989Y-20786318D01*
X11914274Y-20814889D01*
X11914274Y-20900604D01*
X11899989Y-20929175D01*
X11885703Y-20943461D01*
X11857132Y-20957746D01*
X11814274Y-20957746D01*
X11999989Y-20757746D02*
X12114274Y-20757746D01*
X12042846Y-20657746D02*
X12042846Y-20914889D01*
X12057132Y-20943461D01*
X12085703Y-20957746D01*
X12114274Y-20957746D01*
X12442846Y-20757746D02*
X12442846Y-21057746D01*
X12442846Y-20772032D02*
X12471417Y-20757746D01*
X12528560Y-20757746D01*
X12557132Y-20772032D01*
X12571417Y-20786318D01*
X12585703Y-20814889D01*
X12585703Y-20900604D01*
X12571417Y-20929175D01*
X12557132Y-20943461D01*
X12528560Y-20957746D01*
X12471417Y-20957746D01*
X12442846Y-20943461D01*
X12757132Y-20957746D02*
X12728560Y-20943461D01*
X12714274Y-20914889D01*
X12714274Y-20657746D01*
X12999989Y-20957746D02*
X12999989Y-20800604D01*
X12985703Y-20772032D01*
X12957132Y-20757746D01*
X12899989Y-20757746D01*
X12871417Y-20772032D01*
X12999989Y-20943461D02*
X12971417Y-20957746D01*
X12899989Y-20957746D01*
X12871417Y-20943461D01*
X12857132Y-20914889D01*
X12857132Y-20886318D01*
X12871417Y-20857746D01*
X12899989Y-20843461D01*
X12971417Y-20843461D01*
X12999989Y-20829175D01*
X13099989Y-20757746D02*
X13214274Y-20757746D01*
X13142846Y-20657746D02*
X13142846Y-20914889D01*
X13157132Y-20943461D01*
X13185703Y-20957746D01*
X13214274Y-20957746D01*
X13428560Y-20943461D02*
X13399989Y-20957746D01*
X13342846Y-20957746D01*
X13314275Y-20943461D01*
X13299989Y-20914889D01*
X13299989Y-20800604D01*
X13314275Y-20772032D01*
X13342846Y-20757746D01*
X13399989Y-20757746D01*
X13428560Y-20772032D01*
X13442846Y-20800604D01*
X13442846Y-20829175D01*
X13299989Y-20857746D01*
X13699989Y-20957746D02*
X13699989Y-20657746D01*
X13699989Y-20943461D02*
X13671417Y-20957746D01*
X13614275Y-20957746D01*
X13585703Y-20943461D01*
X13571417Y-20929175D01*
X13557132Y-20900604D01*
X13557132Y-20814889D01*
X13571417Y-20786318D01*
X13585703Y-20772032D01*
X13614275Y-20757746D01*
X13671417Y-20757746D01*
X13699989Y-20772032D01*
X13814275Y-21072032D02*
X13828560Y-21057746D01*
X13857132Y-21014889D01*
X13871417Y-20986318D01*
X13885703Y-20943461D01*
X13899989Y-20872032D01*
X13899989Y-20814889D01*
X13885703Y-20743461D01*
X13871417Y-20700604D01*
X13857132Y-20672032D01*
X13828560Y-20629175D01*
X13814275Y-20614889D01*
M02*
